M48
;DRILL file {KiCad 4.0.7} date 09/18/24 00:27:52
;FORMAT={-:-/ absolute / metric / decimal}
FMAT,2
METRIC,TZ
T1C0.400
T2C0.700
T3C0.762
T4C0.800
T5C0.900
T6C1.000
T7C1.270
T8C1.300
T9C1.500
T10C1.524
%
G90
G05
M71
T1
X213.75Y-118.155
T2
X106.485Y-71.185
X107.696Y-87.376
X114.105Y-71.185
X115.316Y-87.376
X118.55Y-71.185
X126.17Y-71.185
X129.98Y-84.52
X129.98Y-92.14
X133.79Y-84.52
X133.79Y-92.14
X137.668Y-70.104
X145.288Y-70.104
X157.92Y-80.075
X164.27Y-85.155
X165.54Y-80.075
X171.89Y-85.155
X179.38Y-102.25
X183.32Y-85.79
X183.32Y-93.41
X187.Y-102.25
X187.13Y-74.36
X187.13Y-81.98
X187.706Y-84.836
X195.326Y-84.836
X201.1Y-87.06
X201.1Y-94.68
T3
X101.346Y-129.54
X103.886Y-129.54
X106.426Y-129.54
X108.966Y-129.54
X111.506Y-109.22
X111.506Y-129.54
X114.046Y-109.22
X114.046Y-129.54
X116.586Y-109.22
X116.586Y-129.54
X119.126Y-109.22
X119.126Y-129.54
X121.666Y-109.22
X121.666Y-129.54
X124.206Y-109.22
X124.206Y-129.54
X126.746Y-109.22
X126.746Y-129.54
X129.286Y-109.22
X129.286Y-129.54
X131.826Y-109.22
X131.826Y-129.54
X134.366Y-109.22
X134.366Y-129.54
X136.906Y-109.22
X136.906Y-129.54
X139.446Y-109.22
X139.446Y-129.54
X172.95Y-109.34
X172.95Y-129.66
X175.49Y-109.34
X175.49Y-129.66
X178.03Y-109.34
X178.03Y-129.66
X180.57Y-109.34
X180.57Y-129.66
X183.11Y-109.34
X183.11Y-129.66
X185.65Y-109.34
X185.65Y-129.66
X188.19Y-109.34
X188.19Y-129.66
X190.73Y-109.34
X190.73Y-129.66
X193.27Y-109.34
X193.27Y-129.66
X195.81Y-109.34
X195.81Y-129.66
X198.35Y-109.34
X198.35Y-129.66
X200.89Y-109.34
X200.89Y-129.66
X203.43Y-129.66
X205.97Y-129.66
X208.51Y-129.66
X211.05Y-129.66
T4
X114.74Y-92.815
X114.74Y-97.815
X118.55Y-75.075
X118.55Y-80.075
X125.535Y-95.315
X125.535Y-97.855
X125.535Y-100.395
X125.535Y-102.935
X130.615Y-66.185
X130.615Y-71.185
X132.52Y-95.315
X132.52Y-97.855
X132.52Y-100.395
X132.52Y-102.935
X138.235Y-87.695
X138.235Y-95.315
X140.775Y-87.695
X140.775Y-95.315
X143.315Y-87.695
X143.315Y-95.315
X145.855Y-87.695
X145.855Y-95.315
X148.395Y-87.695
X148.395Y-95.315
X150.3Y-66.105
X150.935Y-87.695
X150.935Y-95.315
X153.475Y-87.695
X153.475Y-95.315
X155.3Y-66.105
X164.27Y-90.87
X164.27Y-98.49
X166.81Y-90.87
X166.81Y-98.49
X169.35Y-90.87
X169.35Y-98.49
X171.89Y-90.87
X171.89Y-98.49
X176.335Y-75.63
X181.335Y-75.63
X183.32Y-66.105
X186.944Y-91.44
X188.32Y-66.105
X189.484Y-88.9
X192.024Y-91.44
X192.21Y-75.71
X192.21Y-80.71
X196.02Y-89.6
X196.02Y-94.6
X196.088Y-78.232
X198.628Y-75.692
X198.628Y-80.772
X199.Y-99.67
X199.Y-102.21
X199.Y-104.75
X202.986Y-82.042
X205.486Y-82.042
X215.392Y-91.472
X215.392Y-93.472
X215.392Y-95.472
T5
X125.Y-88.75
X125.Y-91.29
T6
X114.85Y-76.48
X114.85Y-79.02
X207.958Y-88.33
X207.958Y-101.03
T7
X140.14Y-75.63
X140.14Y-80.075
X150.3Y-71.185
X152.84Y-75.63
X152.84Y-80.075
X157.92Y-75.63
X163.Y-71.185
X166.81Y-71.185
X170.62Y-75.63
X170.62Y-80.075
X179.51Y-71.185
X183.32Y-71.185
X183.32Y-80.075
X196.02Y-71.185
X199.83Y-71.185
X212.53Y-71.185
T8
X211.836Y-76.28
X211.836Y-81.28
T9
X215.392Y-89.372
X215.392Y-97.572
T10
X122.36Y-75.63
X122.36Y-80.075
X135.06Y-75.63
X135.06Y-80.075
T8
X104.47Y-55.75G85X106.67Y-55.75
G05
X109.55Y-55.75G85X111.75Y-55.75
G05
X207.5Y-55.75G85X209.7Y-55.75
G05
X212.58Y-55.75G85X214.78Y-55.75
G05
T0
M30
