G04 #@! TF.FileFunction,Copper,L2,Bot,Signal*
%FSLAX46Y46*%
G04 Gerber Fmt 4.6, Leading zero omitted, Abs format (unit mm)*
G04 Created by KiCad (PCBNEW 4.0.7) date 09/18/24 00:27:45*
%MOMM*%
%LPD*%
G01*
G04 APERTURE LIST*
%ADD10C,0.100000*%
%ADD11R,2.286000X2.286000*%
%ADD12O,2.286000X2.286000*%
%ADD13R,2.540000X2.540000*%
%ADD14O,2.540000X2.540000*%
%ADD15C,1.600000*%
%ADD16C,1.800000*%
%ADD17R,1.800000X1.800000*%
%ADD18C,2.600000*%
%ADD19C,1.400000*%
%ADD20O,1.400000X1.400000*%
%ADD21R,1.600000X2.400000*%
%ADD22O,1.600000X2.400000*%
%ADD23R,1.400000X1.400000*%
%ADD24R,5.000000X2.000000*%
%ADD25O,5.000000X2.000000*%
%ADD26O,1.500000X2.000000*%
%ADD27R,2.000000X1.500000*%
%ADD28O,2.000000X1.500000*%
%ADD29R,1.500000X2.000000*%
%ADD30R,2.000000X2.000000*%
%ADD31O,2.000000X2.000000*%
%ADD32C,1.500000*%
%ADD33R,1.600000X1.600000*%
%ADD34O,3.000000X1.600000*%
%ADD35C,1.520000*%
%ADD36R,1.520000X1.520000*%
%ADD37R,1.524000X1.524000*%
%ADD38C,1.524000*%
%ADD39C,0.600000*%
%ADD40C,0.750000*%
%ADD41C,0.254000*%
G04 APERTURE END LIST*
D10*
D11*
X170620000Y-80075000D03*
D12*
X183320000Y-80075000D03*
D11*
X157920000Y-75630000D03*
D12*
X170620000Y-75630000D03*
D11*
X152840000Y-75630000D03*
D12*
X140140000Y-75630000D03*
D11*
X140140000Y-80075000D03*
D12*
X152840000Y-80075000D03*
D13*
X122360000Y-80075000D03*
D14*
X135060000Y-80075000D03*
D13*
X135060000Y-75630000D03*
D14*
X122360000Y-75630000D03*
D11*
X150300000Y-71185000D03*
D12*
X163000000Y-71185000D03*
D11*
X166810000Y-71185000D03*
D12*
X179510000Y-71185000D03*
D11*
X199830000Y-71185000D03*
D12*
X212530000Y-71185000D03*
D11*
X183320000Y-71185000D03*
D12*
X196020000Y-71185000D03*
D15*
X196020000Y-89600000D03*
X196020000Y-94600000D03*
X150300000Y-66105000D03*
X155300000Y-66105000D03*
X192210000Y-80710000D03*
X192210000Y-75710000D03*
X130615000Y-71185000D03*
X130615000Y-66185000D03*
X176335000Y-75630000D03*
X181335000Y-75630000D03*
X183320000Y-66105000D03*
X188320000Y-66105000D03*
D16*
X114850000Y-79020000D03*
D17*
X114850000Y-76480000D03*
D18*
X211836000Y-81280000D03*
X211836000Y-76280000D03*
D19*
X165540000Y-80075000D03*
D20*
X157920000Y-80075000D03*
D19*
X164270000Y-85155000D03*
D20*
X171890000Y-85155000D03*
D19*
X129980000Y-84520000D03*
D20*
X129980000Y-92140000D03*
D19*
X133790000Y-84520000D03*
D20*
X133790000Y-92140000D03*
D19*
X201100000Y-94680000D03*
D20*
X201100000Y-87060000D03*
D19*
X126170000Y-71185000D03*
D20*
X118550000Y-71185000D03*
D19*
X183320000Y-93410000D03*
D20*
X183320000Y-85790000D03*
D19*
X106485000Y-71185000D03*
D20*
X114105000Y-71185000D03*
D19*
X187130000Y-74360000D03*
D20*
X187130000Y-81980000D03*
D21*
X171890000Y-90870000D03*
D22*
X164270000Y-98490000D03*
X169350000Y-90870000D03*
X166810000Y-98490000D03*
X166810000Y-90870000D03*
X169350000Y-98490000D03*
X164270000Y-90870000D03*
X171890000Y-98490000D03*
D19*
X125535000Y-97855000D03*
X125535000Y-95315000D03*
D23*
X125535000Y-100395000D03*
D19*
X125535000Y-102935000D03*
X132520000Y-97855000D03*
X132520000Y-95315000D03*
D23*
X132520000Y-100395000D03*
D19*
X132520000Y-102935000D03*
D24*
X105570000Y-55750000D03*
X110650000Y-55750000D03*
D25*
X208600000Y-55750000D03*
X213680000Y-55750000D03*
D26*
X189484000Y-88900000D03*
D27*
X186944000Y-91440000D03*
D28*
X192024000Y-91440000D03*
X196088000Y-78232000D03*
D29*
X198628000Y-80772000D03*
D26*
X198628000Y-75692000D03*
D21*
X153475000Y-87695000D03*
D22*
X138235000Y-95315000D03*
X150935000Y-87695000D03*
X140775000Y-95315000D03*
X148395000Y-87695000D03*
X143315000Y-95315000D03*
X145855000Y-87695000D03*
X145855000Y-95315000D03*
X143315000Y-87695000D03*
X148395000Y-95315000D03*
X140775000Y-87695000D03*
X150935000Y-95315000D03*
X138235000Y-87695000D03*
X153475000Y-95315000D03*
D30*
X207958000Y-88330000D03*
D31*
X207958000Y-101030000D03*
D32*
X114740000Y-97815000D03*
X114740000Y-92815000D03*
D17*
X125000000Y-88750000D03*
D16*
X125000000Y-91290000D03*
D19*
X115316000Y-87376000D03*
D20*
X107696000Y-87376000D03*
D33*
X205486000Y-82042000D03*
D15*
X202986000Y-82042000D03*
D32*
X215392000Y-95472000D03*
X215392000Y-93472000D03*
X215392000Y-91472000D03*
D34*
X215392000Y-97572000D03*
X215392000Y-89372000D03*
D19*
X187000000Y-102250000D03*
D20*
X179380000Y-102250000D03*
D35*
X199000000Y-102210000D03*
X199000000Y-99670000D03*
D36*
X199000000Y-104750000D03*
D15*
X118550000Y-80075000D03*
X118550000Y-75075000D03*
D19*
X145288000Y-70104000D03*
D20*
X137668000Y-70104000D03*
D19*
X187706000Y-84836000D03*
D20*
X195326000Y-84836000D03*
D37*
X101346000Y-129540000D03*
D38*
X103886000Y-129540000D03*
X106426000Y-129540000D03*
X108966000Y-129540000D03*
X111506000Y-129540000D03*
X114046000Y-129540000D03*
X116586000Y-129540000D03*
X119126000Y-129540000D03*
X121666000Y-129540000D03*
X124206000Y-129540000D03*
X126746000Y-129540000D03*
X129286000Y-129540000D03*
X131826000Y-129540000D03*
X134366000Y-129540000D03*
X136906000Y-129540000D03*
X139446000Y-129540000D03*
X139446000Y-109220000D03*
X136906000Y-109220000D03*
X134366000Y-109220000D03*
X131826000Y-109220000D03*
X129286000Y-109220000D03*
X126746000Y-109220000D03*
X124206000Y-109220000D03*
X121666000Y-109220000D03*
X119126000Y-109220000D03*
X116586000Y-109220000D03*
X114046000Y-109220000D03*
X111506000Y-109220000D03*
D37*
X211050000Y-129660000D03*
D38*
X208510000Y-129660000D03*
X205970000Y-129660000D03*
X203430000Y-129660000D03*
X200890000Y-129660000D03*
X198350000Y-129660000D03*
X195810000Y-129660000D03*
X193270000Y-129660000D03*
X190730000Y-129660000D03*
X188190000Y-129660000D03*
X185650000Y-129660000D03*
X183110000Y-129660000D03*
X180570000Y-129660000D03*
X178030000Y-129660000D03*
X175490000Y-129660000D03*
X172950000Y-129660000D03*
X172950000Y-109340000D03*
X175490000Y-109340000D03*
X178030000Y-109340000D03*
X180570000Y-109340000D03*
X183110000Y-109340000D03*
X185650000Y-109340000D03*
X188190000Y-109340000D03*
X190730000Y-109340000D03*
X193270000Y-109340000D03*
X195810000Y-109340000D03*
X198350000Y-109340000D03*
X200890000Y-109340000D03*
D39*
X213750000Y-118155002D03*
D40*
X118550000Y-80075000D02*
X118550000Y-81980000D01*
X128710000Y-82615000D02*
X129980000Y-83885000D01*
X119185000Y-82615000D02*
X128710000Y-82615000D01*
X118550000Y-81980000D02*
X119185000Y-82615000D01*
X129980000Y-83885000D02*
X129980000Y-84520000D01*
X133790000Y-84520000D02*
X129980000Y-84520000D01*
X118550000Y-71185000D02*
X118550000Y-75075000D01*
X114105000Y-71185000D02*
X118550000Y-71185000D01*
X196020000Y-89600000D02*
X198560000Y-89600000D01*
X198560000Y-89600000D02*
X201100000Y-87060000D01*
X202986000Y-82042000D02*
X198628000Y-82042000D01*
X198628000Y-82042000D02*
X198628000Y-81788000D01*
X192024000Y-91440000D02*
X192024000Y-87376000D01*
X194564000Y-84836000D02*
X197866000Y-84836000D01*
X192024000Y-87376000D02*
X194564000Y-84836000D01*
X198628000Y-80772000D02*
X198628000Y-81788000D01*
X198628000Y-81788000D02*
X198628000Y-84074000D01*
X198628000Y-84074000D02*
X197866000Y-84836000D01*
X114740000Y-92815000D02*
X109579000Y-92815000D01*
X107696000Y-90932000D02*
X107696000Y-87376000D01*
X109579000Y-92815000D02*
X107696000Y-90932000D01*
X192024000Y-91440000D02*
X192024000Y-95950000D01*
X192024000Y-95950000D02*
X192024000Y-95758000D01*
X192024000Y-95758000D02*
X192024000Y-95950000D01*
X208600000Y-55750000D02*
X208600000Y-65985000D01*
X208600000Y-65985000D02*
X212530000Y-69915000D01*
X213680000Y-55750000D02*
X208600000Y-55750000D01*
X130615000Y-66185000D02*
X130615000Y-64835000D01*
X186495000Y-63565000D02*
X188320000Y-65390000D01*
X131885000Y-63565000D02*
X186495000Y-63565000D01*
X130615000Y-64835000D02*
X131885000Y-63565000D01*
X188320000Y-65390000D02*
X188320000Y-66105000D01*
X196020000Y-94600000D02*
X196020000Y-94680000D01*
X196020000Y-94680000D02*
X194750000Y-95950000D01*
X194750000Y-95950000D02*
X192024000Y-95950000D01*
X192024000Y-95950000D02*
X181415000Y-95950000D01*
X161095000Y-81345000D02*
X161095000Y-73725000D01*
X161095000Y-73725000D02*
X158555000Y-71185000D01*
X158555000Y-71185000D02*
X158555000Y-69280000D01*
X158555000Y-69280000D02*
X159825000Y-68010000D01*
X159825000Y-68010000D02*
X171890000Y-68010000D01*
X171890000Y-68010000D02*
X176335000Y-72455000D01*
X176335000Y-72455000D02*
X176970000Y-72455000D01*
X176970000Y-72455000D02*
X178875000Y-74360000D01*
X178875000Y-74360000D02*
X178875000Y-75630000D01*
X164270000Y-84520000D02*
X161095000Y-81345000D01*
X178875000Y-77535000D02*
X180780000Y-79440000D01*
X180780000Y-79440000D02*
X180780000Y-95315000D01*
X180780000Y-95315000D02*
X181415000Y-95950000D01*
X178875000Y-75630000D02*
X178875000Y-77535000D01*
X164270000Y-85155000D02*
X164270000Y-84520000D01*
X188320000Y-66105000D02*
X208720000Y-66105000D01*
X208720000Y-66105000D02*
X212530000Y-69915000D01*
X212530000Y-69915000D02*
X212530000Y-71185000D01*
X164270000Y-90870000D02*
X164270000Y-85155000D01*
X208510000Y-129660000D02*
X208510000Y-126210000D01*
X213800000Y-120920000D02*
X213800000Y-120950000D01*
X208510000Y-126210000D02*
X213800000Y-120920000D01*
X213800000Y-118750000D02*
X213800000Y-120950000D01*
X211328000Y-102616000D02*
X211328000Y-94578000D01*
X207958000Y-91208000D02*
X207958000Y-88330000D01*
X211328000Y-94578000D02*
X207958000Y-91208000D01*
X207958000Y-90250000D02*
X207958000Y-90546000D01*
X207958000Y-88330000D02*
X207958000Y-90250000D01*
X207958000Y-90250000D02*
X207958000Y-90546000D01*
X179380000Y-102250000D02*
X179380000Y-99670000D01*
X179250000Y-100000000D02*
X179250000Y-99670000D01*
X179250000Y-99800000D02*
X179250000Y-100000000D01*
X179380000Y-99670000D02*
X179250000Y-99800000D01*
X199000000Y-99670000D02*
X200762000Y-99670000D01*
X200762000Y-99670000D02*
X205740000Y-104648000D01*
X199000000Y-99670000D02*
X179250000Y-99670000D01*
X179250000Y-99670000D02*
X173070000Y-99670000D01*
X173070000Y-99670000D02*
X171890000Y-98490000D01*
X213800000Y-118105002D02*
X213800000Y-118050000D01*
X213750000Y-118155002D02*
X213800000Y-118105002D01*
X121920000Y-85852000D02*
X117856000Y-85852000D01*
X103886000Y-86106000D02*
X103886000Y-91694000D01*
X106172000Y-83820000D02*
X103886000Y-86106000D01*
X115824000Y-83820000D02*
X106172000Y-83820000D01*
X117856000Y-85852000D02*
X115824000Y-83820000D01*
X127000000Y-85852000D02*
X121920000Y-85852000D01*
X103886000Y-129540000D02*
X103886000Y-91694000D01*
X129980000Y-88832000D02*
X127000000Y-85852000D01*
X129980000Y-88832000D02*
X129980000Y-92140000D01*
X213800000Y-118750000D02*
X213800000Y-118050000D01*
X208969000Y-129601000D02*
X208910000Y-129660000D01*
X207958000Y-90546000D02*
X207958000Y-88330000D01*
X205486000Y-82042000D02*
X205486000Y-85858000D01*
X205486000Y-85858000D02*
X207958000Y-88330000D01*
X211836000Y-81280000D02*
X206248000Y-81280000D01*
X206248000Y-81280000D02*
X205486000Y-82042000D01*
X125535000Y-97855000D02*
X127440000Y-97855000D01*
X129980000Y-95315000D02*
X129980000Y-92140000D01*
X127440000Y-97855000D02*
X129980000Y-95315000D01*
X125535000Y-97855000D02*
X132520000Y-97855000D01*
X208085000Y-88203000D02*
X207958000Y-88330000D01*
X171890000Y-98490000D02*
X171890000Y-96585000D01*
X171890000Y-96585000D02*
X171255000Y-95950000D01*
X171255000Y-95950000D02*
X154110000Y-95950000D01*
X154110000Y-95950000D02*
X153475000Y-95315000D01*
X135695000Y-90235000D02*
X135695000Y-90254998D01*
X153475000Y-93410000D02*
X153475000Y-95315000D01*
X151570000Y-91505000D02*
X153475000Y-93410000D01*
X136945002Y-91505000D02*
X151570000Y-91505000D01*
X135695000Y-90254998D02*
X136945002Y-91505000D01*
X129980000Y-92140000D02*
X129980000Y-90870000D01*
X130615000Y-90235000D02*
X135695000Y-90235000D01*
X129980000Y-90870000D02*
X130615000Y-90235000D01*
X213800000Y-118050000D02*
X213800000Y-105088000D01*
X213800000Y-105088000D02*
X211328000Y-102616000D01*
X209296000Y-104648000D02*
X211328000Y-102616000D01*
X205740000Y-104648000D02*
X209296000Y-104648000D01*
X150300000Y-71185000D02*
X146369000Y-71185000D01*
X146369000Y-71185000D02*
X145288000Y-70104000D01*
X150300000Y-71185000D02*
X150300000Y-66105000D01*
X150300000Y-71185000D02*
X151570000Y-71185000D01*
X152840000Y-72455000D02*
X152840000Y-75630000D01*
X151570000Y-71185000D02*
X152840000Y-72455000D01*
X183320000Y-66105000D02*
X155300000Y-66105000D01*
X183320000Y-66105000D02*
X183320000Y-71185000D01*
X178875000Y-71185000D02*
X183320000Y-71185000D01*
X140775000Y-87695000D02*
X140775000Y-85155000D01*
X148395000Y-85155000D02*
X148395000Y-87695000D01*
X147760000Y-84520000D02*
X148395000Y-85155000D01*
X141410000Y-84520000D02*
X147760000Y-84520000D01*
X140775000Y-85155000D02*
X141410000Y-84520000D01*
X187130000Y-81980000D02*
X190940000Y-81980000D01*
X190940000Y-81980000D02*
X192210000Y-80710000D01*
X196088000Y-78232000D02*
X193548000Y-78232000D01*
X192210000Y-76894000D02*
X192210000Y-75710000D01*
X193548000Y-78232000D02*
X192210000Y-76894000D01*
X192210000Y-75710000D02*
X192210000Y-75630000D01*
X192210000Y-75630000D02*
X190940000Y-74360000D01*
X190940000Y-74360000D02*
X187130000Y-74360000D01*
X130615000Y-71185000D02*
X136587000Y-71185000D01*
X136587000Y-71185000D02*
X137668000Y-70104000D01*
X130615000Y-71185000D02*
X130615000Y-70550000D01*
X130615000Y-71185000D02*
X126170000Y-71185000D01*
X176335000Y-75630000D02*
X174430000Y-75630000D01*
X176335000Y-75630000D02*
X174430000Y-75630000D01*
X174430000Y-75630000D02*
X169985000Y-71185000D01*
X166810000Y-71185000D02*
X169985000Y-71185000D01*
X166810000Y-71185000D02*
X163000000Y-71185000D01*
X211836000Y-76280000D02*
X199216000Y-76280000D01*
X199216000Y-76280000D02*
X198628000Y-75692000D01*
X199830000Y-71185000D02*
X199830000Y-74490000D01*
X199830000Y-74490000D02*
X198628000Y-75692000D01*
X181335000Y-75630000D02*
X183196000Y-75630000D01*
X183196000Y-75630000D02*
X187641000Y-71185000D01*
X187641000Y-71185000D02*
X196020000Y-71185000D01*
X196020000Y-71185000D02*
X199830000Y-71185000D01*
X135060000Y-75630000D02*
X140140000Y-75630000D01*
X122360000Y-75630000D02*
X122360000Y-80075000D01*
X140140000Y-80075000D02*
X135060000Y-80075000D01*
X157920000Y-80075000D02*
X152840000Y-80075000D01*
X157920000Y-75630000D02*
X157920000Y-80075000D01*
X170620000Y-75630000D02*
X170620000Y-80075000D01*
X183320000Y-80075000D02*
X183320000Y-85790000D01*
X198350000Y-109340000D02*
X198350000Y-114150000D01*
X198350000Y-114150000D02*
X196925000Y-115575000D01*
X114105000Y-109285000D02*
X114105000Y-113680000D01*
X114105000Y-113680000D02*
X116000000Y-115575000D01*
X116000000Y-115575000D02*
X196925000Y-115575000D01*
X106485000Y-71185000D02*
X106485000Y-68010000D01*
X110650000Y-63845000D02*
X110650000Y-55750000D01*
X106485000Y-68010000D02*
X110650000Y-63845000D01*
X105570000Y-55750000D02*
X110650000Y-55750000D01*
X165540000Y-80075000D02*
X165540000Y-81980000D01*
X168715000Y-85155000D02*
X171890000Y-85155000D01*
X165540000Y-81980000D02*
X168715000Y-85155000D01*
X166810000Y-90870000D02*
X166810000Y-86425000D01*
X168080000Y-85155000D02*
X171890000Y-85155000D01*
X166810000Y-86425000D02*
X168080000Y-85155000D01*
X133790000Y-92140000D02*
X134425000Y-92140000D01*
X134425000Y-92140000D02*
X135060000Y-92775000D01*
X148395000Y-94045000D02*
X148395000Y-95315000D01*
X147125000Y-92775000D02*
X148395000Y-94045000D01*
X135060000Y-92775000D02*
X147125000Y-92775000D01*
X150935000Y-95315000D02*
X148395000Y-95315000D01*
X179510000Y-97220000D02*
X198560000Y-97220000D01*
X153475000Y-87695000D02*
X159825000Y-94045000D01*
X176335000Y-94045000D02*
X179510000Y-97220000D01*
X159825000Y-94045000D02*
X176335000Y-94045000D01*
X198560000Y-97220000D02*
X201100000Y-94680000D01*
X145855000Y-87695000D02*
X145855000Y-90254998D01*
X150935000Y-90254998D02*
X150935000Y-87695000D01*
X145855000Y-90254998D02*
X150935000Y-90254998D01*
X150935000Y-87695000D02*
X153475000Y-87695000D01*
X145855000Y-87695000D02*
X143315000Y-87695000D01*
X178030000Y-109340000D02*
X178030000Y-110970000D01*
X134425000Y-111000000D02*
X134425000Y-109285000D01*
X134425000Y-111000000D02*
X136250002Y-112825002D01*
X136250002Y-112825002D02*
X176174998Y-112825002D01*
X178030000Y-110970000D02*
X176174998Y-112825002D01*
X171890000Y-90870000D02*
X169350000Y-90870000D01*
X185650000Y-129660000D02*
X185650000Y-121750000D01*
X185650000Y-121750000D02*
X182264000Y-118364000D01*
X126746000Y-129540000D02*
X126746000Y-120142000D01*
X128524000Y-118364000D02*
X182264000Y-118364000D01*
X126746000Y-120142000D02*
X128524000Y-118364000D01*
X183110000Y-129660000D02*
X183110000Y-123010000D01*
X183110000Y-123010000D02*
X179714002Y-119614002D01*
X129286000Y-129540000D02*
X129286000Y-121158000D01*
X130829998Y-119614002D02*
X179714002Y-119614002D01*
X129286000Y-121158000D02*
X130829998Y-119614002D01*
X180570000Y-129660000D02*
X180570000Y-123430004D01*
X180570000Y-123430004D02*
X178043996Y-120904000D01*
X178043996Y-120904000D02*
X178043996Y-120864004D01*
X178043996Y-120864004D02*
X178043996Y-120904000D01*
X131826000Y-129540000D02*
X131826000Y-122174000D01*
X133096000Y-120904000D02*
X178043996Y-120904000D01*
X131826000Y-122174000D02*
X133096000Y-120904000D01*
X185650000Y-109340000D02*
X185650000Y-108750000D01*
X185650000Y-108750000D02*
X183645000Y-106745000D01*
X126805000Y-109285000D02*
X126805000Y-107380000D01*
X127440000Y-106745000D02*
X183645000Y-106745000D01*
X126805000Y-107380000D02*
X127440000Y-106745000D01*
X175490000Y-109340000D02*
X175490000Y-110510000D01*
X136965000Y-110540000D02*
X136965000Y-109285000D01*
X138000000Y-111575000D02*
X174425000Y-111575000D01*
X136965000Y-110540000D02*
X138000000Y-111575000D01*
X175490000Y-110510000D02*
X174425000Y-111575000D01*
X195810000Y-109340000D02*
X195810000Y-112790000D01*
X194500000Y-114100000D02*
X194500000Y-114000000D01*
X195810000Y-112790000D02*
X194500000Y-114100000D01*
X194500000Y-114000000D02*
X194175002Y-114324998D01*
X116645000Y-109285000D02*
X116645000Y-113219998D01*
X117750000Y-114324998D02*
X194175002Y-114324998D01*
X116645000Y-113219998D02*
X117750000Y-114324998D01*
X173350000Y-109340000D02*
X139566000Y-109340000D01*
X139566000Y-109340000D02*
X139446000Y-109220000D01*
X114740000Y-97815000D02*
X114740000Y-102935000D01*
X114740000Y-102935000D02*
X119185000Y-107380000D01*
X119185000Y-107380000D02*
X119185000Y-109285000D01*
X190730000Y-109340000D02*
X190730000Y-106730000D01*
X190730000Y-106730000D02*
X188840000Y-104840000D01*
X121725000Y-109285000D02*
X121725000Y-106110000D01*
X122995000Y-104840000D02*
X188840000Y-104840000D01*
X121725000Y-106110000D02*
X122995000Y-104840000D01*
X125000000Y-91290000D02*
X120035000Y-91290000D01*
X117915000Y-103570000D02*
X121725000Y-107380000D01*
X117915000Y-93410000D02*
X117915000Y-103570000D01*
X120035000Y-91290000D02*
X117915000Y-93410000D01*
X121725000Y-109285000D02*
X121725000Y-107380000D01*
X124900000Y-88650000D02*
X125000000Y-88750000D01*
X187706000Y-84836000D02*
X187706000Y-88900000D01*
X183320000Y-93410000D02*
X183320000Y-89984000D01*
X184404000Y-88900000D02*
X187706000Y-88900000D01*
X187706000Y-88900000D02*
X189484000Y-88900000D01*
X183320000Y-89984000D02*
X184404000Y-88900000D01*
X200890000Y-129660000D02*
X200890000Y-128110000D01*
X200890000Y-129660000D02*
X200890000Y-126410000D01*
X209000000Y-118300000D02*
X209000000Y-117300000D01*
X200890000Y-126410000D02*
X209000000Y-118300000D01*
X209000000Y-116250000D02*
X209000000Y-117300000D01*
X199960000Y-102210000D02*
X204250000Y-106500000D01*
X204250000Y-106500000D02*
X208000000Y-106500000D01*
X208000000Y-106500000D02*
X209000000Y-107500000D01*
X209000000Y-107500000D02*
X209000000Y-116250000D01*
X199000000Y-102210000D02*
X199960000Y-102210000D01*
X199000000Y-102210000D02*
X187040000Y-102210000D01*
X187040000Y-102210000D02*
X187000000Y-102250000D01*
D41*
G36*
X115290000Y-61750000D02*
X115344046Y-62021705D01*
X115497954Y-62252046D01*
X115728295Y-62405954D01*
X116000000Y-62460000D01*
X204000000Y-62460000D01*
X204271705Y-62405954D01*
X204502046Y-62252046D01*
X204655954Y-62021705D01*
X204710000Y-61750000D01*
X204710000Y-61250000D01*
X211373000Y-61250000D01*
X211373000Y-66250000D01*
X211381685Y-66296159D01*
X211408965Y-66338553D01*
X211450590Y-66366994D01*
X211500000Y-66377000D01*
X216500000Y-66377000D01*
X216546159Y-66368315D01*
X216588553Y-66341035D01*
X216616994Y-66299410D01*
X216627000Y-66250000D01*
X216627000Y-61250000D01*
X216618315Y-61203841D01*
X216591035Y-61161447D01*
X216549410Y-61133006D01*
X216500000Y-61123000D01*
X211500000Y-61123000D01*
X211453841Y-61131685D01*
X211411447Y-61158965D01*
X211383006Y-61200590D01*
X211373000Y-61250000D01*
X204710000Y-61250000D01*
X204710000Y-56130434D01*
X205509876Y-56130434D01*
X205540856Y-56258355D01*
X205854078Y-56816317D01*
X206356980Y-57211942D01*
X206973000Y-57385000D01*
X208473000Y-57385000D01*
X208473000Y-55877000D01*
X208727000Y-55877000D01*
X208727000Y-57385000D01*
X210227000Y-57385000D01*
X210843020Y-57211942D01*
X211140000Y-56978313D01*
X211436980Y-57211942D01*
X212053000Y-57385000D01*
X213553000Y-57385000D01*
X213553000Y-55877000D01*
X213807000Y-55877000D01*
X213807000Y-57385000D01*
X215307000Y-57385000D01*
X215923020Y-57211942D01*
X216425922Y-56816317D01*
X216739144Y-56258355D01*
X216770124Y-56130434D01*
X216650777Y-55877000D01*
X213807000Y-55877000D01*
X213553000Y-55877000D01*
X208727000Y-55877000D01*
X208473000Y-55877000D01*
X205629223Y-55877000D01*
X205509876Y-56130434D01*
X204710000Y-56130434D01*
X204710000Y-55369566D01*
X205509876Y-55369566D01*
X205629223Y-55623000D01*
X208473000Y-55623000D01*
X208473000Y-54115000D01*
X208727000Y-54115000D01*
X208727000Y-55623000D01*
X213553000Y-55623000D01*
X213553000Y-54115000D01*
X213807000Y-54115000D01*
X213807000Y-55623000D01*
X216650777Y-55623000D01*
X216770124Y-55369566D01*
X216739144Y-55241645D01*
X216425922Y-54683683D01*
X215923020Y-54288058D01*
X215307000Y-54115000D01*
X213807000Y-54115000D01*
X213553000Y-54115000D01*
X212053000Y-54115000D01*
X211436980Y-54288058D01*
X211140000Y-54521687D01*
X210843020Y-54288058D01*
X210227000Y-54115000D01*
X208727000Y-54115000D01*
X208473000Y-54115000D01*
X206973000Y-54115000D01*
X206356980Y-54288058D01*
X205854078Y-54683683D01*
X205540856Y-55241645D01*
X205509876Y-55369566D01*
X204710000Y-55369566D01*
X204710000Y-50460000D01*
X217873000Y-50460000D01*
X217873000Y-131290000D01*
X100127000Y-131290000D01*
X100127000Y-130758285D01*
X100332110Y-130898431D01*
X100584000Y-130949440D01*
X102108000Y-130949440D01*
X102343317Y-130905162D01*
X102559441Y-130766090D01*
X102704431Y-130553890D01*
X102741492Y-130370876D01*
X103093630Y-130723629D01*
X103606900Y-130936757D01*
X104162661Y-130937242D01*
X104676303Y-130725010D01*
X105069629Y-130332370D01*
X105155949Y-130124488D01*
X105240990Y-130330303D01*
X105633630Y-130723629D01*
X106146900Y-130936757D01*
X106702661Y-130937242D01*
X107216303Y-130725010D01*
X107421457Y-130520213D01*
X108165392Y-130520213D01*
X108234857Y-130762397D01*
X108758302Y-130949144D01*
X109313368Y-130921362D01*
X109697143Y-130762397D01*
X109766608Y-130520213D01*
X108966000Y-129719605D01*
X108165392Y-130520213D01*
X107421457Y-130520213D01*
X107609629Y-130332370D01*
X107689395Y-130140273D01*
X107743603Y-130271143D01*
X107985787Y-130340608D01*
X108786395Y-129540000D01*
X107985787Y-128739392D01*
X107743603Y-128808857D01*
X107693491Y-128949318D01*
X107611010Y-128749697D01*
X107421432Y-128559787D01*
X108165392Y-128559787D01*
X108966000Y-129360395D01*
X109766608Y-128559787D01*
X109697143Y-128317603D01*
X109173698Y-128130856D01*
X108618632Y-128158638D01*
X108234857Y-128317603D01*
X108165392Y-128559787D01*
X107421432Y-128559787D01*
X107218370Y-128356371D01*
X106705100Y-128143243D01*
X106149339Y-128142758D01*
X105635697Y-128354990D01*
X105242371Y-128747630D01*
X105156051Y-128955512D01*
X105071010Y-128749697D01*
X104896000Y-128574381D01*
X104896000Y-109496661D01*
X110108758Y-109496661D01*
X110320990Y-110010303D01*
X110713630Y-110403629D01*
X111226900Y-110616757D01*
X111782661Y-110617242D01*
X112296303Y-110405010D01*
X112689629Y-110012370D01*
X112775949Y-109804488D01*
X112860990Y-110010303D01*
X113095000Y-110244722D01*
X113095000Y-113680000D01*
X113171882Y-114066510D01*
X113390822Y-114394178D01*
X115285822Y-116289178D01*
X115613490Y-116508118D01*
X116000000Y-116585000D01*
X196925000Y-116585000D01*
X197311510Y-116508118D01*
X197639178Y-116289178D01*
X199064178Y-114864178D01*
X199283118Y-114536510D01*
X199360000Y-114150000D01*
X199360000Y-110305696D01*
X199533629Y-110132370D01*
X199619949Y-109924488D01*
X199704990Y-110130303D01*
X200097630Y-110523629D01*
X200610900Y-110736757D01*
X201166661Y-110737242D01*
X201680303Y-110525010D01*
X202073629Y-110132370D01*
X202286757Y-109619100D01*
X202287242Y-109063339D01*
X202075010Y-108549697D01*
X201682370Y-108156371D01*
X201169100Y-107943243D01*
X200613339Y-107942758D01*
X200099697Y-108154990D01*
X199706371Y-108547630D01*
X199620051Y-108755512D01*
X199535010Y-108549697D01*
X199142370Y-108156371D01*
X198629100Y-107943243D01*
X198073339Y-107942758D01*
X197559697Y-108154990D01*
X197166371Y-108547630D01*
X197080051Y-108755512D01*
X196995010Y-108549697D01*
X196602370Y-108156371D01*
X196089100Y-107943243D01*
X195533339Y-107942758D01*
X195019697Y-108154990D01*
X194626371Y-108547630D01*
X194540051Y-108755512D01*
X194455010Y-108549697D01*
X194062370Y-108156371D01*
X193549100Y-107943243D01*
X192993339Y-107942758D01*
X192479697Y-108154990D01*
X192086371Y-108547630D01*
X192000051Y-108755512D01*
X191915010Y-108549697D01*
X191740000Y-108374381D01*
X191740000Y-106730000D01*
X191663118Y-106343490D01*
X191444178Y-106015822D01*
X190464106Y-105035750D01*
X197605000Y-105035750D01*
X197605000Y-105636310D01*
X197701673Y-105869699D01*
X197880302Y-106048327D01*
X198113691Y-106145000D01*
X198714250Y-106145000D01*
X198873000Y-105986250D01*
X198873000Y-104877000D01*
X199127000Y-104877000D01*
X199127000Y-105986250D01*
X199285750Y-106145000D01*
X199886309Y-106145000D01*
X200119698Y-106048327D01*
X200298327Y-105869699D01*
X200395000Y-105636310D01*
X200395000Y-105035750D01*
X200236250Y-104877000D01*
X199127000Y-104877000D01*
X198873000Y-104877000D01*
X197763750Y-104877000D01*
X197605000Y-105035750D01*
X190464106Y-105035750D01*
X189554178Y-104125822D01*
X189226510Y-103906882D01*
X188840000Y-103830000D01*
X133513061Y-103830000D01*
X133651098Y-103692204D01*
X133854768Y-103201713D01*
X133855231Y-102670617D01*
X133652418Y-102179771D01*
X133277204Y-101803902D01*
X133099229Y-101730000D01*
X133346310Y-101730000D01*
X133579699Y-101633327D01*
X133758327Y-101454698D01*
X133855000Y-101221309D01*
X133855000Y-100680750D01*
X133696250Y-100522000D01*
X132647000Y-100522000D01*
X132647000Y-100542000D01*
X132393000Y-100542000D01*
X132393000Y-100522000D01*
X131343750Y-100522000D01*
X131185000Y-100680750D01*
X131185000Y-101221309D01*
X131281673Y-101454698D01*
X131460301Y-101633327D01*
X131693690Y-101730000D01*
X131940433Y-101730000D01*
X131764771Y-101802582D01*
X131388902Y-102177796D01*
X131185232Y-102668287D01*
X131184769Y-103199383D01*
X131387582Y-103690229D01*
X131527109Y-103830000D01*
X126528061Y-103830000D01*
X126666098Y-103692204D01*
X126869768Y-103201713D01*
X126870231Y-102670617D01*
X126667418Y-102179771D01*
X126292204Y-101803902D01*
X126114229Y-101730000D01*
X126361310Y-101730000D01*
X126594699Y-101633327D01*
X126773327Y-101454698D01*
X126870000Y-101221309D01*
X126870000Y-100680750D01*
X126711250Y-100522000D01*
X125662000Y-100522000D01*
X125662000Y-100542000D01*
X125408000Y-100542000D01*
X125408000Y-100522000D01*
X124358750Y-100522000D01*
X124200000Y-100680750D01*
X124200000Y-101221309D01*
X124296673Y-101454698D01*
X124475301Y-101633327D01*
X124708690Y-101730000D01*
X124955433Y-101730000D01*
X124779771Y-101802582D01*
X124403902Y-102177796D01*
X124200232Y-102668287D01*
X124199769Y-103199383D01*
X124402582Y-103690229D01*
X124542109Y-103830000D01*
X122995000Y-103830000D01*
X122608490Y-103906882D01*
X122280822Y-104125822D01*
X121090000Y-105316644D01*
X118925000Y-103151644D01*
X118925000Y-93828356D01*
X120453356Y-92300000D01*
X123839314Y-92300000D01*
X124129357Y-92590551D01*
X124693330Y-92824733D01*
X125303991Y-92825265D01*
X125868371Y-92592068D01*
X126300551Y-92160643D01*
X126534733Y-91596670D01*
X126535265Y-90986009D01*
X126302068Y-90421629D01*
X126134120Y-90253387D01*
X126135317Y-90253162D01*
X126351441Y-90114090D01*
X126496431Y-89901890D01*
X126547440Y-89650000D01*
X126547440Y-87850000D01*
X126503162Y-87614683D01*
X126364090Y-87398559D01*
X126151890Y-87253569D01*
X125900000Y-87202560D01*
X124100000Y-87202560D01*
X123864683Y-87246838D01*
X123648559Y-87385910D01*
X123503569Y-87598110D01*
X123452560Y-87850000D01*
X123452560Y-89650000D01*
X123496838Y-89885317D01*
X123635910Y-90101441D01*
X123848110Y-90246431D01*
X123868534Y-90250567D01*
X123839050Y-90280000D01*
X120035000Y-90280000D01*
X119648490Y-90356882D01*
X119320822Y-90575822D01*
X117200822Y-92695822D01*
X116981882Y-93023490D01*
X116905000Y-93410000D01*
X116905000Y-103570000D01*
X116930239Y-103696883D01*
X115750000Y-102516644D01*
X115750000Y-98763740D01*
X115913461Y-98600564D01*
X116124759Y-98091702D01*
X116125240Y-97540715D01*
X115914831Y-97031485D01*
X115525564Y-96641539D01*
X115016702Y-96430241D01*
X114465715Y-96429760D01*
X113956485Y-96640169D01*
X113566539Y-97029436D01*
X113355241Y-97538298D01*
X113354760Y-98089285D01*
X113565169Y-98598515D01*
X113730000Y-98763634D01*
X113730000Y-102935000D01*
X113806882Y-103321510D01*
X114025822Y-103649178D01*
X118175000Y-107798356D01*
X118175000Y-108195407D01*
X117942371Y-108427630D01*
X117856051Y-108635512D01*
X117771010Y-108429697D01*
X117378370Y-108036371D01*
X116865100Y-107823243D01*
X116309339Y-107822758D01*
X115795697Y-108034990D01*
X115402371Y-108427630D01*
X115316051Y-108635512D01*
X115231010Y-108429697D01*
X114838370Y-108036371D01*
X114325100Y-107823243D01*
X113769339Y-107822758D01*
X113255697Y-108034990D01*
X112862371Y-108427630D01*
X112776051Y-108635512D01*
X112691010Y-108429697D01*
X112298370Y-108036371D01*
X111785100Y-107823243D01*
X111229339Y-107822758D01*
X110715697Y-108034990D01*
X110322371Y-108427630D01*
X110109243Y-108940900D01*
X110108758Y-109496661D01*
X104896000Y-109496661D01*
X104896000Y-93786517D01*
X113948088Y-93786517D01*
X114016077Y-94027460D01*
X114535171Y-94212201D01*
X115085448Y-94184230D01*
X115463923Y-94027460D01*
X115531912Y-93786517D01*
X114740000Y-92994605D01*
X113948088Y-93786517D01*
X104896000Y-93786517D01*
X104896000Y-92610171D01*
X113342799Y-92610171D01*
X113370770Y-93160448D01*
X113527540Y-93538923D01*
X113768483Y-93606912D01*
X114560395Y-92815000D01*
X114919605Y-92815000D01*
X115711517Y-93606912D01*
X115952460Y-93538923D01*
X116137201Y-93019829D01*
X116109230Y-92469552D01*
X115952460Y-92091077D01*
X115711517Y-92023088D01*
X114919605Y-92815000D01*
X114560395Y-92815000D01*
X113768483Y-92023088D01*
X113527540Y-92091077D01*
X113342799Y-92610171D01*
X104896000Y-92610171D01*
X104896000Y-91843483D01*
X113948088Y-91843483D01*
X114740000Y-92635395D01*
X115531912Y-91843483D01*
X115463923Y-91602540D01*
X114944829Y-91417799D01*
X114394552Y-91445770D01*
X114016077Y-91602540D01*
X113948088Y-91843483D01*
X104896000Y-91843483D01*
X104896000Y-87709329D01*
X106403284Y-87709329D01*
X106546203Y-88054396D01*
X106893337Y-88442764D01*
X107362669Y-88668727D01*
X107569000Y-88546206D01*
X107569000Y-87503000D01*
X107823000Y-87503000D01*
X107823000Y-88546206D01*
X108029331Y-88668727D01*
X108498663Y-88442764D01*
X108845797Y-88054396D01*
X108988716Y-87709329D01*
X108947501Y-87640383D01*
X113980769Y-87640383D01*
X114183582Y-88131229D01*
X114558796Y-88507098D01*
X115049287Y-88710768D01*
X115580383Y-88711231D01*
X116071229Y-88508418D01*
X116447098Y-88133204D01*
X116650768Y-87642713D01*
X116651231Y-87111617D01*
X116448418Y-86620771D01*
X116073204Y-86244902D01*
X115582713Y-86041232D01*
X115051617Y-86040769D01*
X114560771Y-86243582D01*
X114184902Y-86618796D01*
X113981232Y-87109287D01*
X113980769Y-87640383D01*
X108947501Y-87640383D01*
X108865374Y-87503000D01*
X107823000Y-87503000D01*
X107569000Y-87503000D01*
X106526626Y-87503000D01*
X106403284Y-87709329D01*
X104896000Y-87709329D01*
X104896000Y-87042671D01*
X106403284Y-87042671D01*
X106526626Y-87249000D01*
X107569000Y-87249000D01*
X107569000Y-86205794D01*
X107823000Y-86205794D01*
X107823000Y-87249000D01*
X108865374Y-87249000D01*
X108988716Y-87042671D01*
X108845797Y-86697604D01*
X108498663Y-86309236D01*
X108029331Y-86083273D01*
X107823000Y-86205794D01*
X107569000Y-86205794D01*
X107362669Y-86083273D01*
X106893337Y-86309236D01*
X106546203Y-86697604D01*
X106403284Y-87042671D01*
X104896000Y-87042671D01*
X104896000Y-86524356D01*
X106590356Y-84830000D01*
X115405644Y-84830000D01*
X117141822Y-86566178D01*
X117469490Y-86785118D01*
X117856000Y-86862000D01*
X126581644Y-86862000D01*
X128970000Y-89250356D01*
X128970000Y-91268652D01*
X128746621Y-91602964D01*
X128645000Y-92113846D01*
X128645000Y-92166154D01*
X128746621Y-92677036D01*
X128970000Y-93011348D01*
X128970000Y-94896644D01*
X127021644Y-96845000D01*
X126413091Y-96845000D01*
X126292204Y-96723902D01*
X125957473Y-96584909D01*
X126290229Y-96447418D01*
X126666098Y-96072204D01*
X126869768Y-95581713D01*
X126870231Y-95050617D01*
X126667418Y-94559771D01*
X126292204Y-94183902D01*
X125801713Y-93980232D01*
X125270617Y-93979769D01*
X124779771Y-94182582D01*
X124403902Y-94557796D01*
X124200232Y-95048287D01*
X124199769Y-95579383D01*
X124402582Y-96070229D01*
X124777796Y-96446098D01*
X125112527Y-96585091D01*
X124779771Y-96722582D01*
X124403902Y-97097796D01*
X124200232Y-97588287D01*
X124199769Y-98119383D01*
X124402582Y-98610229D01*
X124777796Y-98986098D01*
X124955771Y-99060000D01*
X124708690Y-99060000D01*
X124475301Y-99156673D01*
X124296673Y-99335302D01*
X124200000Y-99568691D01*
X124200000Y-100109250D01*
X124358750Y-100268000D01*
X125408000Y-100268000D01*
X125408000Y-100248000D01*
X125662000Y-100248000D01*
X125662000Y-100268000D01*
X126711250Y-100268000D01*
X126870000Y-100109250D01*
X126870000Y-99568691D01*
X126773327Y-99335302D01*
X126594699Y-99156673D01*
X126361310Y-99060000D01*
X126114567Y-99060000D01*
X126290229Y-98987418D01*
X126412861Y-98865000D01*
X131641909Y-98865000D01*
X131762796Y-98986098D01*
X131940771Y-99060000D01*
X131693690Y-99060000D01*
X131460301Y-99156673D01*
X131281673Y-99335302D01*
X131185000Y-99568691D01*
X131185000Y-100109250D01*
X131343750Y-100268000D01*
X132393000Y-100268000D01*
X132393000Y-100248000D01*
X132647000Y-100248000D01*
X132647000Y-100268000D01*
X133696250Y-100268000D01*
X133855000Y-100109250D01*
X133855000Y-99568691D01*
X133758327Y-99335302D01*
X133579699Y-99156673D01*
X133346310Y-99060000D01*
X133099567Y-99060000D01*
X133275229Y-98987418D01*
X133651098Y-98612204D01*
X133854768Y-98121713D01*
X133855231Y-97590617D01*
X133652418Y-97099771D01*
X133277204Y-96723902D01*
X132942473Y-96584909D01*
X133275229Y-96447418D01*
X133651098Y-96072204D01*
X133854768Y-95581713D01*
X133855231Y-95050617D01*
X133652418Y-94559771D01*
X133277204Y-94183902D01*
X132786713Y-93980232D01*
X132255617Y-93979769D01*
X131764771Y-94182582D01*
X131388902Y-94557796D01*
X131185232Y-95048287D01*
X131184769Y-95579383D01*
X131387582Y-96070229D01*
X131762796Y-96446098D01*
X132097527Y-96585091D01*
X131764771Y-96722582D01*
X131642139Y-96845000D01*
X129878356Y-96845000D01*
X130694178Y-96029178D01*
X130913118Y-95701511D01*
X130990000Y-95315000D01*
X130990000Y-93011348D01*
X131213379Y-92677036D01*
X131315000Y-92166154D01*
X131315000Y-92113846D01*
X131213379Y-91602964D01*
X130997892Y-91280464D01*
X131033356Y-91245000D01*
X132795804Y-91245000D01*
X132556621Y-91602964D01*
X132455000Y-92113846D01*
X132455000Y-92166154D01*
X132556621Y-92677036D01*
X132846012Y-93110142D01*
X133279118Y-93399533D01*
X133790000Y-93501154D01*
X134263594Y-93406950D01*
X134345822Y-93489178D01*
X134673490Y-93708118D01*
X135060000Y-93785000D01*
X137339060Y-93785000D01*
X137220302Y-93864352D01*
X136909233Y-94329899D01*
X136800000Y-94879050D01*
X136800000Y-95750950D01*
X136909233Y-96300101D01*
X137220302Y-96765648D01*
X137685849Y-97076717D01*
X138235000Y-97185950D01*
X138784151Y-97076717D01*
X139249698Y-96765648D01*
X139505000Y-96383562D01*
X139760302Y-96765648D01*
X140225849Y-97076717D01*
X140775000Y-97185950D01*
X141324151Y-97076717D01*
X141789698Y-96765648D01*
X142045000Y-96383562D01*
X142300302Y-96765648D01*
X142765849Y-97076717D01*
X143315000Y-97185950D01*
X143864151Y-97076717D01*
X144329698Y-96765648D01*
X144585000Y-96383562D01*
X144840302Y-96765648D01*
X145305849Y-97076717D01*
X145855000Y-97185950D01*
X146404151Y-97076717D01*
X146869698Y-96765648D01*
X147125000Y-96383562D01*
X147380302Y-96765648D01*
X147845849Y-97076717D01*
X148395000Y-97185950D01*
X148944151Y-97076717D01*
X149409698Y-96765648D01*
X149665000Y-96383562D01*
X149920302Y-96765648D01*
X150385849Y-97076717D01*
X150935000Y-97185950D01*
X151484151Y-97076717D01*
X151949698Y-96765648D01*
X152205000Y-96383562D01*
X152460302Y-96765648D01*
X152925849Y-97076717D01*
X153475000Y-97185950D01*
X154024151Y-97076717D01*
X154198830Y-96960000D01*
X163374060Y-96960000D01*
X163255302Y-97039352D01*
X162944233Y-97504899D01*
X162835000Y-98054050D01*
X162835000Y-98925950D01*
X162944233Y-99475101D01*
X163255302Y-99940648D01*
X163720849Y-100251717D01*
X164270000Y-100360950D01*
X164819151Y-100251717D01*
X165284698Y-99940648D01*
X165540000Y-99558562D01*
X165795302Y-99940648D01*
X166260849Y-100251717D01*
X166810000Y-100360950D01*
X167359151Y-100251717D01*
X167824698Y-99940648D01*
X168080000Y-99558562D01*
X168335302Y-99940648D01*
X168800849Y-100251717D01*
X169350000Y-100360950D01*
X169899151Y-100251717D01*
X170364698Y-99940648D01*
X170620000Y-99558562D01*
X170875302Y-99940648D01*
X171340849Y-100251717D01*
X171890000Y-100360950D01*
X172259163Y-100287519D01*
X172355822Y-100384178D01*
X172683490Y-100603118D01*
X173070000Y-100680000D01*
X178370000Y-100680000D01*
X178370000Y-101365664D01*
X178120467Y-101739118D01*
X178018846Y-102250000D01*
X178120467Y-102760882D01*
X178409858Y-103193988D01*
X178842964Y-103483379D01*
X179353846Y-103585000D01*
X179406154Y-103585000D01*
X179917036Y-103483379D01*
X180350142Y-103193988D01*
X180639533Y-102760882D01*
X180741154Y-102250000D01*
X180639533Y-101739118D01*
X180390000Y-101365664D01*
X180390000Y-100680000D01*
X198037130Y-100680000D01*
X198208764Y-100851934D01*
X198420738Y-100939954D01*
X198210828Y-101026687D01*
X198037212Y-101200000D01*
X187838161Y-101200000D01*
X187757204Y-101118902D01*
X187266713Y-100915232D01*
X186735617Y-100914769D01*
X186244771Y-101117582D01*
X185868902Y-101492796D01*
X185665232Y-101983287D01*
X185664769Y-102514383D01*
X185867582Y-103005229D01*
X186242796Y-103381098D01*
X186733287Y-103584768D01*
X187264383Y-103585231D01*
X187755229Y-103382418D01*
X187917931Y-103220000D01*
X198037130Y-103220000D01*
X198171894Y-103355000D01*
X198113691Y-103355000D01*
X197880302Y-103451673D01*
X197701673Y-103630301D01*
X197605000Y-103863690D01*
X197605000Y-104464250D01*
X197763750Y-104623000D01*
X198873000Y-104623000D01*
X198873000Y-104603000D01*
X199127000Y-104603000D01*
X199127000Y-104623000D01*
X200236250Y-104623000D01*
X200395000Y-104464250D01*
X200395000Y-104073356D01*
X203535822Y-107214178D01*
X203863490Y-107433118D01*
X204250000Y-107510000D01*
X207581644Y-107510000D01*
X207990000Y-107918356D01*
X207990000Y-117881644D01*
X200175822Y-125695822D01*
X199956882Y-126023490D01*
X199880000Y-126410000D01*
X199880000Y-128694304D01*
X199706371Y-128867630D01*
X199620051Y-129075512D01*
X199535010Y-128869697D01*
X199142370Y-128476371D01*
X198629100Y-128263243D01*
X198073339Y-128262758D01*
X197559697Y-128474990D01*
X197166371Y-128867630D01*
X197080051Y-129075512D01*
X196995010Y-128869697D01*
X196602370Y-128476371D01*
X196089100Y-128263243D01*
X195533339Y-128262758D01*
X195019697Y-128474990D01*
X194626371Y-128867630D01*
X194540051Y-129075512D01*
X194455010Y-128869697D01*
X194062370Y-128476371D01*
X193549100Y-128263243D01*
X192993339Y-128262758D01*
X192479697Y-128474990D01*
X192086371Y-128867630D01*
X192000051Y-129075512D01*
X191915010Y-128869697D01*
X191522370Y-128476371D01*
X191009100Y-128263243D01*
X190453339Y-128262758D01*
X189939697Y-128474990D01*
X189546371Y-128867630D01*
X189460051Y-129075512D01*
X189375010Y-128869697D01*
X188982370Y-128476371D01*
X188469100Y-128263243D01*
X187913339Y-128262758D01*
X187399697Y-128474990D01*
X187006371Y-128867630D01*
X186920051Y-129075512D01*
X186835010Y-128869697D01*
X186660000Y-128694381D01*
X186660000Y-121750000D01*
X186583118Y-121363490D01*
X186364178Y-121035822D01*
X182978178Y-117649822D01*
X182650510Y-117430882D01*
X182264000Y-117354000D01*
X128524000Y-117354000D01*
X128137490Y-117430882D01*
X127809822Y-117649822D01*
X126031822Y-119427822D01*
X125812882Y-119755490D01*
X125736000Y-120142000D01*
X125736000Y-128574304D01*
X125562371Y-128747630D01*
X125476051Y-128955512D01*
X125391010Y-128749697D01*
X124998370Y-128356371D01*
X124485100Y-128143243D01*
X123929339Y-128142758D01*
X123415697Y-128354990D01*
X123022371Y-128747630D01*
X122936051Y-128955512D01*
X122851010Y-128749697D01*
X122458370Y-128356371D01*
X121945100Y-128143243D01*
X121389339Y-128142758D01*
X120875697Y-128354990D01*
X120482371Y-128747630D01*
X120396051Y-128955512D01*
X120311010Y-128749697D01*
X119918370Y-128356371D01*
X119405100Y-128143243D01*
X118849339Y-128142758D01*
X118335697Y-128354990D01*
X117942371Y-128747630D01*
X117856051Y-128955512D01*
X117771010Y-128749697D01*
X117378370Y-128356371D01*
X116865100Y-128143243D01*
X116309339Y-128142758D01*
X115795697Y-128354990D01*
X115402371Y-128747630D01*
X115316051Y-128955512D01*
X115231010Y-128749697D01*
X114838370Y-128356371D01*
X114325100Y-128143243D01*
X113769339Y-128142758D01*
X113255697Y-128354990D01*
X112862371Y-128747630D01*
X112776051Y-128955512D01*
X112691010Y-128749697D01*
X112298370Y-128356371D01*
X111785100Y-128143243D01*
X111229339Y-128142758D01*
X110715697Y-128354990D01*
X110322371Y-128747630D01*
X110242605Y-128939727D01*
X110188397Y-128808857D01*
X109946213Y-128739392D01*
X109145605Y-129540000D01*
X109946213Y-130340608D01*
X110188397Y-130271143D01*
X110238509Y-130130682D01*
X110320990Y-130330303D01*
X110713630Y-130723629D01*
X111226900Y-130936757D01*
X111782661Y-130937242D01*
X112296303Y-130725010D01*
X112689629Y-130332370D01*
X112775949Y-130124488D01*
X112860990Y-130330303D01*
X113253630Y-130723629D01*
X113766900Y-130936757D01*
X114322661Y-130937242D01*
X114836303Y-130725010D01*
X115229629Y-130332370D01*
X115315949Y-130124488D01*
X115400990Y-130330303D01*
X115793630Y-130723629D01*
X116306900Y-130936757D01*
X116862661Y-130937242D01*
X117376303Y-130725010D01*
X117769629Y-130332370D01*
X117855949Y-130124488D01*
X117940990Y-130330303D01*
X118333630Y-130723629D01*
X118846900Y-130936757D01*
X119402661Y-130937242D01*
X119916303Y-130725010D01*
X120309629Y-130332370D01*
X120395949Y-130124488D01*
X120480990Y-130330303D01*
X120873630Y-130723629D01*
X121386900Y-130936757D01*
X121942661Y-130937242D01*
X122456303Y-130725010D01*
X122849629Y-130332370D01*
X122935949Y-130124488D01*
X123020990Y-130330303D01*
X123413630Y-130723629D01*
X123926900Y-130936757D01*
X124482661Y-130937242D01*
X124996303Y-130725010D01*
X125389629Y-130332370D01*
X125475949Y-130124488D01*
X125560990Y-130330303D01*
X125953630Y-130723629D01*
X126466900Y-130936757D01*
X127022661Y-130937242D01*
X127536303Y-130725010D01*
X127929629Y-130332370D01*
X128015949Y-130124488D01*
X128100990Y-130330303D01*
X128493630Y-130723629D01*
X129006900Y-130936757D01*
X129562661Y-130937242D01*
X130076303Y-130725010D01*
X130469629Y-130332370D01*
X130555949Y-130124488D01*
X130640990Y-130330303D01*
X131033630Y-130723629D01*
X131546900Y-130936757D01*
X132102661Y-130937242D01*
X132616303Y-130725010D01*
X133009629Y-130332370D01*
X133095949Y-130124488D01*
X133180990Y-130330303D01*
X133573630Y-130723629D01*
X134086900Y-130936757D01*
X134642661Y-130937242D01*
X135156303Y-130725010D01*
X135549629Y-130332370D01*
X135635949Y-130124488D01*
X135720990Y-130330303D01*
X136113630Y-130723629D01*
X136626900Y-130936757D01*
X137182661Y-130937242D01*
X137696303Y-130725010D01*
X138089629Y-130332370D01*
X138175949Y-130124488D01*
X138260990Y-130330303D01*
X138653630Y-130723629D01*
X139166900Y-130936757D01*
X139722661Y-130937242D01*
X140236303Y-130725010D01*
X140629629Y-130332370D01*
X140842757Y-129819100D01*
X140843242Y-129263339D01*
X140631010Y-128749697D01*
X140238370Y-128356371D01*
X139725100Y-128143243D01*
X139169339Y-128142758D01*
X138655697Y-128354990D01*
X138262371Y-128747630D01*
X138176051Y-128955512D01*
X138091010Y-128749697D01*
X137698370Y-128356371D01*
X137185100Y-128143243D01*
X136629339Y-128142758D01*
X136115697Y-128354990D01*
X135722371Y-128747630D01*
X135636051Y-128955512D01*
X135551010Y-128749697D01*
X135158370Y-128356371D01*
X134645100Y-128143243D01*
X134089339Y-128142758D01*
X133575697Y-128354990D01*
X133182371Y-128747630D01*
X133096051Y-128955512D01*
X133011010Y-128749697D01*
X132836000Y-128574381D01*
X132836000Y-125575000D01*
X148373000Y-125575000D01*
X148373000Y-130575000D01*
X148381685Y-130621159D01*
X148408965Y-130663553D01*
X148450590Y-130691994D01*
X148500000Y-130702000D01*
X153500000Y-130702000D01*
X153546159Y-130693315D01*
X153588553Y-130666035D01*
X153616994Y-130624410D01*
X153627000Y-130575000D01*
X153627000Y-125575000D01*
X164373000Y-125575000D01*
X164373000Y-130575000D01*
X164381685Y-130621159D01*
X164408965Y-130663553D01*
X164450590Y-130691994D01*
X164500000Y-130702000D01*
X169500000Y-130702000D01*
X169546159Y-130693315D01*
X169588553Y-130666035D01*
X169616994Y-130624410D01*
X169627000Y-130575000D01*
X169627000Y-125575000D01*
X169618315Y-125528841D01*
X169591035Y-125486447D01*
X169549410Y-125458006D01*
X169500000Y-125448000D01*
X164500000Y-125448000D01*
X164453841Y-125456685D01*
X164411447Y-125483965D01*
X164383006Y-125525590D01*
X164373000Y-125575000D01*
X153627000Y-125575000D01*
X153618315Y-125528841D01*
X153591035Y-125486447D01*
X153549410Y-125458006D01*
X153500000Y-125448000D01*
X148500000Y-125448000D01*
X148453841Y-125456685D01*
X148411447Y-125483965D01*
X148383006Y-125525590D01*
X148373000Y-125575000D01*
X132836000Y-125575000D01*
X132836000Y-122592356D01*
X133514356Y-121914000D01*
X177625640Y-121914000D01*
X179560000Y-123848360D01*
X179560000Y-128694304D01*
X179386371Y-128867630D01*
X179300051Y-129075512D01*
X179215010Y-128869697D01*
X178822370Y-128476371D01*
X178309100Y-128263243D01*
X177753339Y-128262758D01*
X177239697Y-128474990D01*
X176846371Y-128867630D01*
X176760051Y-129075512D01*
X176675010Y-128869697D01*
X176282370Y-128476371D01*
X175769100Y-128263243D01*
X175213339Y-128262758D01*
X174699697Y-128474990D01*
X174306371Y-128867630D01*
X174220051Y-129075512D01*
X174135010Y-128869697D01*
X173742370Y-128476371D01*
X173229100Y-128263243D01*
X172673339Y-128262758D01*
X172159697Y-128474990D01*
X171766371Y-128867630D01*
X171553243Y-129380900D01*
X171552758Y-129936661D01*
X171764990Y-130450303D01*
X172157630Y-130843629D01*
X172670900Y-131056757D01*
X173226661Y-131057242D01*
X173740303Y-130845010D01*
X174133629Y-130452370D01*
X174219949Y-130244488D01*
X174304990Y-130450303D01*
X174697630Y-130843629D01*
X175210900Y-131056757D01*
X175766661Y-131057242D01*
X176280303Y-130845010D01*
X176673629Y-130452370D01*
X176759949Y-130244488D01*
X176844990Y-130450303D01*
X177237630Y-130843629D01*
X177750900Y-131056757D01*
X178306661Y-131057242D01*
X178820303Y-130845010D01*
X179213629Y-130452370D01*
X179299949Y-130244488D01*
X179384990Y-130450303D01*
X179777630Y-130843629D01*
X180290900Y-131056757D01*
X180846661Y-131057242D01*
X181360303Y-130845010D01*
X181753629Y-130452370D01*
X181839949Y-130244488D01*
X181924990Y-130450303D01*
X182317630Y-130843629D01*
X182830900Y-131056757D01*
X183386661Y-131057242D01*
X183900303Y-130845010D01*
X184293629Y-130452370D01*
X184379949Y-130244488D01*
X184464990Y-130450303D01*
X184857630Y-130843629D01*
X185370900Y-131056757D01*
X185926661Y-131057242D01*
X186440303Y-130845010D01*
X186833629Y-130452370D01*
X186919949Y-130244488D01*
X187004990Y-130450303D01*
X187397630Y-130843629D01*
X187910900Y-131056757D01*
X188466661Y-131057242D01*
X188980303Y-130845010D01*
X189373629Y-130452370D01*
X189459949Y-130244488D01*
X189544990Y-130450303D01*
X189937630Y-130843629D01*
X190450900Y-131056757D01*
X191006661Y-131057242D01*
X191520303Y-130845010D01*
X191913629Y-130452370D01*
X191999949Y-130244488D01*
X192084990Y-130450303D01*
X192477630Y-130843629D01*
X192990900Y-131056757D01*
X193546661Y-131057242D01*
X194060303Y-130845010D01*
X194453629Y-130452370D01*
X194539949Y-130244488D01*
X194624990Y-130450303D01*
X195017630Y-130843629D01*
X195530900Y-131056757D01*
X196086661Y-131057242D01*
X196600303Y-130845010D01*
X196993629Y-130452370D01*
X197079949Y-130244488D01*
X197164990Y-130450303D01*
X197557630Y-130843629D01*
X198070900Y-131056757D01*
X198626661Y-131057242D01*
X199140303Y-130845010D01*
X199533629Y-130452370D01*
X199619949Y-130244488D01*
X199704990Y-130450303D01*
X200097630Y-130843629D01*
X200610900Y-131056757D01*
X201166661Y-131057242D01*
X201680303Y-130845010D01*
X201885457Y-130640213D01*
X202629392Y-130640213D01*
X202698857Y-130882397D01*
X203222302Y-131069144D01*
X203777368Y-131041362D01*
X204161143Y-130882397D01*
X204230608Y-130640213D01*
X203430000Y-129839605D01*
X202629392Y-130640213D01*
X201885457Y-130640213D01*
X202073629Y-130452370D01*
X202153395Y-130260273D01*
X202207603Y-130391143D01*
X202449787Y-130460608D01*
X203250395Y-129660000D01*
X202449787Y-128859392D01*
X202207603Y-128928857D01*
X202157491Y-129069318D01*
X202075010Y-128869697D01*
X201900000Y-128694381D01*
X201900000Y-128679787D01*
X202629392Y-128679787D01*
X203430000Y-129480395D01*
X204230608Y-128679787D01*
X204161143Y-128437603D01*
X203637698Y-128250856D01*
X203082632Y-128278638D01*
X202698857Y-128437603D01*
X202629392Y-128679787D01*
X201900000Y-128679787D01*
X201900000Y-126828356D01*
X209714178Y-119014178D01*
X209933118Y-118686510D01*
X210010000Y-118300000D01*
X210010000Y-107500005D01*
X210010001Y-107500000D01*
X209933118Y-107113490D01*
X209714178Y-106785822D01*
X208714178Y-105785822D01*
X208522878Y-105658000D01*
X209296000Y-105658000D01*
X209682510Y-105581118D01*
X210010178Y-105362178D01*
X211328000Y-104044356D01*
X212790000Y-105506356D01*
X212790000Y-117903636D01*
X212740000Y-118155002D01*
X212790000Y-118406368D01*
X212790000Y-120501644D01*
X207795822Y-125495822D01*
X207576882Y-125823490D01*
X207500000Y-126210000D01*
X207500000Y-128694304D01*
X207326371Y-128867630D01*
X207240051Y-129075512D01*
X207155010Y-128869697D01*
X206762370Y-128476371D01*
X206249100Y-128263243D01*
X205693339Y-128262758D01*
X205179697Y-128474990D01*
X204786371Y-128867630D01*
X204706605Y-129059727D01*
X204652397Y-128928857D01*
X204410213Y-128859392D01*
X203609605Y-129660000D01*
X204410213Y-130460608D01*
X204652397Y-130391143D01*
X204702509Y-130250682D01*
X204784990Y-130450303D01*
X205177630Y-130843629D01*
X205690900Y-131056757D01*
X206246661Y-131057242D01*
X206760303Y-130845010D01*
X207153629Y-130452370D01*
X207239949Y-130244488D01*
X207324990Y-130450303D01*
X207717630Y-130843629D01*
X208230900Y-131056757D01*
X208786661Y-131057242D01*
X209300303Y-130845010D01*
X209653763Y-130492167D01*
X209684838Y-130657317D01*
X209823910Y-130873441D01*
X210036110Y-131018431D01*
X210288000Y-131069440D01*
X211812000Y-131069440D01*
X212047317Y-131025162D01*
X212263441Y-130886090D01*
X212408431Y-130673890D01*
X212459440Y-130422000D01*
X212459440Y-128898000D01*
X212415162Y-128662683D01*
X212276090Y-128446559D01*
X212063890Y-128301569D01*
X211812000Y-128250560D01*
X210288000Y-128250560D01*
X210052683Y-128294838D01*
X209836559Y-128433910D01*
X209691569Y-128646110D01*
X209654508Y-128829124D01*
X209520000Y-128694381D01*
X209520000Y-126628356D01*
X214423769Y-121724587D01*
X214514178Y-121664178D01*
X214733118Y-121336510D01*
X214810000Y-120950000D01*
X214810000Y-105088000D01*
X214733118Y-104701490D01*
X214514178Y-104373822D01*
X212338000Y-102197644D01*
X212338000Y-97572000D01*
X213215173Y-97572000D01*
X213324406Y-98121151D01*
X213635475Y-98586698D01*
X214101022Y-98897767D01*
X214650173Y-99007000D01*
X216133827Y-99007000D01*
X216682978Y-98897767D01*
X217148525Y-98586698D01*
X217459594Y-98121151D01*
X217568827Y-97572000D01*
X217459594Y-97022849D01*
X217148525Y-96557302D01*
X216682978Y-96246233D01*
X216578773Y-96225505D01*
X216776759Y-95748702D01*
X216777240Y-95197715D01*
X216566831Y-94688485D01*
X216350687Y-94471964D01*
X216565461Y-94257564D01*
X216776759Y-93748702D01*
X216777240Y-93197715D01*
X216566831Y-92688485D01*
X216177564Y-92298539D01*
X215940494Y-92200099D01*
X215392000Y-91651605D01*
X214843572Y-92200033D01*
X214608485Y-92297169D01*
X214218539Y-92686436D01*
X214007241Y-93195298D01*
X214006760Y-93746285D01*
X214217169Y-94255515D01*
X214433313Y-94472036D01*
X214218539Y-94686436D01*
X214007241Y-95195298D01*
X214006760Y-95746285D01*
X214204804Y-96225589D01*
X214101022Y-96246233D01*
X213635475Y-96557302D01*
X213324406Y-97022849D01*
X213215173Y-97572000D01*
X212338000Y-97572000D01*
X212338000Y-94578000D01*
X212261118Y-94191490D01*
X212042178Y-93863822D01*
X208968000Y-90789644D01*
X208968000Y-89975558D01*
X209193317Y-89933162D01*
X209409441Y-89794090D01*
X209554431Y-89581890D01*
X209596934Y-89372000D01*
X213215173Y-89372000D01*
X213324406Y-89921151D01*
X213635475Y-90386698D01*
X214101022Y-90697767D01*
X214251651Y-90727729D01*
X214179540Y-90748077D01*
X213994799Y-91267171D01*
X214022770Y-91817448D01*
X214179540Y-92195923D01*
X214420483Y-92263912D01*
X215212395Y-91472000D01*
X215198253Y-91457858D01*
X215377858Y-91278253D01*
X215392000Y-91292395D01*
X215406143Y-91278253D01*
X215585748Y-91457858D01*
X215571605Y-91472000D01*
X216363517Y-92263912D01*
X216604460Y-92195923D01*
X216789201Y-91676829D01*
X216761230Y-91126552D01*
X216604460Y-90748077D01*
X216532349Y-90727729D01*
X216682978Y-90697767D01*
X217148525Y-90386698D01*
X217459594Y-89921151D01*
X217568827Y-89372000D01*
X217459594Y-88822849D01*
X217148525Y-88357302D01*
X216682978Y-88046233D01*
X216133827Y-87937000D01*
X214650173Y-87937000D01*
X214101022Y-88046233D01*
X213635475Y-88357302D01*
X213324406Y-88822849D01*
X213215173Y-89372000D01*
X209596934Y-89372000D01*
X209605440Y-89330000D01*
X209605440Y-87330000D01*
X209561162Y-87094683D01*
X209422090Y-86878559D01*
X209209890Y-86733569D01*
X208958000Y-86682560D01*
X207738916Y-86682560D01*
X206496000Y-85439644D01*
X206496000Y-83449926D01*
X206521317Y-83445162D01*
X206737441Y-83306090D01*
X206882431Y-83093890D01*
X206933440Y-82842000D01*
X206933440Y-82290000D01*
X210159650Y-82290000D01*
X210194630Y-82374658D01*
X210738479Y-82919457D01*
X211449416Y-83214663D01*
X212219207Y-83215335D01*
X212930658Y-82921370D01*
X213475457Y-82377521D01*
X213770663Y-81666584D01*
X213771335Y-80896793D01*
X213477370Y-80185342D01*
X212933521Y-79640543D01*
X212222584Y-79345337D01*
X211452793Y-79344665D01*
X210741342Y-79638630D01*
X210196543Y-80182479D01*
X210160201Y-80270000D01*
X206248000Y-80270000D01*
X205861490Y-80346882D01*
X205533822Y-80565822D01*
X205505084Y-80594560D01*
X204686000Y-80594560D01*
X204450683Y-80638838D01*
X204234559Y-80777910D01*
X204089569Y-80990110D01*
X204041354Y-81228201D01*
X203993745Y-81213861D01*
X203165605Y-82042000D01*
X203993745Y-82870139D01*
X204041167Y-82855855D01*
X204082838Y-83077317D01*
X204221910Y-83293441D01*
X204434110Y-83438431D01*
X204476000Y-83446914D01*
X204476000Y-85858000D01*
X204552882Y-86244510D01*
X204771822Y-86572178D01*
X206310560Y-88110916D01*
X206310560Y-89330000D01*
X206354838Y-89565317D01*
X206493910Y-89781441D01*
X206706110Y-89926431D01*
X206948000Y-89975415D01*
X206948000Y-91208000D01*
X207024882Y-91594510D01*
X207243822Y-91922178D01*
X210318000Y-94996356D01*
X210318000Y-102197644D01*
X208877644Y-103638000D01*
X206158356Y-103638000D01*
X203930791Y-101410435D01*
X206367867Y-101410435D01*
X206634495Y-101989994D01*
X207102615Y-102423402D01*
X207577566Y-102620124D01*
X207831000Y-102500777D01*
X207831000Y-101157000D01*
X208085000Y-101157000D01*
X208085000Y-102500777D01*
X208338434Y-102620124D01*
X208813385Y-102423402D01*
X209281505Y-101989994D01*
X209548133Y-101410435D01*
X209429319Y-101157000D01*
X208085000Y-101157000D01*
X207831000Y-101157000D01*
X206486681Y-101157000D01*
X206367867Y-101410435D01*
X203930791Y-101410435D01*
X203169921Y-100649565D01*
X206367867Y-100649565D01*
X206486681Y-100903000D01*
X207831000Y-100903000D01*
X207831000Y-99559223D01*
X208085000Y-99559223D01*
X208085000Y-100903000D01*
X209429319Y-100903000D01*
X209548133Y-100649565D01*
X209281505Y-100070006D01*
X208813385Y-99636598D01*
X208338434Y-99439876D01*
X208085000Y-99559223D01*
X207831000Y-99559223D01*
X207577566Y-99439876D01*
X207102615Y-99636598D01*
X206634495Y-100070006D01*
X206367867Y-100649565D01*
X203169921Y-100649565D01*
X201476178Y-98955822D01*
X201148510Y-98736882D01*
X200762000Y-98660000D01*
X199962870Y-98660000D01*
X199791236Y-98488066D01*
X199278700Y-98275242D01*
X198723735Y-98274758D01*
X198210828Y-98486687D01*
X198037212Y-98660000D01*
X173488356Y-98660000D01*
X173325000Y-98496644D01*
X173325000Y-98054050D01*
X173215767Y-97504899D01*
X172904698Y-97039352D01*
X172900000Y-97036213D01*
X172900000Y-96585000D01*
X172823118Y-96198490D01*
X172604178Y-95870822D01*
X171969178Y-95235822D01*
X171698558Y-95055000D01*
X175916644Y-95055000D01*
X178795822Y-97934178D01*
X179123490Y-98153118D01*
X179510000Y-98230000D01*
X198560000Y-98230000D01*
X198946510Y-98153118D01*
X199274178Y-97934178D01*
X201193274Y-96015082D01*
X201364383Y-96015231D01*
X201855229Y-95812418D01*
X202231098Y-95437204D01*
X202434768Y-94946713D01*
X202435231Y-94415617D01*
X202232418Y-93924771D01*
X201857204Y-93548902D01*
X201366713Y-93345232D01*
X200835617Y-93344769D01*
X200344771Y-93547582D01*
X199968902Y-93922796D01*
X199765232Y-94413287D01*
X199765081Y-94586563D01*
X198141644Y-96210000D01*
X179928356Y-96210000D01*
X179326101Y-95607745D01*
X195191861Y-95607745D01*
X195265995Y-95853864D01*
X195803223Y-96046965D01*
X196373454Y-96019778D01*
X196774005Y-95853864D01*
X196848139Y-95607745D01*
X196020000Y-94779605D01*
X195191861Y-95607745D01*
X179326101Y-95607745D01*
X177392739Y-93674383D01*
X181984769Y-93674383D01*
X182187582Y-94165229D01*
X182562796Y-94541098D01*
X183053287Y-94744768D01*
X183584383Y-94745231D01*
X184075229Y-94542418D01*
X184234701Y-94383223D01*
X194573035Y-94383223D01*
X194600222Y-94953454D01*
X194766136Y-95354005D01*
X195012255Y-95428139D01*
X195840395Y-94600000D01*
X196199605Y-94600000D01*
X197027745Y-95428139D01*
X197273864Y-95354005D01*
X197466965Y-94816777D01*
X197439778Y-94246546D01*
X197273864Y-93845995D01*
X197027745Y-93771861D01*
X196199605Y-94600000D01*
X195840395Y-94600000D01*
X195012255Y-93771861D01*
X194766136Y-93845995D01*
X194573035Y-94383223D01*
X184234701Y-94383223D01*
X184451098Y-94167204D01*
X184654768Y-93676713D01*
X184654841Y-93592255D01*
X195191861Y-93592255D01*
X196020000Y-94420395D01*
X196848139Y-93592255D01*
X196774005Y-93346136D01*
X196236777Y-93153035D01*
X195666546Y-93180222D01*
X195265995Y-93346136D01*
X195191861Y-93592255D01*
X184654841Y-93592255D01*
X184655231Y-93145617D01*
X184452418Y-92654771D01*
X184330000Y-92532139D01*
X184330000Y-90690000D01*
X185296560Y-90690000D01*
X185296560Y-92190000D01*
X185340838Y-92425317D01*
X185479910Y-92641441D01*
X185692110Y-92786431D01*
X185944000Y-92837440D01*
X187944000Y-92837440D01*
X188179317Y-92793162D01*
X188395441Y-92654090D01*
X188540431Y-92441890D01*
X188591440Y-92190000D01*
X188591440Y-91781185D01*
X190431682Y-91781185D01*
X190450519Y-91884235D01*
X190721264Y-92356894D01*
X191152279Y-92689964D01*
X191677945Y-92832739D01*
X191897000Y-92671868D01*
X191897000Y-91567000D01*
X192151000Y-91567000D01*
X192151000Y-92671868D01*
X192370055Y-92832739D01*
X192895721Y-92689964D01*
X193326736Y-92356894D01*
X193597481Y-91884235D01*
X193616318Y-91781185D01*
X193493656Y-91567000D01*
X192151000Y-91567000D01*
X191897000Y-91567000D01*
X190554344Y-91567000D01*
X190431682Y-91781185D01*
X188591440Y-91781185D01*
X188591440Y-91098815D01*
X190431682Y-91098815D01*
X190554344Y-91313000D01*
X191897000Y-91313000D01*
X191897000Y-90208132D01*
X192151000Y-90208132D01*
X192151000Y-91313000D01*
X193493656Y-91313000D01*
X193616318Y-91098815D01*
X193597481Y-90995765D01*
X193326736Y-90523106D01*
X192895721Y-90190036D01*
X192370055Y-90047261D01*
X192151000Y-90208132D01*
X191897000Y-90208132D01*
X191677945Y-90047261D01*
X191152279Y-90190036D01*
X190721264Y-90523106D01*
X190450519Y-90995765D01*
X190431682Y-91098815D01*
X188591440Y-91098815D01*
X188591440Y-90690000D01*
X188547162Y-90454683D01*
X188408090Y-90238559D01*
X188195890Y-90093569D01*
X187944000Y-90042560D01*
X185944000Y-90042560D01*
X185708683Y-90086838D01*
X185492559Y-90225910D01*
X185347569Y-90438110D01*
X185296560Y-90690000D01*
X184330000Y-90690000D01*
X184330000Y-90402356D01*
X184822355Y-89910000D01*
X188336694Y-89910000D01*
X188504657Y-90161375D01*
X188953983Y-90461605D01*
X189484000Y-90567032D01*
X190014017Y-90461605D01*
X190463343Y-90161375D01*
X190648554Y-89884187D01*
X194584752Y-89884187D01*
X194802757Y-90411800D01*
X195206077Y-90815824D01*
X195733309Y-91034750D01*
X196304187Y-91035248D01*
X196831800Y-90817243D01*
X197039405Y-90610000D01*
X198560000Y-90610000D01*
X198946510Y-90533118D01*
X199274178Y-90314178D01*
X201183889Y-88404467D01*
X201610882Y-88319533D01*
X202043988Y-88030142D01*
X202333379Y-87597036D01*
X202435000Y-87086154D01*
X202435000Y-87033846D01*
X202333379Y-86522964D01*
X202043988Y-86089858D01*
X201610882Y-85800467D01*
X201100000Y-85698846D01*
X200589118Y-85800467D01*
X200156012Y-86089858D01*
X199866621Y-86522964D01*
X199781687Y-86949957D01*
X198141644Y-88590000D01*
X197039388Y-88590000D01*
X196833923Y-88384176D01*
X196306691Y-88165250D01*
X195735813Y-88164752D01*
X195208200Y-88382757D01*
X194804176Y-88786077D01*
X194585250Y-89313309D01*
X194584752Y-89884187D01*
X190648554Y-89884187D01*
X190763573Y-89712049D01*
X190869000Y-89182032D01*
X190869000Y-88617968D01*
X190763573Y-88087951D01*
X190463343Y-87638625D01*
X190014017Y-87338395D01*
X189484000Y-87232968D01*
X188953983Y-87338395D01*
X188716000Y-87497410D01*
X188716000Y-85714091D01*
X188837098Y-85593204D01*
X189013106Y-85169329D01*
X194033284Y-85169329D01*
X194176203Y-85514396D01*
X194523337Y-85902764D01*
X194992669Y-86128727D01*
X195199000Y-86006206D01*
X195199000Y-84963000D01*
X195453000Y-84963000D01*
X195453000Y-86006206D01*
X195659331Y-86128727D01*
X196128663Y-85902764D01*
X196475797Y-85514396D01*
X196618716Y-85169329D01*
X196495374Y-84963000D01*
X195453000Y-84963000D01*
X195199000Y-84963000D01*
X194156626Y-84963000D01*
X194033284Y-85169329D01*
X189013106Y-85169329D01*
X189040768Y-85102713D01*
X189041231Y-84571617D01*
X189012744Y-84502671D01*
X194033284Y-84502671D01*
X194156626Y-84709000D01*
X195199000Y-84709000D01*
X195199000Y-83665794D01*
X195453000Y-83665794D01*
X195453000Y-84709000D01*
X196495374Y-84709000D01*
X196618716Y-84502671D01*
X196475797Y-84157604D01*
X196128663Y-83769236D01*
X195659331Y-83543273D01*
X195453000Y-83665794D01*
X195199000Y-83665794D01*
X194992669Y-83543273D01*
X194523337Y-83769236D01*
X194176203Y-84157604D01*
X194033284Y-84502671D01*
X189012744Y-84502671D01*
X188838418Y-84080771D01*
X188463204Y-83704902D01*
X187972713Y-83501232D01*
X187441617Y-83500769D01*
X186950771Y-83703582D01*
X186574902Y-84078796D01*
X186371232Y-84569287D01*
X186370769Y-85100383D01*
X186573582Y-85591229D01*
X186696000Y-85713861D01*
X186696000Y-87890000D01*
X184404005Y-87890000D01*
X184404000Y-87889999D01*
X184017490Y-87966882D01*
X183689822Y-88185822D01*
X183689820Y-88185825D01*
X182605822Y-89269822D01*
X182386882Y-89597490D01*
X182310000Y-89984000D01*
X182310000Y-92531909D01*
X182188902Y-92652796D01*
X181985232Y-93143287D01*
X181984769Y-93674383D01*
X177392739Y-93674383D01*
X177049178Y-93330822D01*
X176721510Y-93111882D01*
X176335000Y-93035000D01*
X160243356Y-93035000D01*
X158205356Y-90997000D01*
X162835000Y-90997000D01*
X162835000Y-91397000D01*
X162992834Y-91936483D01*
X163345104Y-92374500D01*
X163838181Y-92644367D01*
X163920961Y-92661904D01*
X164143000Y-92539915D01*
X164143000Y-90997000D01*
X162835000Y-90997000D01*
X158205356Y-90997000D01*
X157551356Y-90343000D01*
X162835000Y-90343000D01*
X162835000Y-90743000D01*
X164143000Y-90743000D01*
X164143000Y-89200085D01*
X163920961Y-89078096D01*
X163838181Y-89095633D01*
X163345104Y-89365500D01*
X162992834Y-89803517D01*
X162835000Y-90343000D01*
X157551356Y-90343000D01*
X154922440Y-87714084D01*
X154922440Y-86495000D01*
X154878162Y-86259683D01*
X154769151Y-86090275D01*
X163514331Y-86090275D01*
X163576169Y-86326042D01*
X164077122Y-86502419D01*
X164607440Y-86473664D01*
X164963831Y-86326042D01*
X165025669Y-86090275D01*
X164270000Y-85334605D01*
X163514331Y-86090275D01*
X154769151Y-86090275D01*
X154739090Y-86043559D01*
X154526890Y-85898569D01*
X154275000Y-85847560D01*
X152675000Y-85847560D01*
X152439683Y-85891838D01*
X152223559Y-86030910D01*
X152078569Y-86243110D01*
X152048403Y-86392074D01*
X151949698Y-86244352D01*
X151484151Y-85933283D01*
X150935000Y-85824050D01*
X150385849Y-85933283D01*
X149920302Y-86244352D01*
X149665000Y-86626438D01*
X149409698Y-86244352D01*
X149405000Y-86241213D01*
X149405000Y-85155000D01*
X149366634Y-84962122D01*
X162922581Y-84962122D01*
X162951336Y-85492440D01*
X163098958Y-85848831D01*
X163334725Y-85910669D01*
X164090395Y-85155000D01*
X164449605Y-85155000D01*
X165205275Y-85910669D01*
X165441042Y-85848831D01*
X165617419Y-85347878D01*
X165588664Y-84817560D01*
X165441042Y-84461169D01*
X165205275Y-84399331D01*
X164449605Y-85155000D01*
X164090395Y-85155000D01*
X163334725Y-84399331D01*
X163098958Y-84461169D01*
X162922581Y-84962122D01*
X149366634Y-84962122D01*
X149328118Y-84768490D01*
X149109178Y-84440822D01*
X148888081Y-84219725D01*
X163514331Y-84219725D01*
X164270000Y-84975395D01*
X165025669Y-84219725D01*
X164963831Y-83983958D01*
X164462878Y-83807581D01*
X163932560Y-83836336D01*
X163576169Y-83983958D01*
X163514331Y-84219725D01*
X148888081Y-84219725D01*
X148474178Y-83805822D01*
X148146510Y-83586882D01*
X147760000Y-83510000D01*
X141410000Y-83510000D01*
X141023490Y-83586882D01*
X140695822Y-83805822D01*
X140060822Y-84440822D01*
X139841882Y-84768490D01*
X139765000Y-85155000D01*
X139765000Y-86241213D01*
X139760302Y-86244352D01*
X139507493Y-86622707D01*
X139159896Y-86190500D01*
X138666819Y-85920633D01*
X138584039Y-85903096D01*
X138362000Y-86025085D01*
X138362000Y-87568000D01*
X138382000Y-87568000D01*
X138382000Y-87822000D01*
X138362000Y-87822000D01*
X138362000Y-89364915D01*
X138584039Y-89486904D01*
X138666819Y-89469367D01*
X139159896Y-89199500D01*
X139507493Y-88767293D01*
X139760302Y-89145648D01*
X140225849Y-89456717D01*
X140775000Y-89565950D01*
X141324151Y-89456717D01*
X141789698Y-89145648D01*
X142045000Y-88763562D01*
X142300302Y-89145648D01*
X142765849Y-89456717D01*
X143315000Y-89565950D01*
X143864151Y-89456717D01*
X144329698Y-89145648D01*
X144585000Y-88763562D01*
X144840302Y-89145648D01*
X144845000Y-89148787D01*
X144845000Y-90254998D01*
X144892740Y-90495000D01*
X137363358Y-90495000D01*
X136449447Y-89581089D01*
X136409178Y-89520822D01*
X136081510Y-89301882D01*
X135695000Y-89225000D01*
X130990000Y-89225000D01*
X130990000Y-88832000D01*
X130973689Y-88750000D01*
X130913118Y-88445489D01*
X130694178Y-88117822D01*
X130398356Y-87822000D01*
X136800000Y-87822000D01*
X136800000Y-88222000D01*
X136957834Y-88761483D01*
X137310104Y-89199500D01*
X137803181Y-89469367D01*
X137885961Y-89486904D01*
X138108000Y-89364915D01*
X138108000Y-87822000D01*
X136800000Y-87822000D01*
X130398356Y-87822000D01*
X129744356Y-87168000D01*
X136800000Y-87168000D01*
X136800000Y-87568000D01*
X138108000Y-87568000D01*
X138108000Y-86025085D01*
X137885961Y-85903096D01*
X137803181Y-85920633D01*
X137310104Y-86190500D01*
X136957834Y-86628517D01*
X136800000Y-87168000D01*
X129744356Y-87168000D01*
X127714178Y-85137822D01*
X127386510Y-84918882D01*
X127000000Y-84842000D01*
X118274356Y-84842000D01*
X116538178Y-83105822D01*
X116210510Y-82886882D01*
X115824000Y-82810000D01*
X106172000Y-82810000D01*
X105785490Y-82886882D01*
X105457822Y-83105822D01*
X103171822Y-85391822D01*
X102952882Y-85719490D01*
X102876000Y-86106000D01*
X102876000Y-128574304D01*
X102742237Y-128707833D01*
X102711162Y-128542683D01*
X102572090Y-128326559D01*
X102359890Y-128181569D01*
X102108000Y-128130560D01*
X100584000Y-128130560D01*
X100348683Y-128174838D01*
X100132559Y-128313910D01*
X100127000Y-128322046D01*
X100127000Y-81460000D01*
X105000000Y-81460000D01*
X105271705Y-81405954D01*
X105502046Y-81252046D01*
X105655954Y-81021705D01*
X105710000Y-80750000D01*
X105710000Y-79323991D01*
X113314735Y-79323991D01*
X113547932Y-79888371D01*
X113979357Y-80320551D01*
X114543330Y-80554733D01*
X115153991Y-80555265D01*
X115628536Y-80359187D01*
X117114752Y-80359187D01*
X117332757Y-80886800D01*
X117540000Y-81094405D01*
X117540000Y-81980000D01*
X117616882Y-82366510D01*
X117835822Y-82694178D01*
X118470822Y-83329178D01*
X118798490Y-83548118D01*
X119185000Y-83625000D01*
X128291644Y-83625000D01*
X128725830Y-84059186D01*
X128645232Y-84253287D01*
X128644769Y-84784383D01*
X128847582Y-85275229D01*
X129222796Y-85651098D01*
X129713287Y-85854768D01*
X130244383Y-85855231D01*
X130735229Y-85652418D01*
X130857861Y-85530000D01*
X132911909Y-85530000D01*
X133032796Y-85651098D01*
X133523287Y-85854768D01*
X134054383Y-85855231D01*
X134545229Y-85652418D01*
X134921098Y-85277204D01*
X135124768Y-84786713D01*
X135125231Y-84255617D01*
X134922418Y-83764771D01*
X134547204Y-83388902D01*
X134056713Y-83185232D01*
X133525617Y-83184769D01*
X133034771Y-83387582D01*
X132912139Y-83510000D01*
X130915407Y-83510000D01*
X130913118Y-83498490D01*
X130694178Y-83170822D01*
X129424178Y-81900822D01*
X129096510Y-81681882D01*
X128710000Y-81605000D01*
X124220890Y-81605000D01*
X124226431Y-81596890D01*
X124277440Y-81345000D01*
X124277440Y-80075000D01*
X133117679Y-80075000D01*
X133262688Y-80804012D01*
X133675641Y-81422038D01*
X134293667Y-81834991D01*
X135022679Y-81980000D01*
X135097321Y-81980000D01*
X135826333Y-81834991D01*
X136444359Y-81422038D01*
X136669561Y-81085000D01*
X138349560Y-81085000D01*
X138349560Y-81218000D01*
X138393838Y-81453317D01*
X138532910Y-81669441D01*
X138745110Y-81814431D01*
X138997000Y-81865440D01*
X141283000Y-81865440D01*
X141518317Y-81821162D01*
X141734441Y-81682090D01*
X141879431Y-81469890D01*
X141930440Y-81218000D01*
X141930440Y-80075000D01*
X151027167Y-80075000D01*
X151162509Y-80755411D01*
X151547931Y-81332236D01*
X152124756Y-81717658D01*
X152805167Y-81853000D01*
X152874833Y-81853000D01*
X153555244Y-81717658D01*
X154132069Y-81332236D01*
X154297267Y-81085000D01*
X157048652Y-81085000D01*
X157382964Y-81308379D01*
X157893846Y-81410000D01*
X157946154Y-81410000D01*
X158457036Y-81308379D01*
X158890142Y-81018988D01*
X159179533Y-80585882D01*
X159228564Y-80339383D01*
X164204769Y-80339383D01*
X164407582Y-80830229D01*
X164530000Y-80952861D01*
X164530000Y-81980000D01*
X164606882Y-82366510D01*
X164825822Y-82694178D01*
X166969144Y-84837500D01*
X166095822Y-85710822D01*
X165876882Y-86038490D01*
X165800000Y-86425000D01*
X165800000Y-89416213D01*
X165795302Y-89419352D01*
X165542493Y-89797707D01*
X165194896Y-89365500D01*
X164701819Y-89095633D01*
X164619039Y-89078096D01*
X164397000Y-89200085D01*
X164397000Y-90743000D01*
X164417000Y-90743000D01*
X164417000Y-90997000D01*
X164397000Y-90997000D01*
X164397000Y-92539915D01*
X164619039Y-92661904D01*
X164701819Y-92644367D01*
X165194896Y-92374500D01*
X165542493Y-91942293D01*
X165795302Y-92320648D01*
X166260849Y-92631717D01*
X166810000Y-92740950D01*
X167359151Y-92631717D01*
X167824698Y-92320648D01*
X168080000Y-91938562D01*
X168335302Y-92320648D01*
X168800849Y-92631717D01*
X169350000Y-92740950D01*
X169899151Y-92631717D01*
X170364698Y-92320648D01*
X170462251Y-92174650D01*
X170486838Y-92305317D01*
X170625910Y-92521441D01*
X170838110Y-92666431D01*
X171090000Y-92717440D01*
X172690000Y-92717440D01*
X172925317Y-92673162D01*
X173141441Y-92534090D01*
X173286431Y-92321890D01*
X173337440Y-92070000D01*
X173337440Y-89670000D01*
X173293162Y-89434683D01*
X173154090Y-89218559D01*
X172941890Y-89073569D01*
X172690000Y-89022560D01*
X171090000Y-89022560D01*
X170854683Y-89066838D01*
X170638559Y-89205910D01*
X170493569Y-89418110D01*
X170463403Y-89567074D01*
X170364698Y-89419352D01*
X169899151Y-89108283D01*
X169350000Y-88999050D01*
X168800849Y-89108283D01*
X168335302Y-89419352D01*
X168080000Y-89801438D01*
X167824698Y-89419352D01*
X167820000Y-89416213D01*
X167820000Y-86843356D01*
X168498356Y-86165000D01*
X171018652Y-86165000D01*
X171352964Y-86388379D01*
X171863846Y-86490000D01*
X171916154Y-86490000D01*
X172427036Y-86388379D01*
X172860142Y-86098988D01*
X173149533Y-85665882D01*
X173251154Y-85155000D01*
X173149533Y-84644118D01*
X172860142Y-84211012D01*
X172427036Y-83921621D01*
X171916154Y-83820000D01*
X171863846Y-83820000D01*
X171352964Y-83921621D01*
X171018652Y-84145000D01*
X169133356Y-84145000D01*
X166550000Y-81561644D01*
X166550000Y-80953091D01*
X166671098Y-80832204D01*
X166874768Y-80341713D01*
X166875231Y-79810617D01*
X166672418Y-79319771D01*
X166297204Y-78943902D01*
X165806713Y-78740232D01*
X165275617Y-78739769D01*
X164784771Y-78942582D01*
X164408902Y-79317796D01*
X164205232Y-79808287D01*
X164204769Y-80339383D01*
X159228564Y-80339383D01*
X159281154Y-80075000D01*
X159179533Y-79564118D01*
X158930000Y-79190664D01*
X158930000Y-77420440D01*
X159063000Y-77420440D01*
X159298317Y-77376162D01*
X159514441Y-77237090D01*
X159659431Y-77024890D01*
X159710440Y-76773000D01*
X159710440Y-74487000D01*
X159666162Y-74251683D01*
X159527090Y-74035559D01*
X159314890Y-73890569D01*
X159063000Y-73839560D01*
X156777000Y-73839560D01*
X156541683Y-73883838D01*
X156325559Y-74022910D01*
X156180569Y-74235110D01*
X156129560Y-74487000D01*
X156129560Y-76773000D01*
X156173838Y-77008317D01*
X156312910Y-77224441D01*
X156525110Y-77369431D01*
X156777000Y-77420440D01*
X156910000Y-77420440D01*
X156910000Y-79065000D01*
X154297267Y-79065000D01*
X154132069Y-78817764D01*
X153555244Y-78432342D01*
X152874833Y-78297000D01*
X152805167Y-78297000D01*
X152124756Y-78432342D01*
X151547931Y-78817764D01*
X151162509Y-79394589D01*
X151027167Y-80075000D01*
X141930440Y-80075000D01*
X141930440Y-78932000D01*
X141886162Y-78696683D01*
X141747090Y-78480559D01*
X141534890Y-78335569D01*
X141283000Y-78284560D01*
X138997000Y-78284560D01*
X138761683Y-78328838D01*
X138545559Y-78467910D01*
X138400569Y-78680110D01*
X138349560Y-78932000D01*
X138349560Y-79065000D01*
X136669561Y-79065000D01*
X136444359Y-78727962D01*
X135826333Y-78315009D01*
X135097321Y-78170000D01*
X135022679Y-78170000D01*
X134293667Y-78315009D01*
X133675641Y-78727962D01*
X133262688Y-79345988D01*
X133117679Y-80075000D01*
X124277440Y-80075000D01*
X124277440Y-78805000D01*
X124233162Y-78569683D01*
X124094090Y-78353559D01*
X123881890Y-78208569D01*
X123630000Y-78157560D01*
X123370000Y-78157560D01*
X123370000Y-77227177D01*
X123744359Y-76977038D01*
X124157312Y-76359012D01*
X124302321Y-75630000D01*
X124157312Y-74900988D01*
X123795835Y-74360000D01*
X133142560Y-74360000D01*
X133142560Y-76900000D01*
X133186838Y-77135317D01*
X133325910Y-77351441D01*
X133538110Y-77496431D01*
X133790000Y-77547440D01*
X136330000Y-77547440D01*
X136565317Y-77503162D01*
X136781441Y-77364090D01*
X136926431Y-77151890D01*
X136977440Y-76900000D01*
X136977440Y-76640000D01*
X138682733Y-76640000D01*
X138847931Y-76887236D01*
X139424756Y-77272658D01*
X140105167Y-77408000D01*
X140174833Y-77408000D01*
X140855244Y-77272658D01*
X141432069Y-76887236D01*
X141817491Y-76310411D01*
X141952833Y-75630000D01*
X141817491Y-74949589D01*
X141432069Y-74372764D01*
X140855244Y-73987342D01*
X140174833Y-73852000D01*
X140105167Y-73852000D01*
X139424756Y-73987342D01*
X138847931Y-74372764D01*
X138682733Y-74620000D01*
X136977440Y-74620000D01*
X136977440Y-74360000D01*
X136933162Y-74124683D01*
X136794090Y-73908559D01*
X136581890Y-73763569D01*
X136330000Y-73712560D01*
X133790000Y-73712560D01*
X133554683Y-73756838D01*
X133338559Y-73895910D01*
X133193569Y-74108110D01*
X133142560Y-74360000D01*
X123795835Y-74360000D01*
X123744359Y-74282962D01*
X123126333Y-73870009D01*
X122397321Y-73725000D01*
X122322679Y-73725000D01*
X121593667Y-73870009D01*
X120975641Y-74282962D01*
X120562688Y-74900988D01*
X120417679Y-75630000D01*
X120562688Y-76359012D01*
X120975641Y-76977038D01*
X121350000Y-77227177D01*
X121350000Y-78157560D01*
X121090000Y-78157560D01*
X120854683Y-78201838D01*
X120638559Y-78340910D01*
X120493569Y-78553110D01*
X120442560Y-78805000D01*
X120442560Y-81345000D01*
X120486838Y-81580317D01*
X120502721Y-81605000D01*
X119603356Y-81605000D01*
X119560000Y-81561644D01*
X119560000Y-81094388D01*
X119765824Y-80888923D01*
X119984750Y-80361691D01*
X119985248Y-79790813D01*
X119767243Y-79263200D01*
X119363923Y-78859176D01*
X118836691Y-78640250D01*
X118265813Y-78639752D01*
X117738200Y-78857757D01*
X117334176Y-79261077D01*
X117115250Y-79788309D01*
X117114752Y-80359187D01*
X115628536Y-80359187D01*
X115718371Y-80322068D01*
X116150551Y-79890643D01*
X116384733Y-79326670D01*
X116385265Y-78716009D01*
X116152068Y-78151629D01*
X115974908Y-77974159D01*
X116109699Y-77918327D01*
X116288327Y-77739698D01*
X116385000Y-77506309D01*
X116385000Y-76765750D01*
X116226250Y-76607000D01*
X114977000Y-76607000D01*
X114977000Y-76627000D01*
X114723000Y-76627000D01*
X114723000Y-76607000D01*
X113473750Y-76607000D01*
X113315000Y-76765750D01*
X113315000Y-77506309D01*
X113411673Y-77739698D01*
X113590301Y-77918327D01*
X113724994Y-77974119D01*
X113549449Y-78149357D01*
X113315267Y-78713330D01*
X113314735Y-79323991D01*
X105710000Y-79323991D01*
X105710000Y-75453691D01*
X113315000Y-75453691D01*
X113315000Y-76194250D01*
X113473750Y-76353000D01*
X114723000Y-76353000D01*
X114723000Y-75103750D01*
X114977000Y-75103750D01*
X114977000Y-76353000D01*
X116226250Y-76353000D01*
X116385000Y-76194250D01*
X116385000Y-75453691D01*
X116288327Y-75220302D01*
X116109699Y-75041673D01*
X115876310Y-74945000D01*
X115135750Y-74945000D01*
X114977000Y-75103750D01*
X114723000Y-75103750D01*
X114564250Y-74945000D01*
X113823690Y-74945000D01*
X113590301Y-75041673D01*
X113411673Y-75220302D01*
X113315000Y-75453691D01*
X105710000Y-75453691D01*
X105710000Y-74750000D01*
X105655954Y-74478295D01*
X105502046Y-74247954D01*
X105338990Y-74139004D01*
X105333315Y-74108841D01*
X105306035Y-74066447D01*
X105264410Y-74038006D01*
X105215000Y-74028000D01*
X100127000Y-74028000D01*
X100127000Y-61250000D01*
X101373000Y-61250000D01*
X101373000Y-66250000D01*
X101381685Y-66296159D01*
X101408965Y-66338553D01*
X101450590Y-66366994D01*
X101500000Y-66377000D01*
X106500000Y-66377000D01*
X106546159Y-66368315D01*
X106588553Y-66341035D01*
X106616994Y-66299410D01*
X106627000Y-66250000D01*
X106627000Y-61250000D01*
X106618315Y-61203841D01*
X106591035Y-61161447D01*
X106549410Y-61133006D01*
X106500000Y-61123000D01*
X101500000Y-61123000D01*
X101453841Y-61131685D01*
X101411447Y-61158965D01*
X101383006Y-61200590D01*
X101373000Y-61250000D01*
X100127000Y-61250000D01*
X100127000Y-54750000D01*
X102422560Y-54750000D01*
X102422560Y-56750000D01*
X102466838Y-56985317D01*
X102605910Y-57201441D01*
X102818110Y-57346431D01*
X103070000Y-57397440D01*
X108070000Y-57397440D01*
X108111468Y-57389637D01*
X108150000Y-57397440D01*
X109640000Y-57397440D01*
X109640000Y-63426644D01*
X105770822Y-67295822D01*
X105551882Y-67623490D01*
X105475000Y-68010000D01*
X105475000Y-70306909D01*
X105353902Y-70427796D01*
X105150232Y-70918287D01*
X105149769Y-71449383D01*
X105352582Y-71940229D01*
X105727796Y-72316098D01*
X106218287Y-72519768D01*
X106749383Y-72520231D01*
X107240229Y-72317418D01*
X107616098Y-71942204D01*
X107819768Y-71451713D01*
X107820000Y-71185000D01*
X112743846Y-71185000D01*
X112845467Y-71695882D01*
X113134858Y-72128988D01*
X113567964Y-72418379D01*
X114078846Y-72520000D01*
X114131154Y-72520000D01*
X114642036Y-72418379D01*
X114976348Y-72195000D01*
X117540000Y-72195000D01*
X117540000Y-74055612D01*
X117334176Y-74261077D01*
X117115250Y-74788309D01*
X117114752Y-75359187D01*
X117332757Y-75886800D01*
X117736077Y-76290824D01*
X118263309Y-76509750D01*
X118834187Y-76510248D01*
X119361800Y-76292243D01*
X119765824Y-75888923D01*
X119984750Y-75361691D01*
X119985248Y-74790813D01*
X119767243Y-74263200D01*
X119560000Y-74055595D01*
X119560000Y-72069336D01*
X119809533Y-71695882D01*
X119858564Y-71449383D01*
X124834769Y-71449383D01*
X125037582Y-71940229D01*
X125412796Y-72316098D01*
X125903287Y-72519768D01*
X126434383Y-72520231D01*
X126925229Y-72317418D01*
X127047861Y-72195000D01*
X129595612Y-72195000D01*
X129801077Y-72400824D01*
X130328309Y-72619750D01*
X130899187Y-72620248D01*
X131426800Y-72402243D01*
X131634405Y-72195000D01*
X136587000Y-72195000D01*
X136973510Y-72118118D01*
X137301178Y-71899178D01*
X137778043Y-71422313D01*
X138205036Y-71337379D01*
X138638142Y-71047988D01*
X138927533Y-70614882D01*
X138976564Y-70368383D01*
X143952769Y-70368383D01*
X144155582Y-70859229D01*
X144530796Y-71235098D01*
X145021287Y-71438768D01*
X145194563Y-71438919D01*
X145654822Y-71899178D01*
X145982490Y-72118118D01*
X146369000Y-72195000D01*
X148509560Y-72195000D01*
X148509560Y-72328000D01*
X148553838Y-72563317D01*
X148692910Y-72779441D01*
X148905110Y-72924431D01*
X149157000Y-72975440D01*
X151443000Y-72975440D01*
X151678317Y-72931162D01*
X151805784Y-72849140D01*
X151830000Y-72873356D01*
X151830000Y-73839560D01*
X151697000Y-73839560D01*
X151461683Y-73883838D01*
X151245559Y-74022910D01*
X151100569Y-74235110D01*
X151049560Y-74487000D01*
X151049560Y-76773000D01*
X151093838Y-77008317D01*
X151232910Y-77224441D01*
X151445110Y-77369431D01*
X151697000Y-77420440D01*
X153983000Y-77420440D01*
X154218317Y-77376162D01*
X154434441Y-77237090D01*
X154579431Y-77024890D01*
X154630440Y-76773000D01*
X154630440Y-74487000D01*
X154586162Y-74251683D01*
X154447090Y-74035559D01*
X154234890Y-73890569D01*
X153983000Y-73839560D01*
X153850000Y-73839560D01*
X153850000Y-72455000D01*
X153773118Y-72068490D01*
X153554178Y-71740822D01*
X152998356Y-71185000D01*
X161187167Y-71185000D01*
X161322509Y-71865411D01*
X161707931Y-72442236D01*
X162284756Y-72827658D01*
X162965167Y-72963000D01*
X163034833Y-72963000D01*
X163715244Y-72827658D01*
X164292069Y-72442236D01*
X164457267Y-72195000D01*
X165019560Y-72195000D01*
X165019560Y-72328000D01*
X165063838Y-72563317D01*
X165202910Y-72779441D01*
X165415110Y-72924431D01*
X165667000Y-72975440D01*
X167953000Y-72975440D01*
X168188317Y-72931162D01*
X168404441Y-72792090D01*
X168549431Y-72579890D01*
X168600440Y-72328000D01*
X168600440Y-72195000D01*
X169566644Y-72195000D01*
X171406794Y-74035150D01*
X171335244Y-73987342D01*
X170654833Y-73852000D01*
X170585167Y-73852000D01*
X169904756Y-73987342D01*
X169327931Y-74372764D01*
X168942509Y-74949589D01*
X168807167Y-75630000D01*
X168942509Y-76310411D01*
X169327931Y-76887236D01*
X169610000Y-77075708D01*
X169610000Y-78284560D01*
X169477000Y-78284560D01*
X169241683Y-78328838D01*
X169025559Y-78467910D01*
X168880569Y-78680110D01*
X168829560Y-78932000D01*
X168829560Y-81218000D01*
X168873838Y-81453317D01*
X169012910Y-81669441D01*
X169225110Y-81814431D01*
X169477000Y-81865440D01*
X171763000Y-81865440D01*
X171998317Y-81821162D01*
X172214441Y-81682090D01*
X172359431Y-81469890D01*
X172410440Y-81218000D01*
X172410440Y-80075000D01*
X181507167Y-80075000D01*
X181642509Y-80755411D01*
X182027931Y-81332236D01*
X182310000Y-81520708D01*
X182310000Y-84918652D01*
X182086621Y-85252964D01*
X181985000Y-85763846D01*
X181985000Y-85816154D01*
X182086621Y-86327036D01*
X182376012Y-86760142D01*
X182809118Y-87049533D01*
X183320000Y-87151154D01*
X183830882Y-87049533D01*
X184263988Y-86760142D01*
X184553379Y-86327036D01*
X184655000Y-85816154D01*
X184655000Y-85763846D01*
X184553379Y-85252964D01*
X184330000Y-84918652D01*
X184330000Y-81953846D01*
X185795000Y-81953846D01*
X185795000Y-82006154D01*
X185896621Y-82517036D01*
X186186012Y-82950142D01*
X186619118Y-83239533D01*
X187130000Y-83341154D01*
X187640882Y-83239533D01*
X187924920Y-83049745D01*
X202157861Y-83049745D01*
X202231995Y-83295864D01*
X202769223Y-83488965D01*
X203339454Y-83461778D01*
X203740005Y-83295864D01*
X203814139Y-83049745D01*
X202986000Y-82221605D01*
X202157861Y-83049745D01*
X187924920Y-83049745D01*
X188014336Y-82990000D01*
X190940000Y-82990000D01*
X191326510Y-82913118D01*
X191654178Y-82694178D01*
X192203362Y-82144994D01*
X192494187Y-82145248D01*
X193021800Y-81927243D01*
X193425824Y-81523923D01*
X193619396Y-81057750D01*
X197243000Y-81057750D01*
X197243000Y-81898310D01*
X197339673Y-82131699D01*
X197518302Y-82310327D01*
X197751691Y-82407000D01*
X198342250Y-82407000D01*
X198501000Y-82248250D01*
X198501000Y-80899000D01*
X198755000Y-80899000D01*
X198755000Y-82248250D01*
X198913750Y-82407000D01*
X199504309Y-82407000D01*
X199737698Y-82310327D01*
X199916327Y-82131699D01*
X200013000Y-81898310D01*
X200013000Y-81825223D01*
X201539035Y-81825223D01*
X201566222Y-82395454D01*
X201732136Y-82796005D01*
X201978255Y-82870139D01*
X202806395Y-82042000D01*
X201978255Y-81213861D01*
X201732136Y-81287995D01*
X201539035Y-81825223D01*
X200013000Y-81825223D01*
X200013000Y-81057750D01*
X199989505Y-81034255D01*
X202157861Y-81034255D01*
X202986000Y-81862395D01*
X203814139Y-81034255D01*
X203740005Y-80788136D01*
X203202777Y-80595035D01*
X202632546Y-80622222D01*
X202231995Y-80788136D01*
X202157861Y-81034255D01*
X199989505Y-81034255D01*
X199854250Y-80899000D01*
X198755000Y-80899000D01*
X198501000Y-80899000D01*
X197401750Y-80899000D01*
X197243000Y-81057750D01*
X193619396Y-81057750D01*
X193644750Y-80996691D01*
X193645248Y-80425813D01*
X193427243Y-79898200D01*
X193175173Y-79645690D01*
X197243000Y-79645690D01*
X197243000Y-80486250D01*
X197401750Y-80645000D01*
X198501000Y-80645000D01*
X198501000Y-79295750D01*
X198755000Y-79295750D01*
X198755000Y-80645000D01*
X199854250Y-80645000D01*
X200013000Y-80486250D01*
X200013000Y-79645690D01*
X199916327Y-79412301D01*
X199737698Y-79233673D01*
X199504309Y-79137000D01*
X198913750Y-79137000D01*
X198755000Y-79295750D01*
X198501000Y-79295750D01*
X198342250Y-79137000D01*
X197751691Y-79137000D01*
X197518302Y-79233673D01*
X197339673Y-79412301D01*
X197243000Y-79645690D01*
X193175173Y-79645690D01*
X193023923Y-79494176D01*
X192496691Y-79275250D01*
X191925813Y-79274752D01*
X191398200Y-79492757D01*
X190994176Y-79896077D01*
X190775250Y-80423309D01*
X190774994Y-80716650D01*
X190521644Y-80970000D01*
X188014336Y-80970000D01*
X187640882Y-80720467D01*
X187130000Y-80618846D01*
X186619118Y-80720467D01*
X186186012Y-81009858D01*
X185896621Y-81442964D01*
X185795000Y-81953846D01*
X184330000Y-81953846D01*
X184330000Y-81520708D01*
X184612069Y-81332236D01*
X184997491Y-80755411D01*
X185132833Y-80075000D01*
X184997491Y-79394589D01*
X184612069Y-78817764D01*
X184035244Y-78432342D01*
X183354833Y-78297000D01*
X183285167Y-78297000D01*
X182604756Y-78432342D01*
X182027931Y-78817764D01*
X181642509Y-79394589D01*
X181507167Y-80075000D01*
X172410440Y-80075000D01*
X172410440Y-78932000D01*
X172366162Y-78696683D01*
X172227090Y-78480559D01*
X172014890Y-78335569D01*
X171763000Y-78284560D01*
X171630000Y-78284560D01*
X171630000Y-77075708D01*
X171912069Y-76887236D01*
X172297491Y-76310411D01*
X172432833Y-75630000D01*
X172297491Y-74949589D01*
X172249683Y-74878039D01*
X173715822Y-76344178D01*
X174043490Y-76563118D01*
X174430000Y-76640000D01*
X175315612Y-76640000D01*
X175521077Y-76845824D01*
X176048309Y-77064750D01*
X176619187Y-77065248D01*
X177146800Y-76847243D01*
X177550824Y-76443923D01*
X177769750Y-75916691D01*
X177770248Y-75345813D01*
X177552243Y-74818200D01*
X177148923Y-74414176D01*
X176621691Y-74195250D01*
X176050813Y-74194752D01*
X175523200Y-74412757D01*
X175315595Y-74620000D01*
X174848356Y-74620000D01*
X170699178Y-70470822D01*
X170371510Y-70251882D01*
X169985000Y-70175000D01*
X168600440Y-70175000D01*
X168600440Y-70042000D01*
X168556162Y-69806683D01*
X168417090Y-69590559D01*
X168204890Y-69445569D01*
X167953000Y-69394560D01*
X165667000Y-69394560D01*
X165431683Y-69438838D01*
X165215559Y-69577910D01*
X165070569Y-69790110D01*
X165019560Y-70042000D01*
X165019560Y-70175000D01*
X164457267Y-70175000D01*
X164292069Y-69927764D01*
X163715244Y-69542342D01*
X163034833Y-69407000D01*
X162965167Y-69407000D01*
X162284756Y-69542342D01*
X161707931Y-69927764D01*
X161322509Y-70504589D01*
X161187167Y-71185000D01*
X152998356Y-71185000D01*
X152284178Y-70470822D01*
X152090440Y-70341371D01*
X152090440Y-70042000D01*
X152046162Y-69806683D01*
X151907090Y-69590559D01*
X151694890Y-69445569D01*
X151443000Y-69394560D01*
X151310000Y-69394560D01*
X151310000Y-67124388D01*
X151515824Y-66918923D01*
X151734750Y-66391691D01*
X151734752Y-66389187D01*
X153864752Y-66389187D01*
X154082757Y-66916800D01*
X154486077Y-67320824D01*
X155013309Y-67539750D01*
X155584187Y-67540248D01*
X156111800Y-67322243D01*
X156319405Y-67115000D01*
X182300612Y-67115000D01*
X182310000Y-67124405D01*
X182310000Y-69394560D01*
X182177000Y-69394560D01*
X181941683Y-69438838D01*
X181725559Y-69577910D01*
X181580569Y-69790110D01*
X181529560Y-70042000D01*
X181529560Y-70175000D01*
X180967267Y-70175000D01*
X180802069Y-69927764D01*
X180225244Y-69542342D01*
X179544833Y-69407000D01*
X179475167Y-69407000D01*
X178794756Y-69542342D01*
X178217931Y-69927764D01*
X177832509Y-70504589D01*
X177697167Y-71185000D01*
X177832509Y-71865411D01*
X178217931Y-72442236D01*
X178794756Y-72827658D01*
X179475167Y-72963000D01*
X179544833Y-72963000D01*
X180225244Y-72827658D01*
X180802069Y-72442236D01*
X180967267Y-72195000D01*
X181529560Y-72195000D01*
X181529560Y-72328000D01*
X181573838Y-72563317D01*
X181712910Y-72779441D01*
X181925110Y-72924431D01*
X182177000Y-72975440D01*
X184422204Y-72975440D01*
X182777644Y-74620000D01*
X182354388Y-74620000D01*
X182148923Y-74414176D01*
X181621691Y-74195250D01*
X181050813Y-74194752D01*
X180523200Y-74412757D01*
X180119176Y-74816077D01*
X179900250Y-75343309D01*
X179899752Y-75914187D01*
X180117757Y-76441800D01*
X180521077Y-76845824D01*
X181048309Y-77064750D01*
X181619187Y-77065248D01*
X182146800Y-76847243D01*
X182354405Y-76640000D01*
X183196000Y-76640000D01*
X183582510Y-76563118D01*
X183910178Y-76344178D01*
X185794913Y-74459443D01*
X185794769Y-74624383D01*
X185997582Y-75115229D01*
X186372796Y-75491098D01*
X186863287Y-75694768D01*
X187394383Y-75695231D01*
X187885229Y-75492418D01*
X188007861Y-75370000D01*
X190521644Y-75370000D01*
X190775075Y-75623431D01*
X190774752Y-75994187D01*
X190992757Y-76521800D01*
X191200000Y-76729405D01*
X191200000Y-76894000D01*
X191276882Y-77280510D01*
X191495822Y-77608178D01*
X192833822Y-78946178D01*
X193161490Y-79165118D01*
X193548000Y-79242000D01*
X194872506Y-79242000D01*
X195275951Y-79511573D01*
X195805968Y-79617000D01*
X196370032Y-79617000D01*
X196900049Y-79511573D01*
X197349375Y-79211343D01*
X197649605Y-78762017D01*
X197755032Y-78232000D01*
X197649605Y-77701983D01*
X197349375Y-77252657D01*
X196900049Y-76952427D01*
X196370032Y-76847000D01*
X195805968Y-76847000D01*
X195275951Y-76952427D01*
X194872506Y-77222000D01*
X193966356Y-77222000D01*
X193346983Y-76602627D01*
X193425824Y-76523923D01*
X193644750Y-75996691D01*
X193645248Y-75425813D01*
X193427243Y-74898200D01*
X193023923Y-74494176D01*
X192496691Y-74275250D01*
X192283420Y-74275064D01*
X191654178Y-73645822D01*
X191326510Y-73426882D01*
X190940000Y-73350000D01*
X188008091Y-73350000D01*
X187887204Y-73228902D01*
X187396713Y-73025232D01*
X187229270Y-73025086D01*
X188059356Y-72195000D01*
X194562733Y-72195000D01*
X194727931Y-72442236D01*
X195304756Y-72827658D01*
X195985167Y-72963000D01*
X196054833Y-72963000D01*
X196735244Y-72827658D01*
X197312069Y-72442236D01*
X197477267Y-72195000D01*
X198039560Y-72195000D01*
X198039560Y-72328000D01*
X198083838Y-72563317D01*
X198222910Y-72779441D01*
X198435110Y-72924431D01*
X198687000Y-72975440D01*
X198820000Y-72975440D01*
X198820000Y-74063159D01*
X198628000Y-74024968D01*
X198097983Y-74130395D01*
X197648657Y-74430625D01*
X197348427Y-74879951D01*
X197243000Y-75409968D01*
X197243000Y-75974032D01*
X197348427Y-76504049D01*
X197648657Y-76953375D01*
X198097983Y-77253605D01*
X198628000Y-77359032D01*
X199095522Y-77266036D01*
X199216000Y-77290001D01*
X199216005Y-77290000D01*
X210159650Y-77290000D01*
X210194630Y-77374658D01*
X210738479Y-77919457D01*
X211449416Y-78214663D01*
X212219207Y-78215335D01*
X212930658Y-77921370D01*
X213475457Y-77377521D01*
X213770663Y-76666584D01*
X213771335Y-75896793D01*
X213477370Y-75185342D01*
X212933521Y-74640543D01*
X212222584Y-74345337D01*
X211452793Y-74344665D01*
X210741342Y-74638630D01*
X210196543Y-75182479D01*
X210160201Y-75270000D01*
X200478356Y-75270000D01*
X200544178Y-75204178D01*
X200763118Y-74876510D01*
X200840000Y-74490000D01*
X200840000Y-72975440D01*
X200973000Y-72975440D01*
X201208317Y-72931162D01*
X201424441Y-72792090D01*
X201569431Y-72579890D01*
X201620440Y-72328000D01*
X201620440Y-71587866D01*
X210798243Y-71587866D01*
X211020586Y-72124672D01*
X211495080Y-72630772D01*
X212127132Y-72916766D01*
X212403000Y-72799717D01*
X212403000Y-71312000D01*
X212657000Y-71312000D01*
X212657000Y-72799717D01*
X212932868Y-72916766D01*
X213564920Y-72630772D01*
X214039414Y-72124672D01*
X214261757Y-71587866D01*
X214144262Y-71312000D01*
X212657000Y-71312000D01*
X212403000Y-71312000D01*
X210915738Y-71312000D01*
X210798243Y-71587866D01*
X201620440Y-71587866D01*
X201620440Y-70782134D01*
X210798243Y-70782134D01*
X210915738Y-71058000D01*
X212403000Y-71058000D01*
X212403000Y-69570283D01*
X212657000Y-69570283D01*
X212657000Y-71058000D01*
X214144262Y-71058000D01*
X214261757Y-70782134D01*
X214039414Y-70245328D01*
X213564920Y-69739228D01*
X212932868Y-69453234D01*
X212657000Y-69570283D01*
X212403000Y-69570283D01*
X212127132Y-69453234D01*
X211495080Y-69739228D01*
X211020586Y-70245328D01*
X210798243Y-70782134D01*
X201620440Y-70782134D01*
X201620440Y-70042000D01*
X201576162Y-69806683D01*
X201437090Y-69590559D01*
X201224890Y-69445569D01*
X200973000Y-69394560D01*
X198687000Y-69394560D01*
X198451683Y-69438838D01*
X198235559Y-69577910D01*
X198090569Y-69790110D01*
X198039560Y-70042000D01*
X198039560Y-70175000D01*
X197477267Y-70175000D01*
X197312069Y-69927764D01*
X196735244Y-69542342D01*
X196054833Y-69407000D01*
X195985167Y-69407000D01*
X195304756Y-69542342D01*
X194727931Y-69927764D01*
X194562733Y-70175000D01*
X187641000Y-70175000D01*
X187254490Y-70251882D01*
X186926822Y-70470822D01*
X185110440Y-72287204D01*
X185110440Y-70042000D01*
X185066162Y-69806683D01*
X184927090Y-69590559D01*
X184714890Y-69445569D01*
X184463000Y-69394560D01*
X184330000Y-69394560D01*
X184330000Y-67124388D01*
X184341663Y-67112745D01*
X187491861Y-67112745D01*
X187565995Y-67358864D01*
X188103223Y-67551965D01*
X188673454Y-67524778D01*
X189074005Y-67358864D01*
X189148139Y-67112745D01*
X188320000Y-66284605D01*
X187491861Y-67112745D01*
X184341663Y-67112745D01*
X184535824Y-66918923D01*
X184754750Y-66391691D01*
X184755189Y-65888223D01*
X186873035Y-65888223D01*
X186900222Y-66458454D01*
X187066136Y-66859005D01*
X187312255Y-66933139D01*
X188140395Y-66105000D01*
X188499605Y-66105000D01*
X189327745Y-66933139D01*
X189573864Y-66859005D01*
X189766965Y-66321777D01*
X189739778Y-65751546D01*
X189573864Y-65350995D01*
X189327745Y-65276861D01*
X188499605Y-66105000D01*
X188140395Y-66105000D01*
X187312255Y-65276861D01*
X187066136Y-65350995D01*
X186873035Y-65888223D01*
X184755189Y-65888223D01*
X184755248Y-65820813D01*
X184537243Y-65293200D01*
X184341640Y-65097255D01*
X187491861Y-65097255D01*
X188320000Y-65925395D01*
X189148139Y-65097255D01*
X189074005Y-64851136D01*
X188536777Y-64658035D01*
X187966546Y-64685222D01*
X187565995Y-64851136D01*
X187491861Y-65097255D01*
X184341640Y-65097255D01*
X184133923Y-64889176D01*
X183606691Y-64670250D01*
X183035813Y-64669752D01*
X182508200Y-64887757D01*
X182300595Y-65095000D01*
X156319388Y-65095000D01*
X156113923Y-64889176D01*
X155586691Y-64670250D01*
X155015813Y-64669752D01*
X154488200Y-64887757D01*
X154084176Y-65291077D01*
X153865250Y-65818309D01*
X153864752Y-66389187D01*
X151734752Y-66389187D01*
X151735248Y-65820813D01*
X151517243Y-65293200D01*
X151113923Y-64889176D01*
X150586691Y-64670250D01*
X150015813Y-64669752D01*
X149488200Y-64887757D01*
X149084176Y-65291077D01*
X148865250Y-65818309D01*
X148864752Y-66389187D01*
X149082757Y-66916800D01*
X149290000Y-67124405D01*
X149290000Y-69394560D01*
X149157000Y-69394560D01*
X148921683Y-69438838D01*
X148705559Y-69577910D01*
X148560569Y-69790110D01*
X148509560Y-70042000D01*
X148509560Y-70175000D01*
X146787356Y-70175000D01*
X146623082Y-70010726D01*
X146623231Y-69839617D01*
X146420418Y-69348771D01*
X146045204Y-68972902D01*
X145554713Y-68769232D01*
X145023617Y-68768769D01*
X144532771Y-68971582D01*
X144156902Y-69346796D01*
X143953232Y-69837287D01*
X143952769Y-70368383D01*
X138976564Y-70368383D01*
X139029154Y-70104000D01*
X138927533Y-69593118D01*
X138638142Y-69160012D01*
X138205036Y-68870621D01*
X137694154Y-68769000D01*
X137641846Y-68769000D01*
X137130964Y-68870621D01*
X136697858Y-69160012D01*
X136408467Y-69593118D01*
X136323533Y-70020111D01*
X136168644Y-70175000D01*
X131634388Y-70175000D01*
X131428923Y-69969176D01*
X131414196Y-69963061D01*
X131329178Y-69835822D01*
X131001510Y-69616882D01*
X130615000Y-69540000D01*
X130228490Y-69616882D01*
X129900822Y-69835822D01*
X129816276Y-69962354D01*
X129803200Y-69967757D01*
X129595595Y-70175000D01*
X127048091Y-70175000D01*
X126927204Y-70053902D01*
X126436713Y-69850232D01*
X125905617Y-69849769D01*
X125414771Y-70052582D01*
X125038902Y-70427796D01*
X124835232Y-70918287D01*
X124834769Y-71449383D01*
X119858564Y-71449383D01*
X119911154Y-71185000D01*
X119809533Y-70674118D01*
X119520142Y-70241012D01*
X119087036Y-69951621D01*
X118576154Y-69850000D01*
X118523846Y-69850000D01*
X118012964Y-69951621D01*
X117678652Y-70175000D01*
X114976348Y-70175000D01*
X114642036Y-69951621D01*
X114131154Y-69850000D01*
X114078846Y-69850000D01*
X113567964Y-69951621D01*
X113134858Y-70241012D01*
X112845467Y-70674118D01*
X112743846Y-71185000D01*
X107820000Y-71185000D01*
X107820231Y-70920617D01*
X107617418Y-70429771D01*
X107495000Y-70307139D01*
X107495000Y-68428356D01*
X108730611Y-67192745D01*
X129786861Y-67192745D01*
X129860995Y-67438864D01*
X130398223Y-67631965D01*
X130968454Y-67604778D01*
X131369005Y-67438864D01*
X131443139Y-67192745D01*
X130615000Y-66364605D01*
X129786861Y-67192745D01*
X108730611Y-67192745D01*
X109955133Y-65968223D01*
X129168035Y-65968223D01*
X129195222Y-66538454D01*
X129361136Y-66939005D01*
X129607255Y-67013139D01*
X130435395Y-66185000D01*
X130794605Y-66185000D01*
X131622745Y-67013139D01*
X131868864Y-66939005D01*
X132061965Y-66401777D01*
X132034778Y-65831546D01*
X131868864Y-65430995D01*
X131622745Y-65356861D01*
X130794605Y-66185000D01*
X130435395Y-66185000D01*
X129607255Y-65356861D01*
X129361136Y-65430995D01*
X129168035Y-65968223D01*
X109955133Y-65968223D01*
X110746101Y-65177255D01*
X129786861Y-65177255D01*
X130615000Y-66005395D01*
X131443139Y-65177255D01*
X131369005Y-64931136D01*
X130831777Y-64738035D01*
X130261546Y-64765222D01*
X129860995Y-64931136D01*
X129786861Y-65177255D01*
X110746101Y-65177255D01*
X111364178Y-64559178D01*
X111583118Y-64231511D01*
X111660000Y-63845000D01*
X111660000Y-57397440D01*
X113150000Y-57397440D01*
X113385317Y-57353162D01*
X113601441Y-57214090D01*
X113746431Y-57001890D01*
X113797440Y-56750000D01*
X113797440Y-54750000D01*
X113753162Y-54514683D01*
X113614090Y-54298559D01*
X113401890Y-54153569D01*
X113150000Y-54102560D01*
X108150000Y-54102560D01*
X108108532Y-54110363D01*
X108070000Y-54102560D01*
X103070000Y-54102560D01*
X102834683Y-54146838D01*
X102618559Y-54285910D01*
X102473569Y-54498110D01*
X102422560Y-54750000D01*
X100127000Y-54750000D01*
X100127000Y-50460000D01*
X115290000Y-50460000D01*
X115290000Y-61750000D01*
X115290000Y-61750000D01*
G37*
X115290000Y-61750000D02*
X115344046Y-62021705D01*
X115497954Y-62252046D01*
X115728295Y-62405954D01*
X116000000Y-62460000D01*
X204000000Y-62460000D01*
X204271705Y-62405954D01*
X204502046Y-62252046D01*
X204655954Y-62021705D01*
X204710000Y-61750000D01*
X204710000Y-61250000D01*
X211373000Y-61250000D01*
X211373000Y-66250000D01*
X211381685Y-66296159D01*
X211408965Y-66338553D01*
X211450590Y-66366994D01*
X211500000Y-66377000D01*
X216500000Y-66377000D01*
X216546159Y-66368315D01*
X216588553Y-66341035D01*
X216616994Y-66299410D01*
X216627000Y-66250000D01*
X216627000Y-61250000D01*
X216618315Y-61203841D01*
X216591035Y-61161447D01*
X216549410Y-61133006D01*
X216500000Y-61123000D01*
X211500000Y-61123000D01*
X211453841Y-61131685D01*
X211411447Y-61158965D01*
X211383006Y-61200590D01*
X211373000Y-61250000D01*
X204710000Y-61250000D01*
X204710000Y-56130434D01*
X205509876Y-56130434D01*
X205540856Y-56258355D01*
X205854078Y-56816317D01*
X206356980Y-57211942D01*
X206973000Y-57385000D01*
X208473000Y-57385000D01*
X208473000Y-55877000D01*
X208727000Y-55877000D01*
X208727000Y-57385000D01*
X210227000Y-57385000D01*
X210843020Y-57211942D01*
X211140000Y-56978313D01*
X211436980Y-57211942D01*
X212053000Y-57385000D01*
X213553000Y-57385000D01*
X213553000Y-55877000D01*
X213807000Y-55877000D01*
X213807000Y-57385000D01*
X215307000Y-57385000D01*
X215923020Y-57211942D01*
X216425922Y-56816317D01*
X216739144Y-56258355D01*
X216770124Y-56130434D01*
X216650777Y-55877000D01*
X213807000Y-55877000D01*
X213553000Y-55877000D01*
X208727000Y-55877000D01*
X208473000Y-55877000D01*
X205629223Y-55877000D01*
X205509876Y-56130434D01*
X204710000Y-56130434D01*
X204710000Y-55369566D01*
X205509876Y-55369566D01*
X205629223Y-55623000D01*
X208473000Y-55623000D01*
X208473000Y-54115000D01*
X208727000Y-54115000D01*
X208727000Y-55623000D01*
X213553000Y-55623000D01*
X213553000Y-54115000D01*
X213807000Y-54115000D01*
X213807000Y-55623000D01*
X216650777Y-55623000D01*
X216770124Y-55369566D01*
X216739144Y-55241645D01*
X216425922Y-54683683D01*
X215923020Y-54288058D01*
X215307000Y-54115000D01*
X213807000Y-54115000D01*
X213553000Y-54115000D01*
X212053000Y-54115000D01*
X211436980Y-54288058D01*
X211140000Y-54521687D01*
X210843020Y-54288058D01*
X210227000Y-54115000D01*
X208727000Y-54115000D01*
X208473000Y-54115000D01*
X206973000Y-54115000D01*
X206356980Y-54288058D01*
X205854078Y-54683683D01*
X205540856Y-55241645D01*
X205509876Y-55369566D01*
X204710000Y-55369566D01*
X204710000Y-50460000D01*
X217873000Y-50460000D01*
X217873000Y-131290000D01*
X100127000Y-131290000D01*
X100127000Y-130758285D01*
X100332110Y-130898431D01*
X100584000Y-130949440D01*
X102108000Y-130949440D01*
X102343317Y-130905162D01*
X102559441Y-130766090D01*
X102704431Y-130553890D01*
X102741492Y-130370876D01*
X103093630Y-130723629D01*
X103606900Y-130936757D01*
X104162661Y-130937242D01*
X104676303Y-130725010D01*
X105069629Y-130332370D01*
X105155949Y-130124488D01*
X105240990Y-130330303D01*
X105633630Y-130723629D01*
X106146900Y-130936757D01*
X106702661Y-130937242D01*
X107216303Y-130725010D01*
X107421457Y-130520213D01*
X108165392Y-130520213D01*
X108234857Y-130762397D01*
X108758302Y-130949144D01*
X109313368Y-130921362D01*
X109697143Y-130762397D01*
X109766608Y-130520213D01*
X108966000Y-129719605D01*
X108165392Y-130520213D01*
X107421457Y-130520213D01*
X107609629Y-130332370D01*
X107689395Y-130140273D01*
X107743603Y-130271143D01*
X107985787Y-130340608D01*
X108786395Y-129540000D01*
X107985787Y-128739392D01*
X107743603Y-128808857D01*
X107693491Y-128949318D01*
X107611010Y-128749697D01*
X107421432Y-128559787D01*
X108165392Y-128559787D01*
X108966000Y-129360395D01*
X109766608Y-128559787D01*
X109697143Y-128317603D01*
X109173698Y-128130856D01*
X108618632Y-128158638D01*
X108234857Y-128317603D01*
X108165392Y-128559787D01*
X107421432Y-128559787D01*
X107218370Y-128356371D01*
X106705100Y-128143243D01*
X106149339Y-128142758D01*
X105635697Y-128354990D01*
X105242371Y-128747630D01*
X105156051Y-128955512D01*
X105071010Y-128749697D01*
X104896000Y-128574381D01*
X104896000Y-109496661D01*
X110108758Y-109496661D01*
X110320990Y-110010303D01*
X110713630Y-110403629D01*
X111226900Y-110616757D01*
X111782661Y-110617242D01*
X112296303Y-110405010D01*
X112689629Y-110012370D01*
X112775949Y-109804488D01*
X112860990Y-110010303D01*
X113095000Y-110244722D01*
X113095000Y-113680000D01*
X113171882Y-114066510D01*
X113390822Y-114394178D01*
X115285822Y-116289178D01*
X115613490Y-116508118D01*
X116000000Y-116585000D01*
X196925000Y-116585000D01*
X197311510Y-116508118D01*
X197639178Y-116289178D01*
X199064178Y-114864178D01*
X199283118Y-114536510D01*
X199360000Y-114150000D01*
X199360000Y-110305696D01*
X199533629Y-110132370D01*
X199619949Y-109924488D01*
X199704990Y-110130303D01*
X200097630Y-110523629D01*
X200610900Y-110736757D01*
X201166661Y-110737242D01*
X201680303Y-110525010D01*
X202073629Y-110132370D01*
X202286757Y-109619100D01*
X202287242Y-109063339D01*
X202075010Y-108549697D01*
X201682370Y-108156371D01*
X201169100Y-107943243D01*
X200613339Y-107942758D01*
X200099697Y-108154990D01*
X199706371Y-108547630D01*
X199620051Y-108755512D01*
X199535010Y-108549697D01*
X199142370Y-108156371D01*
X198629100Y-107943243D01*
X198073339Y-107942758D01*
X197559697Y-108154990D01*
X197166371Y-108547630D01*
X197080051Y-108755512D01*
X196995010Y-108549697D01*
X196602370Y-108156371D01*
X196089100Y-107943243D01*
X195533339Y-107942758D01*
X195019697Y-108154990D01*
X194626371Y-108547630D01*
X194540051Y-108755512D01*
X194455010Y-108549697D01*
X194062370Y-108156371D01*
X193549100Y-107943243D01*
X192993339Y-107942758D01*
X192479697Y-108154990D01*
X192086371Y-108547630D01*
X192000051Y-108755512D01*
X191915010Y-108549697D01*
X191740000Y-108374381D01*
X191740000Y-106730000D01*
X191663118Y-106343490D01*
X191444178Y-106015822D01*
X190464106Y-105035750D01*
X197605000Y-105035750D01*
X197605000Y-105636310D01*
X197701673Y-105869699D01*
X197880302Y-106048327D01*
X198113691Y-106145000D01*
X198714250Y-106145000D01*
X198873000Y-105986250D01*
X198873000Y-104877000D01*
X199127000Y-104877000D01*
X199127000Y-105986250D01*
X199285750Y-106145000D01*
X199886309Y-106145000D01*
X200119698Y-106048327D01*
X200298327Y-105869699D01*
X200395000Y-105636310D01*
X200395000Y-105035750D01*
X200236250Y-104877000D01*
X199127000Y-104877000D01*
X198873000Y-104877000D01*
X197763750Y-104877000D01*
X197605000Y-105035750D01*
X190464106Y-105035750D01*
X189554178Y-104125822D01*
X189226510Y-103906882D01*
X188840000Y-103830000D01*
X133513061Y-103830000D01*
X133651098Y-103692204D01*
X133854768Y-103201713D01*
X133855231Y-102670617D01*
X133652418Y-102179771D01*
X133277204Y-101803902D01*
X133099229Y-101730000D01*
X133346310Y-101730000D01*
X133579699Y-101633327D01*
X133758327Y-101454698D01*
X133855000Y-101221309D01*
X133855000Y-100680750D01*
X133696250Y-100522000D01*
X132647000Y-100522000D01*
X132647000Y-100542000D01*
X132393000Y-100542000D01*
X132393000Y-100522000D01*
X131343750Y-100522000D01*
X131185000Y-100680750D01*
X131185000Y-101221309D01*
X131281673Y-101454698D01*
X131460301Y-101633327D01*
X131693690Y-101730000D01*
X131940433Y-101730000D01*
X131764771Y-101802582D01*
X131388902Y-102177796D01*
X131185232Y-102668287D01*
X131184769Y-103199383D01*
X131387582Y-103690229D01*
X131527109Y-103830000D01*
X126528061Y-103830000D01*
X126666098Y-103692204D01*
X126869768Y-103201713D01*
X126870231Y-102670617D01*
X126667418Y-102179771D01*
X126292204Y-101803902D01*
X126114229Y-101730000D01*
X126361310Y-101730000D01*
X126594699Y-101633327D01*
X126773327Y-101454698D01*
X126870000Y-101221309D01*
X126870000Y-100680750D01*
X126711250Y-100522000D01*
X125662000Y-100522000D01*
X125662000Y-100542000D01*
X125408000Y-100542000D01*
X125408000Y-100522000D01*
X124358750Y-100522000D01*
X124200000Y-100680750D01*
X124200000Y-101221309D01*
X124296673Y-101454698D01*
X124475301Y-101633327D01*
X124708690Y-101730000D01*
X124955433Y-101730000D01*
X124779771Y-101802582D01*
X124403902Y-102177796D01*
X124200232Y-102668287D01*
X124199769Y-103199383D01*
X124402582Y-103690229D01*
X124542109Y-103830000D01*
X122995000Y-103830000D01*
X122608490Y-103906882D01*
X122280822Y-104125822D01*
X121090000Y-105316644D01*
X118925000Y-103151644D01*
X118925000Y-93828356D01*
X120453356Y-92300000D01*
X123839314Y-92300000D01*
X124129357Y-92590551D01*
X124693330Y-92824733D01*
X125303991Y-92825265D01*
X125868371Y-92592068D01*
X126300551Y-92160643D01*
X126534733Y-91596670D01*
X126535265Y-90986009D01*
X126302068Y-90421629D01*
X126134120Y-90253387D01*
X126135317Y-90253162D01*
X126351441Y-90114090D01*
X126496431Y-89901890D01*
X126547440Y-89650000D01*
X126547440Y-87850000D01*
X126503162Y-87614683D01*
X126364090Y-87398559D01*
X126151890Y-87253569D01*
X125900000Y-87202560D01*
X124100000Y-87202560D01*
X123864683Y-87246838D01*
X123648559Y-87385910D01*
X123503569Y-87598110D01*
X123452560Y-87850000D01*
X123452560Y-89650000D01*
X123496838Y-89885317D01*
X123635910Y-90101441D01*
X123848110Y-90246431D01*
X123868534Y-90250567D01*
X123839050Y-90280000D01*
X120035000Y-90280000D01*
X119648490Y-90356882D01*
X119320822Y-90575822D01*
X117200822Y-92695822D01*
X116981882Y-93023490D01*
X116905000Y-93410000D01*
X116905000Y-103570000D01*
X116930239Y-103696883D01*
X115750000Y-102516644D01*
X115750000Y-98763740D01*
X115913461Y-98600564D01*
X116124759Y-98091702D01*
X116125240Y-97540715D01*
X115914831Y-97031485D01*
X115525564Y-96641539D01*
X115016702Y-96430241D01*
X114465715Y-96429760D01*
X113956485Y-96640169D01*
X113566539Y-97029436D01*
X113355241Y-97538298D01*
X113354760Y-98089285D01*
X113565169Y-98598515D01*
X113730000Y-98763634D01*
X113730000Y-102935000D01*
X113806882Y-103321510D01*
X114025822Y-103649178D01*
X118175000Y-107798356D01*
X118175000Y-108195407D01*
X117942371Y-108427630D01*
X117856051Y-108635512D01*
X117771010Y-108429697D01*
X117378370Y-108036371D01*
X116865100Y-107823243D01*
X116309339Y-107822758D01*
X115795697Y-108034990D01*
X115402371Y-108427630D01*
X115316051Y-108635512D01*
X115231010Y-108429697D01*
X114838370Y-108036371D01*
X114325100Y-107823243D01*
X113769339Y-107822758D01*
X113255697Y-108034990D01*
X112862371Y-108427630D01*
X112776051Y-108635512D01*
X112691010Y-108429697D01*
X112298370Y-108036371D01*
X111785100Y-107823243D01*
X111229339Y-107822758D01*
X110715697Y-108034990D01*
X110322371Y-108427630D01*
X110109243Y-108940900D01*
X110108758Y-109496661D01*
X104896000Y-109496661D01*
X104896000Y-93786517D01*
X113948088Y-93786517D01*
X114016077Y-94027460D01*
X114535171Y-94212201D01*
X115085448Y-94184230D01*
X115463923Y-94027460D01*
X115531912Y-93786517D01*
X114740000Y-92994605D01*
X113948088Y-93786517D01*
X104896000Y-93786517D01*
X104896000Y-92610171D01*
X113342799Y-92610171D01*
X113370770Y-93160448D01*
X113527540Y-93538923D01*
X113768483Y-93606912D01*
X114560395Y-92815000D01*
X114919605Y-92815000D01*
X115711517Y-93606912D01*
X115952460Y-93538923D01*
X116137201Y-93019829D01*
X116109230Y-92469552D01*
X115952460Y-92091077D01*
X115711517Y-92023088D01*
X114919605Y-92815000D01*
X114560395Y-92815000D01*
X113768483Y-92023088D01*
X113527540Y-92091077D01*
X113342799Y-92610171D01*
X104896000Y-92610171D01*
X104896000Y-91843483D01*
X113948088Y-91843483D01*
X114740000Y-92635395D01*
X115531912Y-91843483D01*
X115463923Y-91602540D01*
X114944829Y-91417799D01*
X114394552Y-91445770D01*
X114016077Y-91602540D01*
X113948088Y-91843483D01*
X104896000Y-91843483D01*
X104896000Y-87709329D01*
X106403284Y-87709329D01*
X106546203Y-88054396D01*
X106893337Y-88442764D01*
X107362669Y-88668727D01*
X107569000Y-88546206D01*
X107569000Y-87503000D01*
X107823000Y-87503000D01*
X107823000Y-88546206D01*
X108029331Y-88668727D01*
X108498663Y-88442764D01*
X108845797Y-88054396D01*
X108988716Y-87709329D01*
X108947501Y-87640383D01*
X113980769Y-87640383D01*
X114183582Y-88131229D01*
X114558796Y-88507098D01*
X115049287Y-88710768D01*
X115580383Y-88711231D01*
X116071229Y-88508418D01*
X116447098Y-88133204D01*
X116650768Y-87642713D01*
X116651231Y-87111617D01*
X116448418Y-86620771D01*
X116073204Y-86244902D01*
X115582713Y-86041232D01*
X115051617Y-86040769D01*
X114560771Y-86243582D01*
X114184902Y-86618796D01*
X113981232Y-87109287D01*
X113980769Y-87640383D01*
X108947501Y-87640383D01*
X108865374Y-87503000D01*
X107823000Y-87503000D01*
X107569000Y-87503000D01*
X106526626Y-87503000D01*
X106403284Y-87709329D01*
X104896000Y-87709329D01*
X104896000Y-87042671D01*
X106403284Y-87042671D01*
X106526626Y-87249000D01*
X107569000Y-87249000D01*
X107569000Y-86205794D01*
X107823000Y-86205794D01*
X107823000Y-87249000D01*
X108865374Y-87249000D01*
X108988716Y-87042671D01*
X108845797Y-86697604D01*
X108498663Y-86309236D01*
X108029331Y-86083273D01*
X107823000Y-86205794D01*
X107569000Y-86205794D01*
X107362669Y-86083273D01*
X106893337Y-86309236D01*
X106546203Y-86697604D01*
X106403284Y-87042671D01*
X104896000Y-87042671D01*
X104896000Y-86524356D01*
X106590356Y-84830000D01*
X115405644Y-84830000D01*
X117141822Y-86566178D01*
X117469490Y-86785118D01*
X117856000Y-86862000D01*
X126581644Y-86862000D01*
X128970000Y-89250356D01*
X128970000Y-91268652D01*
X128746621Y-91602964D01*
X128645000Y-92113846D01*
X128645000Y-92166154D01*
X128746621Y-92677036D01*
X128970000Y-93011348D01*
X128970000Y-94896644D01*
X127021644Y-96845000D01*
X126413091Y-96845000D01*
X126292204Y-96723902D01*
X125957473Y-96584909D01*
X126290229Y-96447418D01*
X126666098Y-96072204D01*
X126869768Y-95581713D01*
X126870231Y-95050617D01*
X126667418Y-94559771D01*
X126292204Y-94183902D01*
X125801713Y-93980232D01*
X125270617Y-93979769D01*
X124779771Y-94182582D01*
X124403902Y-94557796D01*
X124200232Y-95048287D01*
X124199769Y-95579383D01*
X124402582Y-96070229D01*
X124777796Y-96446098D01*
X125112527Y-96585091D01*
X124779771Y-96722582D01*
X124403902Y-97097796D01*
X124200232Y-97588287D01*
X124199769Y-98119383D01*
X124402582Y-98610229D01*
X124777796Y-98986098D01*
X124955771Y-99060000D01*
X124708690Y-99060000D01*
X124475301Y-99156673D01*
X124296673Y-99335302D01*
X124200000Y-99568691D01*
X124200000Y-100109250D01*
X124358750Y-100268000D01*
X125408000Y-100268000D01*
X125408000Y-100248000D01*
X125662000Y-100248000D01*
X125662000Y-100268000D01*
X126711250Y-100268000D01*
X126870000Y-100109250D01*
X126870000Y-99568691D01*
X126773327Y-99335302D01*
X126594699Y-99156673D01*
X126361310Y-99060000D01*
X126114567Y-99060000D01*
X126290229Y-98987418D01*
X126412861Y-98865000D01*
X131641909Y-98865000D01*
X131762796Y-98986098D01*
X131940771Y-99060000D01*
X131693690Y-99060000D01*
X131460301Y-99156673D01*
X131281673Y-99335302D01*
X131185000Y-99568691D01*
X131185000Y-100109250D01*
X131343750Y-100268000D01*
X132393000Y-100268000D01*
X132393000Y-100248000D01*
X132647000Y-100248000D01*
X132647000Y-100268000D01*
X133696250Y-100268000D01*
X133855000Y-100109250D01*
X133855000Y-99568691D01*
X133758327Y-99335302D01*
X133579699Y-99156673D01*
X133346310Y-99060000D01*
X133099567Y-99060000D01*
X133275229Y-98987418D01*
X133651098Y-98612204D01*
X133854768Y-98121713D01*
X133855231Y-97590617D01*
X133652418Y-97099771D01*
X133277204Y-96723902D01*
X132942473Y-96584909D01*
X133275229Y-96447418D01*
X133651098Y-96072204D01*
X133854768Y-95581713D01*
X133855231Y-95050617D01*
X133652418Y-94559771D01*
X133277204Y-94183902D01*
X132786713Y-93980232D01*
X132255617Y-93979769D01*
X131764771Y-94182582D01*
X131388902Y-94557796D01*
X131185232Y-95048287D01*
X131184769Y-95579383D01*
X131387582Y-96070229D01*
X131762796Y-96446098D01*
X132097527Y-96585091D01*
X131764771Y-96722582D01*
X131642139Y-96845000D01*
X129878356Y-96845000D01*
X130694178Y-96029178D01*
X130913118Y-95701511D01*
X130990000Y-95315000D01*
X130990000Y-93011348D01*
X131213379Y-92677036D01*
X131315000Y-92166154D01*
X131315000Y-92113846D01*
X131213379Y-91602964D01*
X130997892Y-91280464D01*
X131033356Y-91245000D01*
X132795804Y-91245000D01*
X132556621Y-91602964D01*
X132455000Y-92113846D01*
X132455000Y-92166154D01*
X132556621Y-92677036D01*
X132846012Y-93110142D01*
X133279118Y-93399533D01*
X133790000Y-93501154D01*
X134263594Y-93406950D01*
X134345822Y-93489178D01*
X134673490Y-93708118D01*
X135060000Y-93785000D01*
X137339060Y-93785000D01*
X137220302Y-93864352D01*
X136909233Y-94329899D01*
X136800000Y-94879050D01*
X136800000Y-95750950D01*
X136909233Y-96300101D01*
X137220302Y-96765648D01*
X137685849Y-97076717D01*
X138235000Y-97185950D01*
X138784151Y-97076717D01*
X139249698Y-96765648D01*
X139505000Y-96383562D01*
X139760302Y-96765648D01*
X140225849Y-97076717D01*
X140775000Y-97185950D01*
X141324151Y-97076717D01*
X141789698Y-96765648D01*
X142045000Y-96383562D01*
X142300302Y-96765648D01*
X142765849Y-97076717D01*
X143315000Y-97185950D01*
X143864151Y-97076717D01*
X144329698Y-96765648D01*
X144585000Y-96383562D01*
X144840302Y-96765648D01*
X145305849Y-97076717D01*
X145855000Y-97185950D01*
X146404151Y-97076717D01*
X146869698Y-96765648D01*
X147125000Y-96383562D01*
X147380302Y-96765648D01*
X147845849Y-97076717D01*
X148395000Y-97185950D01*
X148944151Y-97076717D01*
X149409698Y-96765648D01*
X149665000Y-96383562D01*
X149920302Y-96765648D01*
X150385849Y-97076717D01*
X150935000Y-97185950D01*
X151484151Y-97076717D01*
X151949698Y-96765648D01*
X152205000Y-96383562D01*
X152460302Y-96765648D01*
X152925849Y-97076717D01*
X153475000Y-97185950D01*
X154024151Y-97076717D01*
X154198830Y-96960000D01*
X163374060Y-96960000D01*
X163255302Y-97039352D01*
X162944233Y-97504899D01*
X162835000Y-98054050D01*
X162835000Y-98925950D01*
X162944233Y-99475101D01*
X163255302Y-99940648D01*
X163720849Y-100251717D01*
X164270000Y-100360950D01*
X164819151Y-100251717D01*
X165284698Y-99940648D01*
X165540000Y-99558562D01*
X165795302Y-99940648D01*
X166260849Y-100251717D01*
X166810000Y-100360950D01*
X167359151Y-100251717D01*
X167824698Y-99940648D01*
X168080000Y-99558562D01*
X168335302Y-99940648D01*
X168800849Y-100251717D01*
X169350000Y-100360950D01*
X169899151Y-100251717D01*
X170364698Y-99940648D01*
X170620000Y-99558562D01*
X170875302Y-99940648D01*
X171340849Y-100251717D01*
X171890000Y-100360950D01*
X172259163Y-100287519D01*
X172355822Y-100384178D01*
X172683490Y-100603118D01*
X173070000Y-100680000D01*
X178370000Y-100680000D01*
X178370000Y-101365664D01*
X178120467Y-101739118D01*
X178018846Y-102250000D01*
X178120467Y-102760882D01*
X178409858Y-103193988D01*
X178842964Y-103483379D01*
X179353846Y-103585000D01*
X179406154Y-103585000D01*
X179917036Y-103483379D01*
X180350142Y-103193988D01*
X180639533Y-102760882D01*
X180741154Y-102250000D01*
X180639533Y-101739118D01*
X180390000Y-101365664D01*
X180390000Y-100680000D01*
X198037130Y-100680000D01*
X198208764Y-100851934D01*
X198420738Y-100939954D01*
X198210828Y-101026687D01*
X198037212Y-101200000D01*
X187838161Y-101200000D01*
X187757204Y-101118902D01*
X187266713Y-100915232D01*
X186735617Y-100914769D01*
X186244771Y-101117582D01*
X185868902Y-101492796D01*
X185665232Y-101983287D01*
X185664769Y-102514383D01*
X185867582Y-103005229D01*
X186242796Y-103381098D01*
X186733287Y-103584768D01*
X187264383Y-103585231D01*
X187755229Y-103382418D01*
X187917931Y-103220000D01*
X198037130Y-103220000D01*
X198171894Y-103355000D01*
X198113691Y-103355000D01*
X197880302Y-103451673D01*
X197701673Y-103630301D01*
X197605000Y-103863690D01*
X197605000Y-104464250D01*
X197763750Y-104623000D01*
X198873000Y-104623000D01*
X198873000Y-104603000D01*
X199127000Y-104603000D01*
X199127000Y-104623000D01*
X200236250Y-104623000D01*
X200395000Y-104464250D01*
X200395000Y-104073356D01*
X203535822Y-107214178D01*
X203863490Y-107433118D01*
X204250000Y-107510000D01*
X207581644Y-107510000D01*
X207990000Y-107918356D01*
X207990000Y-117881644D01*
X200175822Y-125695822D01*
X199956882Y-126023490D01*
X199880000Y-126410000D01*
X199880000Y-128694304D01*
X199706371Y-128867630D01*
X199620051Y-129075512D01*
X199535010Y-128869697D01*
X199142370Y-128476371D01*
X198629100Y-128263243D01*
X198073339Y-128262758D01*
X197559697Y-128474990D01*
X197166371Y-128867630D01*
X197080051Y-129075512D01*
X196995010Y-128869697D01*
X196602370Y-128476371D01*
X196089100Y-128263243D01*
X195533339Y-128262758D01*
X195019697Y-128474990D01*
X194626371Y-128867630D01*
X194540051Y-129075512D01*
X194455010Y-128869697D01*
X194062370Y-128476371D01*
X193549100Y-128263243D01*
X192993339Y-128262758D01*
X192479697Y-128474990D01*
X192086371Y-128867630D01*
X192000051Y-129075512D01*
X191915010Y-128869697D01*
X191522370Y-128476371D01*
X191009100Y-128263243D01*
X190453339Y-128262758D01*
X189939697Y-128474990D01*
X189546371Y-128867630D01*
X189460051Y-129075512D01*
X189375010Y-128869697D01*
X188982370Y-128476371D01*
X188469100Y-128263243D01*
X187913339Y-128262758D01*
X187399697Y-128474990D01*
X187006371Y-128867630D01*
X186920051Y-129075512D01*
X186835010Y-128869697D01*
X186660000Y-128694381D01*
X186660000Y-121750000D01*
X186583118Y-121363490D01*
X186364178Y-121035822D01*
X182978178Y-117649822D01*
X182650510Y-117430882D01*
X182264000Y-117354000D01*
X128524000Y-117354000D01*
X128137490Y-117430882D01*
X127809822Y-117649822D01*
X126031822Y-119427822D01*
X125812882Y-119755490D01*
X125736000Y-120142000D01*
X125736000Y-128574304D01*
X125562371Y-128747630D01*
X125476051Y-128955512D01*
X125391010Y-128749697D01*
X124998370Y-128356371D01*
X124485100Y-128143243D01*
X123929339Y-128142758D01*
X123415697Y-128354990D01*
X123022371Y-128747630D01*
X122936051Y-128955512D01*
X122851010Y-128749697D01*
X122458370Y-128356371D01*
X121945100Y-128143243D01*
X121389339Y-128142758D01*
X120875697Y-128354990D01*
X120482371Y-128747630D01*
X120396051Y-128955512D01*
X120311010Y-128749697D01*
X119918370Y-128356371D01*
X119405100Y-128143243D01*
X118849339Y-128142758D01*
X118335697Y-128354990D01*
X117942371Y-128747630D01*
X117856051Y-128955512D01*
X117771010Y-128749697D01*
X117378370Y-128356371D01*
X116865100Y-128143243D01*
X116309339Y-128142758D01*
X115795697Y-128354990D01*
X115402371Y-128747630D01*
X115316051Y-128955512D01*
X115231010Y-128749697D01*
X114838370Y-128356371D01*
X114325100Y-128143243D01*
X113769339Y-128142758D01*
X113255697Y-128354990D01*
X112862371Y-128747630D01*
X112776051Y-128955512D01*
X112691010Y-128749697D01*
X112298370Y-128356371D01*
X111785100Y-128143243D01*
X111229339Y-128142758D01*
X110715697Y-128354990D01*
X110322371Y-128747630D01*
X110242605Y-128939727D01*
X110188397Y-128808857D01*
X109946213Y-128739392D01*
X109145605Y-129540000D01*
X109946213Y-130340608D01*
X110188397Y-130271143D01*
X110238509Y-130130682D01*
X110320990Y-130330303D01*
X110713630Y-130723629D01*
X111226900Y-130936757D01*
X111782661Y-130937242D01*
X112296303Y-130725010D01*
X112689629Y-130332370D01*
X112775949Y-130124488D01*
X112860990Y-130330303D01*
X113253630Y-130723629D01*
X113766900Y-130936757D01*
X114322661Y-130937242D01*
X114836303Y-130725010D01*
X115229629Y-130332370D01*
X115315949Y-130124488D01*
X115400990Y-130330303D01*
X115793630Y-130723629D01*
X116306900Y-130936757D01*
X116862661Y-130937242D01*
X117376303Y-130725010D01*
X117769629Y-130332370D01*
X117855949Y-130124488D01*
X117940990Y-130330303D01*
X118333630Y-130723629D01*
X118846900Y-130936757D01*
X119402661Y-130937242D01*
X119916303Y-130725010D01*
X120309629Y-130332370D01*
X120395949Y-130124488D01*
X120480990Y-130330303D01*
X120873630Y-130723629D01*
X121386900Y-130936757D01*
X121942661Y-130937242D01*
X122456303Y-130725010D01*
X122849629Y-130332370D01*
X122935949Y-130124488D01*
X123020990Y-130330303D01*
X123413630Y-130723629D01*
X123926900Y-130936757D01*
X124482661Y-130937242D01*
X124996303Y-130725010D01*
X125389629Y-130332370D01*
X125475949Y-130124488D01*
X125560990Y-130330303D01*
X125953630Y-130723629D01*
X126466900Y-130936757D01*
X127022661Y-130937242D01*
X127536303Y-130725010D01*
X127929629Y-130332370D01*
X128015949Y-130124488D01*
X128100990Y-130330303D01*
X128493630Y-130723629D01*
X129006900Y-130936757D01*
X129562661Y-130937242D01*
X130076303Y-130725010D01*
X130469629Y-130332370D01*
X130555949Y-130124488D01*
X130640990Y-130330303D01*
X131033630Y-130723629D01*
X131546900Y-130936757D01*
X132102661Y-130937242D01*
X132616303Y-130725010D01*
X133009629Y-130332370D01*
X133095949Y-130124488D01*
X133180990Y-130330303D01*
X133573630Y-130723629D01*
X134086900Y-130936757D01*
X134642661Y-130937242D01*
X135156303Y-130725010D01*
X135549629Y-130332370D01*
X135635949Y-130124488D01*
X135720990Y-130330303D01*
X136113630Y-130723629D01*
X136626900Y-130936757D01*
X137182661Y-130937242D01*
X137696303Y-130725010D01*
X138089629Y-130332370D01*
X138175949Y-130124488D01*
X138260990Y-130330303D01*
X138653630Y-130723629D01*
X139166900Y-130936757D01*
X139722661Y-130937242D01*
X140236303Y-130725010D01*
X140629629Y-130332370D01*
X140842757Y-129819100D01*
X140843242Y-129263339D01*
X140631010Y-128749697D01*
X140238370Y-128356371D01*
X139725100Y-128143243D01*
X139169339Y-128142758D01*
X138655697Y-128354990D01*
X138262371Y-128747630D01*
X138176051Y-128955512D01*
X138091010Y-128749697D01*
X137698370Y-128356371D01*
X137185100Y-128143243D01*
X136629339Y-128142758D01*
X136115697Y-128354990D01*
X135722371Y-128747630D01*
X135636051Y-128955512D01*
X135551010Y-128749697D01*
X135158370Y-128356371D01*
X134645100Y-128143243D01*
X134089339Y-128142758D01*
X133575697Y-128354990D01*
X133182371Y-128747630D01*
X133096051Y-128955512D01*
X133011010Y-128749697D01*
X132836000Y-128574381D01*
X132836000Y-125575000D01*
X148373000Y-125575000D01*
X148373000Y-130575000D01*
X148381685Y-130621159D01*
X148408965Y-130663553D01*
X148450590Y-130691994D01*
X148500000Y-130702000D01*
X153500000Y-130702000D01*
X153546159Y-130693315D01*
X153588553Y-130666035D01*
X153616994Y-130624410D01*
X153627000Y-130575000D01*
X153627000Y-125575000D01*
X164373000Y-125575000D01*
X164373000Y-130575000D01*
X164381685Y-130621159D01*
X164408965Y-130663553D01*
X164450590Y-130691994D01*
X164500000Y-130702000D01*
X169500000Y-130702000D01*
X169546159Y-130693315D01*
X169588553Y-130666035D01*
X169616994Y-130624410D01*
X169627000Y-130575000D01*
X169627000Y-125575000D01*
X169618315Y-125528841D01*
X169591035Y-125486447D01*
X169549410Y-125458006D01*
X169500000Y-125448000D01*
X164500000Y-125448000D01*
X164453841Y-125456685D01*
X164411447Y-125483965D01*
X164383006Y-125525590D01*
X164373000Y-125575000D01*
X153627000Y-125575000D01*
X153618315Y-125528841D01*
X153591035Y-125486447D01*
X153549410Y-125458006D01*
X153500000Y-125448000D01*
X148500000Y-125448000D01*
X148453841Y-125456685D01*
X148411447Y-125483965D01*
X148383006Y-125525590D01*
X148373000Y-125575000D01*
X132836000Y-125575000D01*
X132836000Y-122592356D01*
X133514356Y-121914000D01*
X177625640Y-121914000D01*
X179560000Y-123848360D01*
X179560000Y-128694304D01*
X179386371Y-128867630D01*
X179300051Y-129075512D01*
X179215010Y-128869697D01*
X178822370Y-128476371D01*
X178309100Y-128263243D01*
X177753339Y-128262758D01*
X177239697Y-128474990D01*
X176846371Y-128867630D01*
X176760051Y-129075512D01*
X176675010Y-128869697D01*
X176282370Y-128476371D01*
X175769100Y-128263243D01*
X175213339Y-128262758D01*
X174699697Y-128474990D01*
X174306371Y-128867630D01*
X174220051Y-129075512D01*
X174135010Y-128869697D01*
X173742370Y-128476371D01*
X173229100Y-128263243D01*
X172673339Y-128262758D01*
X172159697Y-128474990D01*
X171766371Y-128867630D01*
X171553243Y-129380900D01*
X171552758Y-129936661D01*
X171764990Y-130450303D01*
X172157630Y-130843629D01*
X172670900Y-131056757D01*
X173226661Y-131057242D01*
X173740303Y-130845010D01*
X174133629Y-130452370D01*
X174219949Y-130244488D01*
X174304990Y-130450303D01*
X174697630Y-130843629D01*
X175210900Y-131056757D01*
X175766661Y-131057242D01*
X176280303Y-130845010D01*
X176673629Y-130452370D01*
X176759949Y-130244488D01*
X176844990Y-130450303D01*
X177237630Y-130843629D01*
X177750900Y-131056757D01*
X178306661Y-131057242D01*
X178820303Y-130845010D01*
X179213629Y-130452370D01*
X179299949Y-130244488D01*
X179384990Y-130450303D01*
X179777630Y-130843629D01*
X180290900Y-131056757D01*
X180846661Y-131057242D01*
X181360303Y-130845010D01*
X181753629Y-130452370D01*
X181839949Y-130244488D01*
X181924990Y-130450303D01*
X182317630Y-130843629D01*
X182830900Y-131056757D01*
X183386661Y-131057242D01*
X183900303Y-130845010D01*
X184293629Y-130452370D01*
X184379949Y-130244488D01*
X184464990Y-130450303D01*
X184857630Y-130843629D01*
X185370900Y-131056757D01*
X185926661Y-131057242D01*
X186440303Y-130845010D01*
X186833629Y-130452370D01*
X186919949Y-130244488D01*
X187004990Y-130450303D01*
X187397630Y-130843629D01*
X187910900Y-131056757D01*
X188466661Y-131057242D01*
X188980303Y-130845010D01*
X189373629Y-130452370D01*
X189459949Y-130244488D01*
X189544990Y-130450303D01*
X189937630Y-130843629D01*
X190450900Y-131056757D01*
X191006661Y-131057242D01*
X191520303Y-130845010D01*
X191913629Y-130452370D01*
X191999949Y-130244488D01*
X192084990Y-130450303D01*
X192477630Y-130843629D01*
X192990900Y-131056757D01*
X193546661Y-131057242D01*
X194060303Y-130845010D01*
X194453629Y-130452370D01*
X194539949Y-130244488D01*
X194624990Y-130450303D01*
X195017630Y-130843629D01*
X195530900Y-131056757D01*
X196086661Y-131057242D01*
X196600303Y-130845010D01*
X196993629Y-130452370D01*
X197079949Y-130244488D01*
X197164990Y-130450303D01*
X197557630Y-130843629D01*
X198070900Y-131056757D01*
X198626661Y-131057242D01*
X199140303Y-130845010D01*
X199533629Y-130452370D01*
X199619949Y-130244488D01*
X199704990Y-130450303D01*
X200097630Y-130843629D01*
X200610900Y-131056757D01*
X201166661Y-131057242D01*
X201680303Y-130845010D01*
X201885457Y-130640213D01*
X202629392Y-130640213D01*
X202698857Y-130882397D01*
X203222302Y-131069144D01*
X203777368Y-131041362D01*
X204161143Y-130882397D01*
X204230608Y-130640213D01*
X203430000Y-129839605D01*
X202629392Y-130640213D01*
X201885457Y-130640213D01*
X202073629Y-130452370D01*
X202153395Y-130260273D01*
X202207603Y-130391143D01*
X202449787Y-130460608D01*
X203250395Y-129660000D01*
X202449787Y-128859392D01*
X202207603Y-128928857D01*
X202157491Y-129069318D01*
X202075010Y-128869697D01*
X201900000Y-128694381D01*
X201900000Y-128679787D01*
X202629392Y-128679787D01*
X203430000Y-129480395D01*
X204230608Y-128679787D01*
X204161143Y-128437603D01*
X203637698Y-128250856D01*
X203082632Y-128278638D01*
X202698857Y-128437603D01*
X202629392Y-128679787D01*
X201900000Y-128679787D01*
X201900000Y-126828356D01*
X209714178Y-119014178D01*
X209933118Y-118686510D01*
X210010000Y-118300000D01*
X210010000Y-107500005D01*
X210010001Y-107500000D01*
X209933118Y-107113490D01*
X209714178Y-106785822D01*
X208714178Y-105785822D01*
X208522878Y-105658000D01*
X209296000Y-105658000D01*
X209682510Y-105581118D01*
X210010178Y-105362178D01*
X211328000Y-104044356D01*
X212790000Y-105506356D01*
X212790000Y-117903636D01*
X212740000Y-118155002D01*
X212790000Y-118406368D01*
X212790000Y-120501644D01*
X207795822Y-125495822D01*
X207576882Y-125823490D01*
X207500000Y-126210000D01*
X207500000Y-128694304D01*
X207326371Y-128867630D01*
X207240051Y-129075512D01*
X207155010Y-128869697D01*
X206762370Y-128476371D01*
X206249100Y-128263243D01*
X205693339Y-128262758D01*
X205179697Y-128474990D01*
X204786371Y-128867630D01*
X204706605Y-129059727D01*
X204652397Y-128928857D01*
X204410213Y-128859392D01*
X203609605Y-129660000D01*
X204410213Y-130460608D01*
X204652397Y-130391143D01*
X204702509Y-130250682D01*
X204784990Y-130450303D01*
X205177630Y-130843629D01*
X205690900Y-131056757D01*
X206246661Y-131057242D01*
X206760303Y-130845010D01*
X207153629Y-130452370D01*
X207239949Y-130244488D01*
X207324990Y-130450303D01*
X207717630Y-130843629D01*
X208230900Y-131056757D01*
X208786661Y-131057242D01*
X209300303Y-130845010D01*
X209653763Y-130492167D01*
X209684838Y-130657317D01*
X209823910Y-130873441D01*
X210036110Y-131018431D01*
X210288000Y-131069440D01*
X211812000Y-131069440D01*
X212047317Y-131025162D01*
X212263441Y-130886090D01*
X212408431Y-130673890D01*
X212459440Y-130422000D01*
X212459440Y-128898000D01*
X212415162Y-128662683D01*
X212276090Y-128446559D01*
X212063890Y-128301569D01*
X211812000Y-128250560D01*
X210288000Y-128250560D01*
X210052683Y-128294838D01*
X209836559Y-128433910D01*
X209691569Y-128646110D01*
X209654508Y-128829124D01*
X209520000Y-128694381D01*
X209520000Y-126628356D01*
X214423769Y-121724587D01*
X214514178Y-121664178D01*
X214733118Y-121336510D01*
X214810000Y-120950000D01*
X214810000Y-105088000D01*
X214733118Y-104701490D01*
X214514178Y-104373822D01*
X212338000Y-102197644D01*
X212338000Y-97572000D01*
X213215173Y-97572000D01*
X213324406Y-98121151D01*
X213635475Y-98586698D01*
X214101022Y-98897767D01*
X214650173Y-99007000D01*
X216133827Y-99007000D01*
X216682978Y-98897767D01*
X217148525Y-98586698D01*
X217459594Y-98121151D01*
X217568827Y-97572000D01*
X217459594Y-97022849D01*
X217148525Y-96557302D01*
X216682978Y-96246233D01*
X216578773Y-96225505D01*
X216776759Y-95748702D01*
X216777240Y-95197715D01*
X216566831Y-94688485D01*
X216350687Y-94471964D01*
X216565461Y-94257564D01*
X216776759Y-93748702D01*
X216777240Y-93197715D01*
X216566831Y-92688485D01*
X216177564Y-92298539D01*
X215940494Y-92200099D01*
X215392000Y-91651605D01*
X214843572Y-92200033D01*
X214608485Y-92297169D01*
X214218539Y-92686436D01*
X214007241Y-93195298D01*
X214006760Y-93746285D01*
X214217169Y-94255515D01*
X214433313Y-94472036D01*
X214218539Y-94686436D01*
X214007241Y-95195298D01*
X214006760Y-95746285D01*
X214204804Y-96225589D01*
X214101022Y-96246233D01*
X213635475Y-96557302D01*
X213324406Y-97022849D01*
X213215173Y-97572000D01*
X212338000Y-97572000D01*
X212338000Y-94578000D01*
X212261118Y-94191490D01*
X212042178Y-93863822D01*
X208968000Y-90789644D01*
X208968000Y-89975558D01*
X209193317Y-89933162D01*
X209409441Y-89794090D01*
X209554431Y-89581890D01*
X209596934Y-89372000D01*
X213215173Y-89372000D01*
X213324406Y-89921151D01*
X213635475Y-90386698D01*
X214101022Y-90697767D01*
X214251651Y-90727729D01*
X214179540Y-90748077D01*
X213994799Y-91267171D01*
X214022770Y-91817448D01*
X214179540Y-92195923D01*
X214420483Y-92263912D01*
X215212395Y-91472000D01*
X215198253Y-91457858D01*
X215377858Y-91278253D01*
X215392000Y-91292395D01*
X215406143Y-91278253D01*
X215585748Y-91457858D01*
X215571605Y-91472000D01*
X216363517Y-92263912D01*
X216604460Y-92195923D01*
X216789201Y-91676829D01*
X216761230Y-91126552D01*
X216604460Y-90748077D01*
X216532349Y-90727729D01*
X216682978Y-90697767D01*
X217148525Y-90386698D01*
X217459594Y-89921151D01*
X217568827Y-89372000D01*
X217459594Y-88822849D01*
X217148525Y-88357302D01*
X216682978Y-88046233D01*
X216133827Y-87937000D01*
X214650173Y-87937000D01*
X214101022Y-88046233D01*
X213635475Y-88357302D01*
X213324406Y-88822849D01*
X213215173Y-89372000D01*
X209596934Y-89372000D01*
X209605440Y-89330000D01*
X209605440Y-87330000D01*
X209561162Y-87094683D01*
X209422090Y-86878559D01*
X209209890Y-86733569D01*
X208958000Y-86682560D01*
X207738916Y-86682560D01*
X206496000Y-85439644D01*
X206496000Y-83449926D01*
X206521317Y-83445162D01*
X206737441Y-83306090D01*
X206882431Y-83093890D01*
X206933440Y-82842000D01*
X206933440Y-82290000D01*
X210159650Y-82290000D01*
X210194630Y-82374658D01*
X210738479Y-82919457D01*
X211449416Y-83214663D01*
X212219207Y-83215335D01*
X212930658Y-82921370D01*
X213475457Y-82377521D01*
X213770663Y-81666584D01*
X213771335Y-80896793D01*
X213477370Y-80185342D01*
X212933521Y-79640543D01*
X212222584Y-79345337D01*
X211452793Y-79344665D01*
X210741342Y-79638630D01*
X210196543Y-80182479D01*
X210160201Y-80270000D01*
X206248000Y-80270000D01*
X205861490Y-80346882D01*
X205533822Y-80565822D01*
X205505084Y-80594560D01*
X204686000Y-80594560D01*
X204450683Y-80638838D01*
X204234559Y-80777910D01*
X204089569Y-80990110D01*
X204041354Y-81228201D01*
X203993745Y-81213861D01*
X203165605Y-82042000D01*
X203993745Y-82870139D01*
X204041167Y-82855855D01*
X204082838Y-83077317D01*
X204221910Y-83293441D01*
X204434110Y-83438431D01*
X204476000Y-83446914D01*
X204476000Y-85858000D01*
X204552882Y-86244510D01*
X204771822Y-86572178D01*
X206310560Y-88110916D01*
X206310560Y-89330000D01*
X206354838Y-89565317D01*
X206493910Y-89781441D01*
X206706110Y-89926431D01*
X206948000Y-89975415D01*
X206948000Y-91208000D01*
X207024882Y-91594510D01*
X207243822Y-91922178D01*
X210318000Y-94996356D01*
X210318000Y-102197644D01*
X208877644Y-103638000D01*
X206158356Y-103638000D01*
X203930791Y-101410435D01*
X206367867Y-101410435D01*
X206634495Y-101989994D01*
X207102615Y-102423402D01*
X207577566Y-102620124D01*
X207831000Y-102500777D01*
X207831000Y-101157000D01*
X208085000Y-101157000D01*
X208085000Y-102500777D01*
X208338434Y-102620124D01*
X208813385Y-102423402D01*
X209281505Y-101989994D01*
X209548133Y-101410435D01*
X209429319Y-101157000D01*
X208085000Y-101157000D01*
X207831000Y-101157000D01*
X206486681Y-101157000D01*
X206367867Y-101410435D01*
X203930791Y-101410435D01*
X203169921Y-100649565D01*
X206367867Y-100649565D01*
X206486681Y-100903000D01*
X207831000Y-100903000D01*
X207831000Y-99559223D01*
X208085000Y-99559223D01*
X208085000Y-100903000D01*
X209429319Y-100903000D01*
X209548133Y-100649565D01*
X209281505Y-100070006D01*
X208813385Y-99636598D01*
X208338434Y-99439876D01*
X208085000Y-99559223D01*
X207831000Y-99559223D01*
X207577566Y-99439876D01*
X207102615Y-99636598D01*
X206634495Y-100070006D01*
X206367867Y-100649565D01*
X203169921Y-100649565D01*
X201476178Y-98955822D01*
X201148510Y-98736882D01*
X200762000Y-98660000D01*
X199962870Y-98660000D01*
X199791236Y-98488066D01*
X199278700Y-98275242D01*
X198723735Y-98274758D01*
X198210828Y-98486687D01*
X198037212Y-98660000D01*
X173488356Y-98660000D01*
X173325000Y-98496644D01*
X173325000Y-98054050D01*
X173215767Y-97504899D01*
X172904698Y-97039352D01*
X172900000Y-97036213D01*
X172900000Y-96585000D01*
X172823118Y-96198490D01*
X172604178Y-95870822D01*
X171969178Y-95235822D01*
X171698558Y-95055000D01*
X175916644Y-95055000D01*
X178795822Y-97934178D01*
X179123490Y-98153118D01*
X179510000Y-98230000D01*
X198560000Y-98230000D01*
X198946510Y-98153118D01*
X199274178Y-97934178D01*
X201193274Y-96015082D01*
X201364383Y-96015231D01*
X201855229Y-95812418D01*
X202231098Y-95437204D01*
X202434768Y-94946713D01*
X202435231Y-94415617D01*
X202232418Y-93924771D01*
X201857204Y-93548902D01*
X201366713Y-93345232D01*
X200835617Y-93344769D01*
X200344771Y-93547582D01*
X199968902Y-93922796D01*
X199765232Y-94413287D01*
X199765081Y-94586563D01*
X198141644Y-96210000D01*
X179928356Y-96210000D01*
X179326101Y-95607745D01*
X195191861Y-95607745D01*
X195265995Y-95853864D01*
X195803223Y-96046965D01*
X196373454Y-96019778D01*
X196774005Y-95853864D01*
X196848139Y-95607745D01*
X196020000Y-94779605D01*
X195191861Y-95607745D01*
X179326101Y-95607745D01*
X177392739Y-93674383D01*
X181984769Y-93674383D01*
X182187582Y-94165229D01*
X182562796Y-94541098D01*
X183053287Y-94744768D01*
X183584383Y-94745231D01*
X184075229Y-94542418D01*
X184234701Y-94383223D01*
X194573035Y-94383223D01*
X194600222Y-94953454D01*
X194766136Y-95354005D01*
X195012255Y-95428139D01*
X195840395Y-94600000D01*
X196199605Y-94600000D01*
X197027745Y-95428139D01*
X197273864Y-95354005D01*
X197466965Y-94816777D01*
X197439778Y-94246546D01*
X197273864Y-93845995D01*
X197027745Y-93771861D01*
X196199605Y-94600000D01*
X195840395Y-94600000D01*
X195012255Y-93771861D01*
X194766136Y-93845995D01*
X194573035Y-94383223D01*
X184234701Y-94383223D01*
X184451098Y-94167204D01*
X184654768Y-93676713D01*
X184654841Y-93592255D01*
X195191861Y-93592255D01*
X196020000Y-94420395D01*
X196848139Y-93592255D01*
X196774005Y-93346136D01*
X196236777Y-93153035D01*
X195666546Y-93180222D01*
X195265995Y-93346136D01*
X195191861Y-93592255D01*
X184654841Y-93592255D01*
X184655231Y-93145617D01*
X184452418Y-92654771D01*
X184330000Y-92532139D01*
X184330000Y-90690000D01*
X185296560Y-90690000D01*
X185296560Y-92190000D01*
X185340838Y-92425317D01*
X185479910Y-92641441D01*
X185692110Y-92786431D01*
X185944000Y-92837440D01*
X187944000Y-92837440D01*
X188179317Y-92793162D01*
X188395441Y-92654090D01*
X188540431Y-92441890D01*
X188591440Y-92190000D01*
X188591440Y-91781185D01*
X190431682Y-91781185D01*
X190450519Y-91884235D01*
X190721264Y-92356894D01*
X191152279Y-92689964D01*
X191677945Y-92832739D01*
X191897000Y-92671868D01*
X191897000Y-91567000D01*
X192151000Y-91567000D01*
X192151000Y-92671868D01*
X192370055Y-92832739D01*
X192895721Y-92689964D01*
X193326736Y-92356894D01*
X193597481Y-91884235D01*
X193616318Y-91781185D01*
X193493656Y-91567000D01*
X192151000Y-91567000D01*
X191897000Y-91567000D01*
X190554344Y-91567000D01*
X190431682Y-91781185D01*
X188591440Y-91781185D01*
X188591440Y-91098815D01*
X190431682Y-91098815D01*
X190554344Y-91313000D01*
X191897000Y-91313000D01*
X191897000Y-90208132D01*
X192151000Y-90208132D01*
X192151000Y-91313000D01*
X193493656Y-91313000D01*
X193616318Y-91098815D01*
X193597481Y-90995765D01*
X193326736Y-90523106D01*
X192895721Y-90190036D01*
X192370055Y-90047261D01*
X192151000Y-90208132D01*
X191897000Y-90208132D01*
X191677945Y-90047261D01*
X191152279Y-90190036D01*
X190721264Y-90523106D01*
X190450519Y-90995765D01*
X190431682Y-91098815D01*
X188591440Y-91098815D01*
X188591440Y-90690000D01*
X188547162Y-90454683D01*
X188408090Y-90238559D01*
X188195890Y-90093569D01*
X187944000Y-90042560D01*
X185944000Y-90042560D01*
X185708683Y-90086838D01*
X185492559Y-90225910D01*
X185347569Y-90438110D01*
X185296560Y-90690000D01*
X184330000Y-90690000D01*
X184330000Y-90402356D01*
X184822355Y-89910000D01*
X188336694Y-89910000D01*
X188504657Y-90161375D01*
X188953983Y-90461605D01*
X189484000Y-90567032D01*
X190014017Y-90461605D01*
X190463343Y-90161375D01*
X190648554Y-89884187D01*
X194584752Y-89884187D01*
X194802757Y-90411800D01*
X195206077Y-90815824D01*
X195733309Y-91034750D01*
X196304187Y-91035248D01*
X196831800Y-90817243D01*
X197039405Y-90610000D01*
X198560000Y-90610000D01*
X198946510Y-90533118D01*
X199274178Y-90314178D01*
X201183889Y-88404467D01*
X201610882Y-88319533D01*
X202043988Y-88030142D01*
X202333379Y-87597036D01*
X202435000Y-87086154D01*
X202435000Y-87033846D01*
X202333379Y-86522964D01*
X202043988Y-86089858D01*
X201610882Y-85800467D01*
X201100000Y-85698846D01*
X200589118Y-85800467D01*
X200156012Y-86089858D01*
X199866621Y-86522964D01*
X199781687Y-86949957D01*
X198141644Y-88590000D01*
X197039388Y-88590000D01*
X196833923Y-88384176D01*
X196306691Y-88165250D01*
X195735813Y-88164752D01*
X195208200Y-88382757D01*
X194804176Y-88786077D01*
X194585250Y-89313309D01*
X194584752Y-89884187D01*
X190648554Y-89884187D01*
X190763573Y-89712049D01*
X190869000Y-89182032D01*
X190869000Y-88617968D01*
X190763573Y-88087951D01*
X190463343Y-87638625D01*
X190014017Y-87338395D01*
X189484000Y-87232968D01*
X188953983Y-87338395D01*
X188716000Y-87497410D01*
X188716000Y-85714091D01*
X188837098Y-85593204D01*
X189013106Y-85169329D01*
X194033284Y-85169329D01*
X194176203Y-85514396D01*
X194523337Y-85902764D01*
X194992669Y-86128727D01*
X195199000Y-86006206D01*
X195199000Y-84963000D01*
X195453000Y-84963000D01*
X195453000Y-86006206D01*
X195659331Y-86128727D01*
X196128663Y-85902764D01*
X196475797Y-85514396D01*
X196618716Y-85169329D01*
X196495374Y-84963000D01*
X195453000Y-84963000D01*
X195199000Y-84963000D01*
X194156626Y-84963000D01*
X194033284Y-85169329D01*
X189013106Y-85169329D01*
X189040768Y-85102713D01*
X189041231Y-84571617D01*
X189012744Y-84502671D01*
X194033284Y-84502671D01*
X194156626Y-84709000D01*
X195199000Y-84709000D01*
X195199000Y-83665794D01*
X195453000Y-83665794D01*
X195453000Y-84709000D01*
X196495374Y-84709000D01*
X196618716Y-84502671D01*
X196475797Y-84157604D01*
X196128663Y-83769236D01*
X195659331Y-83543273D01*
X195453000Y-83665794D01*
X195199000Y-83665794D01*
X194992669Y-83543273D01*
X194523337Y-83769236D01*
X194176203Y-84157604D01*
X194033284Y-84502671D01*
X189012744Y-84502671D01*
X188838418Y-84080771D01*
X188463204Y-83704902D01*
X187972713Y-83501232D01*
X187441617Y-83500769D01*
X186950771Y-83703582D01*
X186574902Y-84078796D01*
X186371232Y-84569287D01*
X186370769Y-85100383D01*
X186573582Y-85591229D01*
X186696000Y-85713861D01*
X186696000Y-87890000D01*
X184404005Y-87890000D01*
X184404000Y-87889999D01*
X184017490Y-87966882D01*
X183689822Y-88185822D01*
X183689820Y-88185825D01*
X182605822Y-89269822D01*
X182386882Y-89597490D01*
X182310000Y-89984000D01*
X182310000Y-92531909D01*
X182188902Y-92652796D01*
X181985232Y-93143287D01*
X181984769Y-93674383D01*
X177392739Y-93674383D01*
X177049178Y-93330822D01*
X176721510Y-93111882D01*
X176335000Y-93035000D01*
X160243356Y-93035000D01*
X158205356Y-90997000D01*
X162835000Y-90997000D01*
X162835000Y-91397000D01*
X162992834Y-91936483D01*
X163345104Y-92374500D01*
X163838181Y-92644367D01*
X163920961Y-92661904D01*
X164143000Y-92539915D01*
X164143000Y-90997000D01*
X162835000Y-90997000D01*
X158205356Y-90997000D01*
X157551356Y-90343000D01*
X162835000Y-90343000D01*
X162835000Y-90743000D01*
X164143000Y-90743000D01*
X164143000Y-89200085D01*
X163920961Y-89078096D01*
X163838181Y-89095633D01*
X163345104Y-89365500D01*
X162992834Y-89803517D01*
X162835000Y-90343000D01*
X157551356Y-90343000D01*
X154922440Y-87714084D01*
X154922440Y-86495000D01*
X154878162Y-86259683D01*
X154769151Y-86090275D01*
X163514331Y-86090275D01*
X163576169Y-86326042D01*
X164077122Y-86502419D01*
X164607440Y-86473664D01*
X164963831Y-86326042D01*
X165025669Y-86090275D01*
X164270000Y-85334605D01*
X163514331Y-86090275D01*
X154769151Y-86090275D01*
X154739090Y-86043559D01*
X154526890Y-85898569D01*
X154275000Y-85847560D01*
X152675000Y-85847560D01*
X152439683Y-85891838D01*
X152223559Y-86030910D01*
X152078569Y-86243110D01*
X152048403Y-86392074D01*
X151949698Y-86244352D01*
X151484151Y-85933283D01*
X150935000Y-85824050D01*
X150385849Y-85933283D01*
X149920302Y-86244352D01*
X149665000Y-86626438D01*
X149409698Y-86244352D01*
X149405000Y-86241213D01*
X149405000Y-85155000D01*
X149366634Y-84962122D01*
X162922581Y-84962122D01*
X162951336Y-85492440D01*
X163098958Y-85848831D01*
X163334725Y-85910669D01*
X164090395Y-85155000D01*
X164449605Y-85155000D01*
X165205275Y-85910669D01*
X165441042Y-85848831D01*
X165617419Y-85347878D01*
X165588664Y-84817560D01*
X165441042Y-84461169D01*
X165205275Y-84399331D01*
X164449605Y-85155000D01*
X164090395Y-85155000D01*
X163334725Y-84399331D01*
X163098958Y-84461169D01*
X162922581Y-84962122D01*
X149366634Y-84962122D01*
X149328118Y-84768490D01*
X149109178Y-84440822D01*
X148888081Y-84219725D01*
X163514331Y-84219725D01*
X164270000Y-84975395D01*
X165025669Y-84219725D01*
X164963831Y-83983958D01*
X164462878Y-83807581D01*
X163932560Y-83836336D01*
X163576169Y-83983958D01*
X163514331Y-84219725D01*
X148888081Y-84219725D01*
X148474178Y-83805822D01*
X148146510Y-83586882D01*
X147760000Y-83510000D01*
X141410000Y-83510000D01*
X141023490Y-83586882D01*
X140695822Y-83805822D01*
X140060822Y-84440822D01*
X139841882Y-84768490D01*
X139765000Y-85155000D01*
X139765000Y-86241213D01*
X139760302Y-86244352D01*
X139507493Y-86622707D01*
X139159896Y-86190500D01*
X138666819Y-85920633D01*
X138584039Y-85903096D01*
X138362000Y-86025085D01*
X138362000Y-87568000D01*
X138382000Y-87568000D01*
X138382000Y-87822000D01*
X138362000Y-87822000D01*
X138362000Y-89364915D01*
X138584039Y-89486904D01*
X138666819Y-89469367D01*
X139159896Y-89199500D01*
X139507493Y-88767293D01*
X139760302Y-89145648D01*
X140225849Y-89456717D01*
X140775000Y-89565950D01*
X141324151Y-89456717D01*
X141789698Y-89145648D01*
X142045000Y-88763562D01*
X142300302Y-89145648D01*
X142765849Y-89456717D01*
X143315000Y-89565950D01*
X143864151Y-89456717D01*
X144329698Y-89145648D01*
X144585000Y-88763562D01*
X144840302Y-89145648D01*
X144845000Y-89148787D01*
X144845000Y-90254998D01*
X144892740Y-90495000D01*
X137363358Y-90495000D01*
X136449447Y-89581089D01*
X136409178Y-89520822D01*
X136081510Y-89301882D01*
X135695000Y-89225000D01*
X130990000Y-89225000D01*
X130990000Y-88832000D01*
X130973689Y-88750000D01*
X130913118Y-88445489D01*
X130694178Y-88117822D01*
X130398356Y-87822000D01*
X136800000Y-87822000D01*
X136800000Y-88222000D01*
X136957834Y-88761483D01*
X137310104Y-89199500D01*
X137803181Y-89469367D01*
X137885961Y-89486904D01*
X138108000Y-89364915D01*
X138108000Y-87822000D01*
X136800000Y-87822000D01*
X130398356Y-87822000D01*
X129744356Y-87168000D01*
X136800000Y-87168000D01*
X136800000Y-87568000D01*
X138108000Y-87568000D01*
X138108000Y-86025085D01*
X137885961Y-85903096D01*
X137803181Y-85920633D01*
X137310104Y-86190500D01*
X136957834Y-86628517D01*
X136800000Y-87168000D01*
X129744356Y-87168000D01*
X127714178Y-85137822D01*
X127386510Y-84918882D01*
X127000000Y-84842000D01*
X118274356Y-84842000D01*
X116538178Y-83105822D01*
X116210510Y-82886882D01*
X115824000Y-82810000D01*
X106172000Y-82810000D01*
X105785490Y-82886882D01*
X105457822Y-83105822D01*
X103171822Y-85391822D01*
X102952882Y-85719490D01*
X102876000Y-86106000D01*
X102876000Y-128574304D01*
X102742237Y-128707833D01*
X102711162Y-128542683D01*
X102572090Y-128326559D01*
X102359890Y-128181569D01*
X102108000Y-128130560D01*
X100584000Y-128130560D01*
X100348683Y-128174838D01*
X100132559Y-128313910D01*
X100127000Y-128322046D01*
X100127000Y-81460000D01*
X105000000Y-81460000D01*
X105271705Y-81405954D01*
X105502046Y-81252046D01*
X105655954Y-81021705D01*
X105710000Y-80750000D01*
X105710000Y-79323991D01*
X113314735Y-79323991D01*
X113547932Y-79888371D01*
X113979357Y-80320551D01*
X114543330Y-80554733D01*
X115153991Y-80555265D01*
X115628536Y-80359187D01*
X117114752Y-80359187D01*
X117332757Y-80886800D01*
X117540000Y-81094405D01*
X117540000Y-81980000D01*
X117616882Y-82366510D01*
X117835822Y-82694178D01*
X118470822Y-83329178D01*
X118798490Y-83548118D01*
X119185000Y-83625000D01*
X128291644Y-83625000D01*
X128725830Y-84059186D01*
X128645232Y-84253287D01*
X128644769Y-84784383D01*
X128847582Y-85275229D01*
X129222796Y-85651098D01*
X129713287Y-85854768D01*
X130244383Y-85855231D01*
X130735229Y-85652418D01*
X130857861Y-85530000D01*
X132911909Y-85530000D01*
X133032796Y-85651098D01*
X133523287Y-85854768D01*
X134054383Y-85855231D01*
X134545229Y-85652418D01*
X134921098Y-85277204D01*
X135124768Y-84786713D01*
X135125231Y-84255617D01*
X134922418Y-83764771D01*
X134547204Y-83388902D01*
X134056713Y-83185232D01*
X133525617Y-83184769D01*
X133034771Y-83387582D01*
X132912139Y-83510000D01*
X130915407Y-83510000D01*
X130913118Y-83498490D01*
X130694178Y-83170822D01*
X129424178Y-81900822D01*
X129096510Y-81681882D01*
X128710000Y-81605000D01*
X124220890Y-81605000D01*
X124226431Y-81596890D01*
X124277440Y-81345000D01*
X124277440Y-80075000D01*
X133117679Y-80075000D01*
X133262688Y-80804012D01*
X133675641Y-81422038D01*
X134293667Y-81834991D01*
X135022679Y-81980000D01*
X135097321Y-81980000D01*
X135826333Y-81834991D01*
X136444359Y-81422038D01*
X136669561Y-81085000D01*
X138349560Y-81085000D01*
X138349560Y-81218000D01*
X138393838Y-81453317D01*
X138532910Y-81669441D01*
X138745110Y-81814431D01*
X138997000Y-81865440D01*
X141283000Y-81865440D01*
X141518317Y-81821162D01*
X141734441Y-81682090D01*
X141879431Y-81469890D01*
X141930440Y-81218000D01*
X141930440Y-80075000D01*
X151027167Y-80075000D01*
X151162509Y-80755411D01*
X151547931Y-81332236D01*
X152124756Y-81717658D01*
X152805167Y-81853000D01*
X152874833Y-81853000D01*
X153555244Y-81717658D01*
X154132069Y-81332236D01*
X154297267Y-81085000D01*
X157048652Y-81085000D01*
X157382964Y-81308379D01*
X157893846Y-81410000D01*
X157946154Y-81410000D01*
X158457036Y-81308379D01*
X158890142Y-81018988D01*
X159179533Y-80585882D01*
X159228564Y-80339383D01*
X164204769Y-80339383D01*
X164407582Y-80830229D01*
X164530000Y-80952861D01*
X164530000Y-81980000D01*
X164606882Y-82366510D01*
X164825822Y-82694178D01*
X166969144Y-84837500D01*
X166095822Y-85710822D01*
X165876882Y-86038490D01*
X165800000Y-86425000D01*
X165800000Y-89416213D01*
X165795302Y-89419352D01*
X165542493Y-89797707D01*
X165194896Y-89365500D01*
X164701819Y-89095633D01*
X164619039Y-89078096D01*
X164397000Y-89200085D01*
X164397000Y-90743000D01*
X164417000Y-90743000D01*
X164417000Y-90997000D01*
X164397000Y-90997000D01*
X164397000Y-92539915D01*
X164619039Y-92661904D01*
X164701819Y-92644367D01*
X165194896Y-92374500D01*
X165542493Y-91942293D01*
X165795302Y-92320648D01*
X166260849Y-92631717D01*
X166810000Y-92740950D01*
X167359151Y-92631717D01*
X167824698Y-92320648D01*
X168080000Y-91938562D01*
X168335302Y-92320648D01*
X168800849Y-92631717D01*
X169350000Y-92740950D01*
X169899151Y-92631717D01*
X170364698Y-92320648D01*
X170462251Y-92174650D01*
X170486838Y-92305317D01*
X170625910Y-92521441D01*
X170838110Y-92666431D01*
X171090000Y-92717440D01*
X172690000Y-92717440D01*
X172925317Y-92673162D01*
X173141441Y-92534090D01*
X173286431Y-92321890D01*
X173337440Y-92070000D01*
X173337440Y-89670000D01*
X173293162Y-89434683D01*
X173154090Y-89218559D01*
X172941890Y-89073569D01*
X172690000Y-89022560D01*
X171090000Y-89022560D01*
X170854683Y-89066838D01*
X170638559Y-89205910D01*
X170493569Y-89418110D01*
X170463403Y-89567074D01*
X170364698Y-89419352D01*
X169899151Y-89108283D01*
X169350000Y-88999050D01*
X168800849Y-89108283D01*
X168335302Y-89419352D01*
X168080000Y-89801438D01*
X167824698Y-89419352D01*
X167820000Y-89416213D01*
X167820000Y-86843356D01*
X168498356Y-86165000D01*
X171018652Y-86165000D01*
X171352964Y-86388379D01*
X171863846Y-86490000D01*
X171916154Y-86490000D01*
X172427036Y-86388379D01*
X172860142Y-86098988D01*
X173149533Y-85665882D01*
X173251154Y-85155000D01*
X173149533Y-84644118D01*
X172860142Y-84211012D01*
X172427036Y-83921621D01*
X171916154Y-83820000D01*
X171863846Y-83820000D01*
X171352964Y-83921621D01*
X171018652Y-84145000D01*
X169133356Y-84145000D01*
X166550000Y-81561644D01*
X166550000Y-80953091D01*
X166671098Y-80832204D01*
X166874768Y-80341713D01*
X166875231Y-79810617D01*
X166672418Y-79319771D01*
X166297204Y-78943902D01*
X165806713Y-78740232D01*
X165275617Y-78739769D01*
X164784771Y-78942582D01*
X164408902Y-79317796D01*
X164205232Y-79808287D01*
X164204769Y-80339383D01*
X159228564Y-80339383D01*
X159281154Y-80075000D01*
X159179533Y-79564118D01*
X158930000Y-79190664D01*
X158930000Y-77420440D01*
X159063000Y-77420440D01*
X159298317Y-77376162D01*
X159514441Y-77237090D01*
X159659431Y-77024890D01*
X159710440Y-76773000D01*
X159710440Y-74487000D01*
X159666162Y-74251683D01*
X159527090Y-74035559D01*
X159314890Y-73890569D01*
X159063000Y-73839560D01*
X156777000Y-73839560D01*
X156541683Y-73883838D01*
X156325559Y-74022910D01*
X156180569Y-74235110D01*
X156129560Y-74487000D01*
X156129560Y-76773000D01*
X156173838Y-77008317D01*
X156312910Y-77224441D01*
X156525110Y-77369431D01*
X156777000Y-77420440D01*
X156910000Y-77420440D01*
X156910000Y-79065000D01*
X154297267Y-79065000D01*
X154132069Y-78817764D01*
X153555244Y-78432342D01*
X152874833Y-78297000D01*
X152805167Y-78297000D01*
X152124756Y-78432342D01*
X151547931Y-78817764D01*
X151162509Y-79394589D01*
X151027167Y-80075000D01*
X141930440Y-80075000D01*
X141930440Y-78932000D01*
X141886162Y-78696683D01*
X141747090Y-78480559D01*
X141534890Y-78335569D01*
X141283000Y-78284560D01*
X138997000Y-78284560D01*
X138761683Y-78328838D01*
X138545559Y-78467910D01*
X138400569Y-78680110D01*
X138349560Y-78932000D01*
X138349560Y-79065000D01*
X136669561Y-79065000D01*
X136444359Y-78727962D01*
X135826333Y-78315009D01*
X135097321Y-78170000D01*
X135022679Y-78170000D01*
X134293667Y-78315009D01*
X133675641Y-78727962D01*
X133262688Y-79345988D01*
X133117679Y-80075000D01*
X124277440Y-80075000D01*
X124277440Y-78805000D01*
X124233162Y-78569683D01*
X124094090Y-78353559D01*
X123881890Y-78208569D01*
X123630000Y-78157560D01*
X123370000Y-78157560D01*
X123370000Y-77227177D01*
X123744359Y-76977038D01*
X124157312Y-76359012D01*
X124302321Y-75630000D01*
X124157312Y-74900988D01*
X123795835Y-74360000D01*
X133142560Y-74360000D01*
X133142560Y-76900000D01*
X133186838Y-77135317D01*
X133325910Y-77351441D01*
X133538110Y-77496431D01*
X133790000Y-77547440D01*
X136330000Y-77547440D01*
X136565317Y-77503162D01*
X136781441Y-77364090D01*
X136926431Y-77151890D01*
X136977440Y-76900000D01*
X136977440Y-76640000D01*
X138682733Y-76640000D01*
X138847931Y-76887236D01*
X139424756Y-77272658D01*
X140105167Y-77408000D01*
X140174833Y-77408000D01*
X140855244Y-77272658D01*
X141432069Y-76887236D01*
X141817491Y-76310411D01*
X141952833Y-75630000D01*
X141817491Y-74949589D01*
X141432069Y-74372764D01*
X140855244Y-73987342D01*
X140174833Y-73852000D01*
X140105167Y-73852000D01*
X139424756Y-73987342D01*
X138847931Y-74372764D01*
X138682733Y-74620000D01*
X136977440Y-74620000D01*
X136977440Y-74360000D01*
X136933162Y-74124683D01*
X136794090Y-73908559D01*
X136581890Y-73763569D01*
X136330000Y-73712560D01*
X133790000Y-73712560D01*
X133554683Y-73756838D01*
X133338559Y-73895910D01*
X133193569Y-74108110D01*
X133142560Y-74360000D01*
X123795835Y-74360000D01*
X123744359Y-74282962D01*
X123126333Y-73870009D01*
X122397321Y-73725000D01*
X122322679Y-73725000D01*
X121593667Y-73870009D01*
X120975641Y-74282962D01*
X120562688Y-74900988D01*
X120417679Y-75630000D01*
X120562688Y-76359012D01*
X120975641Y-76977038D01*
X121350000Y-77227177D01*
X121350000Y-78157560D01*
X121090000Y-78157560D01*
X120854683Y-78201838D01*
X120638559Y-78340910D01*
X120493569Y-78553110D01*
X120442560Y-78805000D01*
X120442560Y-81345000D01*
X120486838Y-81580317D01*
X120502721Y-81605000D01*
X119603356Y-81605000D01*
X119560000Y-81561644D01*
X119560000Y-81094388D01*
X119765824Y-80888923D01*
X119984750Y-80361691D01*
X119985248Y-79790813D01*
X119767243Y-79263200D01*
X119363923Y-78859176D01*
X118836691Y-78640250D01*
X118265813Y-78639752D01*
X117738200Y-78857757D01*
X117334176Y-79261077D01*
X117115250Y-79788309D01*
X117114752Y-80359187D01*
X115628536Y-80359187D01*
X115718371Y-80322068D01*
X116150551Y-79890643D01*
X116384733Y-79326670D01*
X116385265Y-78716009D01*
X116152068Y-78151629D01*
X115974908Y-77974159D01*
X116109699Y-77918327D01*
X116288327Y-77739698D01*
X116385000Y-77506309D01*
X116385000Y-76765750D01*
X116226250Y-76607000D01*
X114977000Y-76607000D01*
X114977000Y-76627000D01*
X114723000Y-76627000D01*
X114723000Y-76607000D01*
X113473750Y-76607000D01*
X113315000Y-76765750D01*
X113315000Y-77506309D01*
X113411673Y-77739698D01*
X113590301Y-77918327D01*
X113724994Y-77974119D01*
X113549449Y-78149357D01*
X113315267Y-78713330D01*
X113314735Y-79323991D01*
X105710000Y-79323991D01*
X105710000Y-75453691D01*
X113315000Y-75453691D01*
X113315000Y-76194250D01*
X113473750Y-76353000D01*
X114723000Y-76353000D01*
X114723000Y-75103750D01*
X114977000Y-75103750D01*
X114977000Y-76353000D01*
X116226250Y-76353000D01*
X116385000Y-76194250D01*
X116385000Y-75453691D01*
X116288327Y-75220302D01*
X116109699Y-75041673D01*
X115876310Y-74945000D01*
X115135750Y-74945000D01*
X114977000Y-75103750D01*
X114723000Y-75103750D01*
X114564250Y-74945000D01*
X113823690Y-74945000D01*
X113590301Y-75041673D01*
X113411673Y-75220302D01*
X113315000Y-75453691D01*
X105710000Y-75453691D01*
X105710000Y-74750000D01*
X105655954Y-74478295D01*
X105502046Y-74247954D01*
X105338990Y-74139004D01*
X105333315Y-74108841D01*
X105306035Y-74066447D01*
X105264410Y-74038006D01*
X105215000Y-74028000D01*
X100127000Y-74028000D01*
X100127000Y-61250000D01*
X101373000Y-61250000D01*
X101373000Y-66250000D01*
X101381685Y-66296159D01*
X101408965Y-66338553D01*
X101450590Y-66366994D01*
X101500000Y-66377000D01*
X106500000Y-66377000D01*
X106546159Y-66368315D01*
X106588553Y-66341035D01*
X106616994Y-66299410D01*
X106627000Y-66250000D01*
X106627000Y-61250000D01*
X106618315Y-61203841D01*
X106591035Y-61161447D01*
X106549410Y-61133006D01*
X106500000Y-61123000D01*
X101500000Y-61123000D01*
X101453841Y-61131685D01*
X101411447Y-61158965D01*
X101383006Y-61200590D01*
X101373000Y-61250000D01*
X100127000Y-61250000D01*
X100127000Y-54750000D01*
X102422560Y-54750000D01*
X102422560Y-56750000D01*
X102466838Y-56985317D01*
X102605910Y-57201441D01*
X102818110Y-57346431D01*
X103070000Y-57397440D01*
X108070000Y-57397440D01*
X108111468Y-57389637D01*
X108150000Y-57397440D01*
X109640000Y-57397440D01*
X109640000Y-63426644D01*
X105770822Y-67295822D01*
X105551882Y-67623490D01*
X105475000Y-68010000D01*
X105475000Y-70306909D01*
X105353902Y-70427796D01*
X105150232Y-70918287D01*
X105149769Y-71449383D01*
X105352582Y-71940229D01*
X105727796Y-72316098D01*
X106218287Y-72519768D01*
X106749383Y-72520231D01*
X107240229Y-72317418D01*
X107616098Y-71942204D01*
X107819768Y-71451713D01*
X107820000Y-71185000D01*
X112743846Y-71185000D01*
X112845467Y-71695882D01*
X113134858Y-72128988D01*
X113567964Y-72418379D01*
X114078846Y-72520000D01*
X114131154Y-72520000D01*
X114642036Y-72418379D01*
X114976348Y-72195000D01*
X117540000Y-72195000D01*
X117540000Y-74055612D01*
X117334176Y-74261077D01*
X117115250Y-74788309D01*
X117114752Y-75359187D01*
X117332757Y-75886800D01*
X117736077Y-76290824D01*
X118263309Y-76509750D01*
X118834187Y-76510248D01*
X119361800Y-76292243D01*
X119765824Y-75888923D01*
X119984750Y-75361691D01*
X119985248Y-74790813D01*
X119767243Y-74263200D01*
X119560000Y-74055595D01*
X119560000Y-72069336D01*
X119809533Y-71695882D01*
X119858564Y-71449383D01*
X124834769Y-71449383D01*
X125037582Y-71940229D01*
X125412796Y-72316098D01*
X125903287Y-72519768D01*
X126434383Y-72520231D01*
X126925229Y-72317418D01*
X127047861Y-72195000D01*
X129595612Y-72195000D01*
X129801077Y-72400824D01*
X130328309Y-72619750D01*
X130899187Y-72620248D01*
X131426800Y-72402243D01*
X131634405Y-72195000D01*
X136587000Y-72195000D01*
X136973510Y-72118118D01*
X137301178Y-71899178D01*
X137778043Y-71422313D01*
X138205036Y-71337379D01*
X138638142Y-71047988D01*
X138927533Y-70614882D01*
X138976564Y-70368383D01*
X143952769Y-70368383D01*
X144155582Y-70859229D01*
X144530796Y-71235098D01*
X145021287Y-71438768D01*
X145194563Y-71438919D01*
X145654822Y-71899178D01*
X145982490Y-72118118D01*
X146369000Y-72195000D01*
X148509560Y-72195000D01*
X148509560Y-72328000D01*
X148553838Y-72563317D01*
X148692910Y-72779441D01*
X148905110Y-72924431D01*
X149157000Y-72975440D01*
X151443000Y-72975440D01*
X151678317Y-72931162D01*
X151805784Y-72849140D01*
X151830000Y-72873356D01*
X151830000Y-73839560D01*
X151697000Y-73839560D01*
X151461683Y-73883838D01*
X151245559Y-74022910D01*
X151100569Y-74235110D01*
X151049560Y-74487000D01*
X151049560Y-76773000D01*
X151093838Y-77008317D01*
X151232910Y-77224441D01*
X151445110Y-77369431D01*
X151697000Y-77420440D01*
X153983000Y-77420440D01*
X154218317Y-77376162D01*
X154434441Y-77237090D01*
X154579431Y-77024890D01*
X154630440Y-76773000D01*
X154630440Y-74487000D01*
X154586162Y-74251683D01*
X154447090Y-74035559D01*
X154234890Y-73890569D01*
X153983000Y-73839560D01*
X153850000Y-73839560D01*
X153850000Y-72455000D01*
X153773118Y-72068490D01*
X153554178Y-71740822D01*
X152998356Y-71185000D01*
X161187167Y-71185000D01*
X161322509Y-71865411D01*
X161707931Y-72442236D01*
X162284756Y-72827658D01*
X162965167Y-72963000D01*
X163034833Y-72963000D01*
X163715244Y-72827658D01*
X164292069Y-72442236D01*
X164457267Y-72195000D01*
X165019560Y-72195000D01*
X165019560Y-72328000D01*
X165063838Y-72563317D01*
X165202910Y-72779441D01*
X165415110Y-72924431D01*
X165667000Y-72975440D01*
X167953000Y-72975440D01*
X168188317Y-72931162D01*
X168404441Y-72792090D01*
X168549431Y-72579890D01*
X168600440Y-72328000D01*
X168600440Y-72195000D01*
X169566644Y-72195000D01*
X171406794Y-74035150D01*
X171335244Y-73987342D01*
X170654833Y-73852000D01*
X170585167Y-73852000D01*
X169904756Y-73987342D01*
X169327931Y-74372764D01*
X168942509Y-74949589D01*
X168807167Y-75630000D01*
X168942509Y-76310411D01*
X169327931Y-76887236D01*
X169610000Y-77075708D01*
X169610000Y-78284560D01*
X169477000Y-78284560D01*
X169241683Y-78328838D01*
X169025559Y-78467910D01*
X168880569Y-78680110D01*
X168829560Y-78932000D01*
X168829560Y-81218000D01*
X168873838Y-81453317D01*
X169012910Y-81669441D01*
X169225110Y-81814431D01*
X169477000Y-81865440D01*
X171763000Y-81865440D01*
X171998317Y-81821162D01*
X172214441Y-81682090D01*
X172359431Y-81469890D01*
X172410440Y-81218000D01*
X172410440Y-80075000D01*
X181507167Y-80075000D01*
X181642509Y-80755411D01*
X182027931Y-81332236D01*
X182310000Y-81520708D01*
X182310000Y-84918652D01*
X182086621Y-85252964D01*
X181985000Y-85763846D01*
X181985000Y-85816154D01*
X182086621Y-86327036D01*
X182376012Y-86760142D01*
X182809118Y-87049533D01*
X183320000Y-87151154D01*
X183830882Y-87049533D01*
X184263988Y-86760142D01*
X184553379Y-86327036D01*
X184655000Y-85816154D01*
X184655000Y-85763846D01*
X184553379Y-85252964D01*
X184330000Y-84918652D01*
X184330000Y-81953846D01*
X185795000Y-81953846D01*
X185795000Y-82006154D01*
X185896621Y-82517036D01*
X186186012Y-82950142D01*
X186619118Y-83239533D01*
X187130000Y-83341154D01*
X187640882Y-83239533D01*
X187924920Y-83049745D01*
X202157861Y-83049745D01*
X202231995Y-83295864D01*
X202769223Y-83488965D01*
X203339454Y-83461778D01*
X203740005Y-83295864D01*
X203814139Y-83049745D01*
X202986000Y-82221605D01*
X202157861Y-83049745D01*
X187924920Y-83049745D01*
X188014336Y-82990000D01*
X190940000Y-82990000D01*
X191326510Y-82913118D01*
X191654178Y-82694178D01*
X192203362Y-82144994D01*
X192494187Y-82145248D01*
X193021800Y-81927243D01*
X193425824Y-81523923D01*
X193619396Y-81057750D01*
X197243000Y-81057750D01*
X197243000Y-81898310D01*
X197339673Y-82131699D01*
X197518302Y-82310327D01*
X197751691Y-82407000D01*
X198342250Y-82407000D01*
X198501000Y-82248250D01*
X198501000Y-80899000D01*
X198755000Y-80899000D01*
X198755000Y-82248250D01*
X198913750Y-82407000D01*
X199504309Y-82407000D01*
X199737698Y-82310327D01*
X199916327Y-82131699D01*
X200013000Y-81898310D01*
X200013000Y-81825223D01*
X201539035Y-81825223D01*
X201566222Y-82395454D01*
X201732136Y-82796005D01*
X201978255Y-82870139D01*
X202806395Y-82042000D01*
X201978255Y-81213861D01*
X201732136Y-81287995D01*
X201539035Y-81825223D01*
X200013000Y-81825223D01*
X200013000Y-81057750D01*
X199989505Y-81034255D01*
X202157861Y-81034255D01*
X202986000Y-81862395D01*
X203814139Y-81034255D01*
X203740005Y-80788136D01*
X203202777Y-80595035D01*
X202632546Y-80622222D01*
X202231995Y-80788136D01*
X202157861Y-81034255D01*
X199989505Y-81034255D01*
X199854250Y-80899000D01*
X198755000Y-80899000D01*
X198501000Y-80899000D01*
X197401750Y-80899000D01*
X197243000Y-81057750D01*
X193619396Y-81057750D01*
X193644750Y-80996691D01*
X193645248Y-80425813D01*
X193427243Y-79898200D01*
X193175173Y-79645690D01*
X197243000Y-79645690D01*
X197243000Y-80486250D01*
X197401750Y-80645000D01*
X198501000Y-80645000D01*
X198501000Y-79295750D01*
X198755000Y-79295750D01*
X198755000Y-80645000D01*
X199854250Y-80645000D01*
X200013000Y-80486250D01*
X200013000Y-79645690D01*
X199916327Y-79412301D01*
X199737698Y-79233673D01*
X199504309Y-79137000D01*
X198913750Y-79137000D01*
X198755000Y-79295750D01*
X198501000Y-79295750D01*
X198342250Y-79137000D01*
X197751691Y-79137000D01*
X197518302Y-79233673D01*
X197339673Y-79412301D01*
X197243000Y-79645690D01*
X193175173Y-79645690D01*
X193023923Y-79494176D01*
X192496691Y-79275250D01*
X191925813Y-79274752D01*
X191398200Y-79492757D01*
X190994176Y-79896077D01*
X190775250Y-80423309D01*
X190774994Y-80716650D01*
X190521644Y-80970000D01*
X188014336Y-80970000D01*
X187640882Y-80720467D01*
X187130000Y-80618846D01*
X186619118Y-80720467D01*
X186186012Y-81009858D01*
X185896621Y-81442964D01*
X185795000Y-81953846D01*
X184330000Y-81953846D01*
X184330000Y-81520708D01*
X184612069Y-81332236D01*
X184997491Y-80755411D01*
X185132833Y-80075000D01*
X184997491Y-79394589D01*
X184612069Y-78817764D01*
X184035244Y-78432342D01*
X183354833Y-78297000D01*
X183285167Y-78297000D01*
X182604756Y-78432342D01*
X182027931Y-78817764D01*
X181642509Y-79394589D01*
X181507167Y-80075000D01*
X172410440Y-80075000D01*
X172410440Y-78932000D01*
X172366162Y-78696683D01*
X172227090Y-78480559D01*
X172014890Y-78335569D01*
X171763000Y-78284560D01*
X171630000Y-78284560D01*
X171630000Y-77075708D01*
X171912069Y-76887236D01*
X172297491Y-76310411D01*
X172432833Y-75630000D01*
X172297491Y-74949589D01*
X172249683Y-74878039D01*
X173715822Y-76344178D01*
X174043490Y-76563118D01*
X174430000Y-76640000D01*
X175315612Y-76640000D01*
X175521077Y-76845824D01*
X176048309Y-77064750D01*
X176619187Y-77065248D01*
X177146800Y-76847243D01*
X177550824Y-76443923D01*
X177769750Y-75916691D01*
X177770248Y-75345813D01*
X177552243Y-74818200D01*
X177148923Y-74414176D01*
X176621691Y-74195250D01*
X176050813Y-74194752D01*
X175523200Y-74412757D01*
X175315595Y-74620000D01*
X174848356Y-74620000D01*
X170699178Y-70470822D01*
X170371510Y-70251882D01*
X169985000Y-70175000D01*
X168600440Y-70175000D01*
X168600440Y-70042000D01*
X168556162Y-69806683D01*
X168417090Y-69590559D01*
X168204890Y-69445569D01*
X167953000Y-69394560D01*
X165667000Y-69394560D01*
X165431683Y-69438838D01*
X165215559Y-69577910D01*
X165070569Y-69790110D01*
X165019560Y-70042000D01*
X165019560Y-70175000D01*
X164457267Y-70175000D01*
X164292069Y-69927764D01*
X163715244Y-69542342D01*
X163034833Y-69407000D01*
X162965167Y-69407000D01*
X162284756Y-69542342D01*
X161707931Y-69927764D01*
X161322509Y-70504589D01*
X161187167Y-71185000D01*
X152998356Y-71185000D01*
X152284178Y-70470822D01*
X152090440Y-70341371D01*
X152090440Y-70042000D01*
X152046162Y-69806683D01*
X151907090Y-69590559D01*
X151694890Y-69445569D01*
X151443000Y-69394560D01*
X151310000Y-69394560D01*
X151310000Y-67124388D01*
X151515824Y-66918923D01*
X151734750Y-66391691D01*
X151734752Y-66389187D01*
X153864752Y-66389187D01*
X154082757Y-66916800D01*
X154486077Y-67320824D01*
X155013309Y-67539750D01*
X155584187Y-67540248D01*
X156111800Y-67322243D01*
X156319405Y-67115000D01*
X182300612Y-67115000D01*
X182310000Y-67124405D01*
X182310000Y-69394560D01*
X182177000Y-69394560D01*
X181941683Y-69438838D01*
X181725559Y-69577910D01*
X181580569Y-69790110D01*
X181529560Y-70042000D01*
X181529560Y-70175000D01*
X180967267Y-70175000D01*
X180802069Y-69927764D01*
X180225244Y-69542342D01*
X179544833Y-69407000D01*
X179475167Y-69407000D01*
X178794756Y-69542342D01*
X178217931Y-69927764D01*
X177832509Y-70504589D01*
X177697167Y-71185000D01*
X177832509Y-71865411D01*
X178217931Y-72442236D01*
X178794756Y-72827658D01*
X179475167Y-72963000D01*
X179544833Y-72963000D01*
X180225244Y-72827658D01*
X180802069Y-72442236D01*
X180967267Y-72195000D01*
X181529560Y-72195000D01*
X181529560Y-72328000D01*
X181573838Y-72563317D01*
X181712910Y-72779441D01*
X181925110Y-72924431D01*
X182177000Y-72975440D01*
X184422204Y-72975440D01*
X182777644Y-74620000D01*
X182354388Y-74620000D01*
X182148923Y-74414176D01*
X181621691Y-74195250D01*
X181050813Y-74194752D01*
X180523200Y-74412757D01*
X180119176Y-74816077D01*
X179900250Y-75343309D01*
X179899752Y-75914187D01*
X180117757Y-76441800D01*
X180521077Y-76845824D01*
X181048309Y-77064750D01*
X181619187Y-77065248D01*
X182146800Y-76847243D01*
X182354405Y-76640000D01*
X183196000Y-76640000D01*
X183582510Y-76563118D01*
X183910178Y-76344178D01*
X185794913Y-74459443D01*
X185794769Y-74624383D01*
X185997582Y-75115229D01*
X186372796Y-75491098D01*
X186863287Y-75694768D01*
X187394383Y-75695231D01*
X187885229Y-75492418D01*
X188007861Y-75370000D01*
X190521644Y-75370000D01*
X190775075Y-75623431D01*
X190774752Y-75994187D01*
X190992757Y-76521800D01*
X191200000Y-76729405D01*
X191200000Y-76894000D01*
X191276882Y-77280510D01*
X191495822Y-77608178D01*
X192833822Y-78946178D01*
X193161490Y-79165118D01*
X193548000Y-79242000D01*
X194872506Y-79242000D01*
X195275951Y-79511573D01*
X195805968Y-79617000D01*
X196370032Y-79617000D01*
X196900049Y-79511573D01*
X197349375Y-79211343D01*
X197649605Y-78762017D01*
X197755032Y-78232000D01*
X197649605Y-77701983D01*
X197349375Y-77252657D01*
X196900049Y-76952427D01*
X196370032Y-76847000D01*
X195805968Y-76847000D01*
X195275951Y-76952427D01*
X194872506Y-77222000D01*
X193966356Y-77222000D01*
X193346983Y-76602627D01*
X193425824Y-76523923D01*
X193644750Y-75996691D01*
X193645248Y-75425813D01*
X193427243Y-74898200D01*
X193023923Y-74494176D01*
X192496691Y-74275250D01*
X192283420Y-74275064D01*
X191654178Y-73645822D01*
X191326510Y-73426882D01*
X190940000Y-73350000D01*
X188008091Y-73350000D01*
X187887204Y-73228902D01*
X187396713Y-73025232D01*
X187229270Y-73025086D01*
X188059356Y-72195000D01*
X194562733Y-72195000D01*
X194727931Y-72442236D01*
X195304756Y-72827658D01*
X195985167Y-72963000D01*
X196054833Y-72963000D01*
X196735244Y-72827658D01*
X197312069Y-72442236D01*
X197477267Y-72195000D01*
X198039560Y-72195000D01*
X198039560Y-72328000D01*
X198083838Y-72563317D01*
X198222910Y-72779441D01*
X198435110Y-72924431D01*
X198687000Y-72975440D01*
X198820000Y-72975440D01*
X198820000Y-74063159D01*
X198628000Y-74024968D01*
X198097983Y-74130395D01*
X197648657Y-74430625D01*
X197348427Y-74879951D01*
X197243000Y-75409968D01*
X197243000Y-75974032D01*
X197348427Y-76504049D01*
X197648657Y-76953375D01*
X198097983Y-77253605D01*
X198628000Y-77359032D01*
X199095522Y-77266036D01*
X199216000Y-77290001D01*
X199216005Y-77290000D01*
X210159650Y-77290000D01*
X210194630Y-77374658D01*
X210738479Y-77919457D01*
X211449416Y-78214663D01*
X212219207Y-78215335D01*
X212930658Y-77921370D01*
X213475457Y-77377521D01*
X213770663Y-76666584D01*
X213771335Y-75896793D01*
X213477370Y-75185342D01*
X212933521Y-74640543D01*
X212222584Y-74345337D01*
X211452793Y-74344665D01*
X210741342Y-74638630D01*
X210196543Y-75182479D01*
X210160201Y-75270000D01*
X200478356Y-75270000D01*
X200544178Y-75204178D01*
X200763118Y-74876510D01*
X200840000Y-74490000D01*
X200840000Y-72975440D01*
X200973000Y-72975440D01*
X201208317Y-72931162D01*
X201424441Y-72792090D01*
X201569431Y-72579890D01*
X201620440Y-72328000D01*
X201620440Y-71587866D01*
X210798243Y-71587866D01*
X211020586Y-72124672D01*
X211495080Y-72630772D01*
X212127132Y-72916766D01*
X212403000Y-72799717D01*
X212403000Y-71312000D01*
X212657000Y-71312000D01*
X212657000Y-72799717D01*
X212932868Y-72916766D01*
X213564920Y-72630772D01*
X214039414Y-72124672D01*
X214261757Y-71587866D01*
X214144262Y-71312000D01*
X212657000Y-71312000D01*
X212403000Y-71312000D01*
X210915738Y-71312000D01*
X210798243Y-71587866D01*
X201620440Y-71587866D01*
X201620440Y-70782134D01*
X210798243Y-70782134D01*
X210915738Y-71058000D01*
X212403000Y-71058000D01*
X212403000Y-69570283D01*
X212657000Y-69570283D01*
X212657000Y-71058000D01*
X214144262Y-71058000D01*
X214261757Y-70782134D01*
X214039414Y-70245328D01*
X213564920Y-69739228D01*
X212932868Y-69453234D01*
X212657000Y-69570283D01*
X212403000Y-69570283D01*
X212127132Y-69453234D01*
X211495080Y-69739228D01*
X211020586Y-70245328D01*
X210798243Y-70782134D01*
X201620440Y-70782134D01*
X201620440Y-70042000D01*
X201576162Y-69806683D01*
X201437090Y-69590559D01*
X201224890Y-69445569D01*
X200973000Y-69394560D01*
X198687000Y-69394560D01*
X198451683Y-69438838D01*
X198235559Y-69577910D01*
X198090569Y-69790110D01*
X198039560Y-70042000D01*
X198039560Y-70175000D01*
X197477267Y-70175000D01*
X197312069Y-69927764D01*
X196735244Y-69542342D01*
X196054833Y-69407000D01*
X195985167Y-69407000D01*
X195304756Y-69542342D01*
X194727931Y-69927764D01*
X194562733Y-70175000D01*
X187641000Y-70175000D01*
X187254490Y-70251882D01*
X186926822Y-70470822D01*
X185110440Y-72287204D01*
X185110440Y-70042000D01*
X185066162Y-69806683D01*
X184927090Y-69590559D01*
X184714890Y-69445569D01*
X184463000Y-69394560D01*
X184330000Y-69394560D01*
X184330000Y-67124388D01*
X184341663Y-67112745D01*
X187491861Y-67112745D01*
X187565995Y-67358864D01*
X188103223Y-67551965D01*
X188673454Y-67524778D01*
X189074005Y-67358864D01*
X189148139Y-67112745D01*
X188320000Y-66284605D01*
X187491861Y-67112745D01*
X184341663Y-67112745D01*
X184535824Y-66918923D01*
X184754750Y-66391691D01*
X184755189Y-65888223D01*
X186873035Y-65888223D01*
X186900222Y-66458454D01*
X187066136Y-66859005D01*
X187312255Y-66933139D01*
X188140395Y-66105000D01*
X188499605Y-66105000D01*
X189327745Y-66933139D01*
X189573864Y-66859005D01*
X189766965Y-66321777D01*
X189739778Y-65751546D01*
X189573864Y-65350995D01*
X189327745Y-65276861D01*
X188499605Y-66105000D01*
X188140395Y-66105000D01*
X187312255Y-65276861D01*
X187066136Y-65350995D01*
X186873035Y-65888223D01*
X184755189Y-65888223D01*
X184755248Y-65820813D01*
X184537243Y-65293200D01*
X184341640Y-65097255D01*
X187491861Y-65097255D01*
X188320000Y-65925395D01*
X189148139Y-65097255D01*
X189074005Y-64851136D01*
X188536777Y-64658035D01*
X187966546Y-64685222D01*
X187565995Y-64851136D01*
X187491861Y-65097255D01*
X184341640Y-65097255D01*
X184133923Y-64889176D01*
X183606691Y-64670250D01*
X183035813Y-64669752D01*
X182508200Y-64887757D01*
X182300595Y-65095000D01*
X156319388Y-65095000D01*
X156113923Y-64889176D01*
X155586691Y-64670250D01*
X155015813Y-64669752D01*
X154488200Y-64887757D01*
X154084176Y-65291077D01*
X153865250Y-65818309D01*
X153864752Y-66389187D01*
X151734752Y-66389187D01*
X151735248Y-65820813D01*
X151517243Y-65293200D01*
X151113923Y-64889176D01*
X150586691Y-64670250D01*
X150015813Y-64669752D01*
X149488200Y-64887757D01*
X149084176Y-65291077D01*
X148865250Y-65818309D01*
X148864752Y-66389187D01*
X149082757Y-66916800D01*
X149290000Y-67124405D01*
X149290000Y-69394560D01*
X149157000Y-69394560D01*
X148921683Y-69438838D01*
X148705559Y-69577910D01*
X148560569Y-69790110D01*
X148509560Y-70042000D01*
X148509560Y-70175000D01*
X146787356Y-70175000D01*
X146623082Y-70010726D01*
X146623231Y-69839617D01*
X146420418Y-69348771D01*
X146045204Y-68972902D01*
X145554713Y-68769232D01*
X145023617Y-68768769D01*
X144532771Y-68971582D01*
X144156902Y-69346796D01*
X143953232Y-69837287D01*
X143952769Y-70368383D01*
X138976564Y-70368383D01*
X139029154Y-70104000D01*
X138927533Y-69593118D01*
X138638142Y-69160012D01*
X138205036Y-68870621D01*
X137694154Y-68769000D01*
X137641846Y-68769000D01*
X137130964Y-68870621D01*
X136697858Y-69160012D01*
X136408467Y-69593118D01*
X136323533Y-70020111D01*
X136168644Y-70175000D01*
X131634388Y-70175000D01*
X131428923Y-69969176D01*
X131414196Y-69963061D01*
X131329178Y-69835822D01*
X131001510Y-69616882D01*
X130615000Y-69540000D01*
X130228490Y-69616882D01*
X129900822Y-69835822D01*
X129816276Y-69962354D01*
X129803200Y-69967757D01*
X129595595Y-70175000D01*
X127048091Y-70175000D01*
X126927204Y-70053902D01*
X126436713Y-69850232D01*
X125905617Y-69849769D01*
X125414771Y-70052582D01*
X125038902Y-70427796D01*
X124835232Y-70918287D01*
X124834769Y-71449383D01*
X119858564Y-71449383D01*
X119911154Y-71185000D01*
X119809533Y-70674118D01*
X119520142Y-70241012D01*
X119087036Y-69951621D01*
X118576154Y-69850000D01*
X118523846Y-69850000D01*
X118012964Y-69951621D01*
X117678652Y-70175000D01*
X114976348Y-70175000D01*
X114642036Y-69951621D01*
X114131154Y-69850000D01*
X114078846Y-69850000D01*
X113567964Y-69951621D01*
X113134858Y-70241012D01*
X112845467Y-70674118D01*
X112743846Y-71185000D01*
X107820000Y-71185000D01*
X107820231Y-70920617D01*
X107617418Y-70429771D01*
X107495000Y-70307139D01*
X107495000Y-68428356D01*
X108730611Y-67192745D01*
X129786861Y-67192745D01*
X129860995Y-67438864D01*
X130398223Y-67631965D01*
X130968454Y-67604778D01*
X131369005Y-67438864D01*
X131443139Y-67192745D01*
X130615000Y-66364605D01*
X129786861Y-67192745D01*
X108730611Y-67192745D01*
X109955133Y-65968223D01*
X129168035Y-65968223D01*
X129195222Y-66538454D01*
X129361136Y-66939005D01*
X129607255Y-67013139D01*
X130435395Y-66185000D01*
X130794605Y-66185000D01*
X131622745Y-67013139D01*
X131868864Y-66939005D01*
X132061965Y-66401777D01*
X132034778Y-65831546D01*
X131868864Y-65430995D01*
X131622745Y-65356861D01*
X130794605Y-66185000D01*
X130435395Y-66185000D01*
X129607255Y-65356861D01*
X129361136Y-65430995D01*
X129168035Y-65968223D01*
X109955133Y-65968223D01*
X110746101Y-65177255D01*
X129786861Y-65177255D01*
X130615000Y-66005395D01*
X131443139Y-65177255D01*
X131369005Y-64931136D01*
X130831777Y-64738035D01*
X130261546Y-64765222D01*
X129860995Y-64931136D01*
X129786861Y-65177255D01*
X110746101Y-65177255D01*
X111364178Y-64559178D01*
X111583118Y-64231511D01*
X111660000Y-63845000D01*
X111660000Y-57397440D01*
X113150000Y-57397440D01*
X113385317Y-57353162D01*
X113601441Y-57214090D01*
X113746431Y-57001890D01*
X113797440Y-56750000D01*
X113797440Y-54750000D01*
X113753162Y-54514683D01*
X113614090Y-54298559D01*
X113401890Y-54153569D01*
X113150000Y-54102560D01*
X108150000Y-54102560D01*
X108108532Y-54110363D01*
X108070000Y-54102560D01*
X103070000Y-54102560D01*
X102834683Y-54146838D01*
X102618559Y-54285910D01*
X102473569Y-54498110D01*
X102422560Y-54750000D01*
X100127000Y-54750000D01*
X100127000Y-50460000D01*
X115290000Y-50460000D01*
X115290000Y-61750000D01*
M02*
