G04 #@! TF.FileFunction,Soldermask,Top*
%FSLAX46Y46*%
G04 Gerber Fmt 4.6, Leading zero omitted, Abs format (unit mm)*
G04 Created by KiCad (PCBNEW 4.0.7) date 09/18/24 00:27:48*
%MOMM*%
%LPD*%
G01*
G04 APERTURE LIST*
%ADD10C,0.100000*%
%ADD11R,2.686000X2.686000*%
%ADD12O,2.686000X2.686000*%
%ADD13R,2.940000X2.940000*%
%ADD14O,2.940000X2.940000*%
%ADD15C,2.000000*%
%ADD16C,2.200000*%
%ADD17R,2.200000X2.200000*%
%ADD18C,3.000000*%
%ADD19C,1.800000*%
%ADD20O,1.800000X1.800000*%
%ADD21R,2.000000X2.800000*%
%ADD22O,2.000000X2.800000*%
%ADD23R,1.800000X1.800000*%
%ADD24R,5.400000X2.400000*%
%ADD25O,5.400000X2.400000*%
%ADD26O,1.900000X2.400000*%
%ADD27R,2.400000X1.900000*%
%ADD28O,2.400000X1.900000*%
%ADD29R,1.900000X2.400000*%
%ADD30R,2.400000X2.400000*%
%ADD31O,2.400000X2.400000*%
%ADD32C,1.900000*%
%ADD33R,2.000000X2.000000*%
%ADD34O,3.400000X2.000000*%
%ADD35C,1.920000*%
%ADD36R,1.920000X1.920000*%
%ADD37R,1.924000X1.924000*%
%ADD38C,1.924000*%
G04 APERTURE END LIST*
D10*
D11*
X170620000Y-80075000D03*
D12*
X183320000Y-80075000D03*
D11*
X157920000Y-75630000D03*
D12*
X170620000Y-75630000D03*
D11*
X152840000Y-75630000D03*
D12*
X140140000Y-75630000D03*
D11*
X140140000Y-80075000D03*
D12*
X152840000Y-80075000D03*
D13*
X122360000Y-80075000D03*
D14*
X135060000Y-80075000D03*
D13*
X135060000Y-75630000D03*
D14*
X122360000Y-75630000D03*
D11*
X150300000Y-71185000D03*
D12*
X163000000Y-71185000D03*
D11*
X166810000Y-71185000D03*
D12*
X179510000Y-71185000D03*
D11*
X199830000Y-71185000D03*
D12*
X212530000Y-71185000D03*
D11*
X183320000Y-71185000D03*
D12*
X196020000Y-71185000D03*
D15*
X196020000Y-89600000D03*
X196020000Y-94600000D03*
X150300000Y-66105000D03*
X155300000Y-66105000D03*
X192210000Y-80710000D03*
X192210000Y-75710000D03*
X130615000Y-71185000D03*
X130615000Y-66185000D03*
X176335000Y-75630000D03*
X181335000Y-75630000D03*
X183320000Y-66105000D03*
X188320000Y-66105000D03*
D16*
X114850000Y-79020000D03*
D17*
X114850000Y-76480000D03*
D18*
X211836000Y-81280000D03*
X211836000Y-76280000D03*
D19*
X165540000Y-80075000D03*
D20*
X157920000Y-80075000D03*
D19*
X164270000Y-85155000D03*
D20*
X171890000Y-85155000D03*
D19*
X129980000Y-84520000D03*
D20*
X129980000Y-92140000D03*
D19*
X133790000Y-84520000D03*
D20*
X133790000Y-92140000D03*
D19*
X201100000Y-94680000D03*
D20*
X201100000Y-87060000D03*
D19*
X126170000Y-71185000D03*
D20*
X118550000Y-71185000D03*
D19*
X183320000Y-93410000D03*
D20*
X183320000Y-85790000D03*
D19*
X106485000Y-71185000D03*
D20*
X114105000Y-71185000D03*
D19*
X187130000Y-74360000D03*
D20*
X187130000Y-81980000D03*
D21*
X171890000Y-90870000D03*
D22*
X164270000Y-98490000D03*
X169350000Y-90870000D03*
X166810000Y-98490000D03*
X166810000Y-90870000D03*
X169350000Y-98490000D03*
X164270000Y-90870000D03*
X171890000Y-98490000D03*
D19*
X125535000Y-97855000D03*
X125535000Y-95315000D03*
D23*
X125535000Y-100395000D03*
D19*
X125535000Y-102935000D03*
X132520000Y-97855000D03*
X132520000Y-95315000D03*
D23*
X132520000Y-100395000D03*
D19*
X132520000Y-102935000D03*
D24*
X105570000Y-55750000D03*
X110650000Y-55750000D03*
D25*
X208600000Y-55750000D03*
X213680000Y-55750000D03*
D26*
X189484000Y-88900000D03*
D27*
X186944000Y-91440000D03*
D28*
X192024000Y-91440000D03*
X196088000Y-78232000D03*
D29*
X198628000Y-80772000D03*
D26*
X198628000Y-75692000D03*
D21*
X153475000Y-87695000D03*
D22*
X138235000Y-95315000D03*
X150935000Y-87695000D03*
X140775000Y-95315000D03*
X148395000Y-87695000D03*
X143315000Y-95315000D03*
X145855000Y-87695000D03*
X145855000Y-95315000D03*
X143315000Y-87695000D03*
X148395000Y-95315000D03*
X140775000Y-87695000D03*
X150935000Y-95315000D03*
X138235000Y-87695000D03*
X153475000Y-95315000D03*
D30*
X207958000Y-88330000D03*
D31*
X207958000Y-101030000D03*
D32*
X114740000Y-97815000D03*
X114740000Y-92815000D03*
D17*
X125000000Y-88750000D03*
D16*
X125000000Y-91290000D03*
D19*
X115316000Y-87376000D03*
D20*
X107696000Y-87376000D03*
D33*
X205486000Y-82042000D03*
D15*
X202986000Y-82042000D03*
D32*
X215392000Y-95472000D03*
X215392000Y-93472000D03*
X215392000Y-91472000D03*
D34*
X215392000Y-97572000D03*
X215392000Y-89372000D03*
D19*
X187000000Y-102250000D03*
D20*
X179380000Y-102250000D03*
D35*
X199000000Y-102210000D03*
X199000000Y-99670000D03*
D36*
X199000000Y-104750000D03*
D15*
X118550000Y-80075000D03*
X118550000Y-75075000D03*
D19*
X145288000Y-70104000D03*
D20*
X137668000Y-70104000D03*
D19*
X187706000Y-84836000D03*
D20*
X195326000Y-84836000D03*
D37*
X101346000Y-129540000D03*
D38*
X103886000Y-129540000D03*
X106426000Y-129540000D03*
X108966000Y-129540000D03*
X111506000Y-129540000D03*
X114046000Y-129540000D03*
X116586000Y-129540000D03*
X119126000Y-129540000D03*
X121666000Y-129540000D03*
X124206000Y-129540000D03*
X126746000Y-129540000D03*
X129286000Y-129540000D03*
X131826000Y-129540000D03*
X134366000Y-129540000D03*
X136906000Y-129540000D03*
X139446000Y-129540000D03*
X139446000Y-109220000D03*
X136906000Y-109220000D03*
X134366000Y-109220000D03*
X131826000Y-109220000D03*
X129286000Y-109220000D03*
X126746000Y-109220000D03*
X124206000Y-109220000D03*
X121666000Y-109220000D03*
X119126000Y-109220000D03*
X116586000Y-109220000D03*
X114046000Y-109220000D03*
X111506000Y-109220000D03*
D37*
X211050000Y-129660000D03*
D38*
X208510000Y-129660000D03*
X205970000Y-129660000D03*
X203430000Y-129660000D03*
X200890000Y-129660000D03*
X198350000Y-129660000D03*
X195810000Y-129660000D03*
X193270000Y-129660000D03*
X190730000Y-129660000D03*
X188190000Y-129660000D03*
X185650000Y-129660000D03*
X183110000Y-129660000D03*
X180570000Y-129660000D03*
X178030000Y-129660000D03*
X175490000Y-129660000D03*
X172950000Y-129660000D03*
X172950000Y-109340000D03*
X175490000Y-109340000D03*
X178030000Y-109340000D03*
X180570000Y-109340000D03*
X183110000Y-109340000D03*
X185650000Y-109340000D03*
X188190000Y-109340000D03*
X190730000Y-109340000D03*
X193270000Y-109340000D03*
X195810000Y-109340000D03*
X198350000Y-109340000D03*
X200890000Y-109340000D03*
M02*
